<svg width="722" height="250" viewBox="0 0 722 250" fill="none" xmlns="http://www.w3.org/2000/svg">
<path d="M125.01 194.65C126.56 194.65 127.97 195.25 129.02 196.23C130.62 197.44 131.65 199.37 131.65 201.52V224.6C135.78 226.92 138.57 231.35 138.57 236.43C138.57 243.92 132.5 250 125 250C117.51 250 111.43 243.92 111.43 236.43C111.43 231.35 114.22 226.92 118.35 224.6V206.1C109.8 205.39 101.45 203.32 93.59 200.01C85.95 196.8 78.81 192.41 72.44 186.97L59.28 200.13C60.56 204.69 59.4 209.8 55.81 213.39C50.51 218.69 41.91 218.69 36.61 213.39C31.31 208.09 31.31 199.49 36.61 194.19C40.2 190.6 45.31 189.45 49.87 190.72L66.19 174.4C66.63 173.97 67.11 173.61 67.62 173.32C69.95 171.45 73.35 171.63 75.47 173.81C81.99 180.48 89.71 185.7 98.13 189.24C106.52 192.77 115.65 194.65 125.01 194.65ZM189.68 100.63C188.53 97.6 190.05 94.22 193.07 93.07C196.1 91.91 199.48 93.43 200.63 96.46C202.39 101.03 203.72 105.8 204.62 110.69C205.1 113.24 205.45 115.8 205.67 118.35H224.6C226.92 114.22 231.35 111.43 236.43 111.43C243.93 111.43 250 117.5 250 125C250 132.5 243.93 138.57 236.43 138.57C231.35 138.57 226.92 135.78 224.6 131.65H205.75C205.09 140.13 203.09 148.42 199.87 156.23C196.71 163.91 192.36 171.11 186.95 177.54L200.13 190.72C204.7 189.45 209.8 190.6 213.39 194.19C218.69 199.49 218.69 208.09 213.39 213.39C208.09 218.69 199.5 218.69 194.2 213.39C190.61 209.8 189.45 204.69 190.72 200.13L174.41 183.81C172.97 182.37 172.33 180.43 172.49 178.54C172.43 176.97 172.99 175.38 174.19 174.18C180.62 167.69 185.64 160.07 189.05 151.79C192.46 143.52 194.26 134.57 194.26 125.4C194.26 121.1 193.87 116.88 193.12 112.8C192.36 108.71 191.21 104.63 189.68 100.63ZM55.77 125.4C55.77 128.28 53.69 130.68 50.95 131.17C50.19 131.48 49.35 131.65 48.48 131.65H25.41C23.08 135.78 18.65 138.57 13.58 138.57C6.07999 138.57 0 132.5 0 125C0 117.5 6.07999 111.43 13.58 111.43C18.65 111.43 23.08 114.22 25.41 118.35H44.34C45.83 101.05 52.77 85.3 63.42 72.83L49.87 59.28C45.31 60.55 40.2 59.4 36.61 55.81C31.31 50.51 31.31 41.91 36.61 36.61C41.91 31.31 50.51 31.31 55.81 36.61C59.4 40.2 60.56 45.31 59.28 49.87L72.86 63.45C85.36 52.92 101.09 46.1 118.35 44.7V25.41C114.22 23.08 111.43 18.65 111.43 13.57C111.43 6.08001 117.51 0 125 0C132.5 0 138.57 6.08001 138.57 13.57C138.57 18.65 135.78 23.08 131.65 25.41V44.7C140 45.39 148.15 47.38 155.83 50.54C163.18 53.56 170.08 57.67 176.29 62.75L176.39 62.65C177.83 60.92 179.31 59.46 180.76 58.29L189.18 49.87C187.9 45.31 189.06 40.2 192.65 36.61C197.95 31.31 206.54 31.31 211.84 36.61C217.14 41.91 217.14 50.51 211.84 55.81C208.25 59.4 203.15 60.55 198.58 59.28C175.23 82.63 152.74 106.6 129.31 130.08C126.87 132.52 122.9 132.53 120.46 130.09C118.01 127.64 118.01 123.68 120.45 121.23L132.25 109.41C129.94 108.37 127.43 107.82 124.86 107.82C115.02 107.83 107.03 115.84 107.04 125.67C107.05 135.51 115.06 143.5 124.9 143.49C132.41 143.49 139.15 138.73 141.68 131.66C142.84 128.41 146.43 126.71 149.68 127.88C152.24 128.79 153.83 131.2 153.83 133.76C153.83 134.47 153.72 135.18 153.47 135.88C149.17 147.91 137.69 156 124.91 156.01C108.17 156.03 94.54 142.42 94.52 125.69C94.51 108.95 108.11 95.32 124.85 95.3C130.77 95.3 136.52 97.02 141.43 100.21L150.41 91.21C143.05 85.74 134.16 82.78 124.84 82.78C122.08 82.79 119.32 83.05 116.64 83.57C113.24 84.24 109.96 82.02 109.3 78.63C108.64 75.23 110.85 71.95 114.25 71.29C117.71 70.61 121.27 70.27 124.82 70.27C137.49 70.25 149.54 74.48 159.33 82.28C163.36 77.67 166.23 74.43 168.68 71.64C163.42 67.37 157.59 63.91 151.39 61.36C143.13 57.96 134.18 56.16 125.01 56.16C105.89 56.16 88.58 63.91 76.05 76.44C63.52 88.97 55.77 106.28 55.77 125.4ZM69.49 125.71C69.48 119.3 70.56 113 72.71 107.01C73.87 103.76 77.45 102.06 80.71 103.22C83.96 104.39 85.66 107.97 84.49 111.22C82.84 115.86 82 120.73 82 125.7C82.03 149.34 101.28 168.55 124.92 168.53C148.56 168.51 167.77 149.25 167.75 125.61C167.75 121.96 167.28 118.33 166.37 114.84C165.5 111.49 167.51 108.07 170.86 107.2C174.2 106.33 177.62 108.34 178.49 111.69C179.67 116.21 180.26 120.89 180.27 125.6C180.3 156.14 155.47 181.02 124.93 181.05C94.39 181.08 69.52 156.25 69.49 125.71Z" fill="white"/>
<path d="M330.51 112.16C330.51 116.82 329.43 120.77 327.25 123.99C325.08 127.22 321.73 129.44 317.19 130.65L332.81 159.11H322.18L307.61 131.8H293.62V159.11H284.13V90.8901H310.58C314.09 90.8901 317.11 91.3801 319.64 92.3701C322.16 93.3601 324.22 94.7401 325.82 96.4901C327.41 98.2501 328.6 100.31 329.36 102.67C330.13 105.04 330.51 107.59 330.51 110.34V112.16ZM293.62 123.85H307.99C312.21 123.85 315.42 122.94 317.62 121.12C319.83 119.3 320.93 116.31 320.93 112.16V110.91C320.93 106.83 319.94 103.79 317.96 101.81C315.98 99.8301 312.88 98.8401 308.66 98.8401H293.62V123.85Z" fill="white"/>
<path d="M386.95 90.8901L385.8 98.7401H353.7V120.11H383.89L382.64 127.97H353.7V151.26H386.95L385.8 159.11H344.12V90.8901H386.95Z" fill="white"/>
<path d="M417.52 160.07C413.88 160.07 410.29 159.79 406.74 159.21C403.2 158.64 400.21 157.93 397.78 157.1L399.41 149.44C401.97 150.14 404.76 150.76 407.8 151.31C410.83 151.85 414.01 152.12 417.33 152.12C423.14 152.12 427.28 151.13 429.74 149.15C432.2 147.17 433.43 144.04 433.43 139.76C433.43 138.35 433.28 137.06 433 135.88C432.71 134.7 432.17 133.64 431.37 132.71C430.57 131.79 429.47 131.01 428.06 130.37C426.66 129.73 424.87 129.25 422.7 128.93L415.22 127.97C409.35 127.21 405.03 125.24 402.29 122.08C399.54 118.92 398.16 114.81 398.16 109.76V109C398.16 102.54 400.32 97.7502 404.63 94.6202C408.95 91.4902 415.19 89.9302 423.37 89.9302C427.26 89.9302 430.63 90.2302 433.48 90.8402C436.32 91.4502 438.86 92.1002 441.09 92.8002L439.37 100.28C437.2 99.5702 434.74 99.0002 431.99 98.5502C429.24 98.1102 426.34 97.8802 423.27 97.8802C417.65 97.8802 413.58 98.7802 411.05 100.57C408.53 102.35 407.27 105.26 407.27 109.29C407.27 112.42 408.08 114.75 409.71 116.28C411.34 117.81 414.07 118.84 417.9 119.35L425.95 120.5C431.64 121.33 435.89 123.23 438.7 126.2C441.51 129.17 442.91 133.46 442.91 139.09V140.05C442.91 146.75 440.73 151.77 436.35 155.09C431.97 158.41 425.7 160.07 417.52 160.07Z" fill="white"/>
<path d="M482.3 160.07C476.81 160.07 472.22 159.42 468.55 158.11C464.87 156.8 461.92 154.85 459.68 152.26C457.45 149.68 455.87 146.45 454.94 142.59C454.01 138.72 453.55 134.2 453.55 129.03V122.03C453.55 117.43 454.01 113.18 454.94 109.29C455.87 105.39 457.48 102 459.78 99.1302C462.08 96.2502 465.15 94.0002 468.98 92.3702C472.81 90.7402 477.64 89.9302 483.45 89.9302C486.71 89.9302 489.71 90.1802 492.46 90.6902C495.2 91.2102 497.47 91.7802 499.26 92.4202L496.86 103.54C495.33 103.02 493.59 102.61 491.64 102.29C489.69 101.97 487.57 101.81 485.27 101.81C482.2 101.81 479.6 102.11 477.46 102.72C475.32 103.33 473.58 104.4 472.24 105.93C470.9 107.46 469.92 109.54 469.31 112.16C468.71 114.78 468.4 118.1 468.4 122.13V128.45C468.4 132.54 468.68 135.86 469.22 138.42C469.76 140.97 470.67 142.97 471.95 144.41C473.23 145.84 474.97 146.83 477.17 147.38C479.38 147.92 482.17 148.19 485.56 148.19C487.41 148.19 489.52 148.1 491.88 147.9C494.25 147.71 496.64 147.39 499.07 146.94L496.77 158.44C494.34 159.02 491.88 159.43 489.39 159.69C486.9 159.95 484.54 160.07 482.3 160.07Z" fill="white"/>
<path d="M521.49 129.22C521.49 133.31 521.76 136.61 522.31 139.14C522.85 141.66 523.68 143.62 524.8 145.03C525.92 146.43 527.31 147.39 528.97 147.9C530.63 148.41 532.58 148.67 534.81 148.67C536.92 148.67 538.8 148.41 540.47 147.9C542.13 147.39 543.53 146.42 544.68 144.98C545.83 143.54 546.71 141.56 547.32 139.04C547.93 136.52 548.23 133.24 548.23 129.22V120.78C548.23 116.7 547.96 113.39 547.41 110.87C546.87 108.34 546.04 106.38 544.92 104.97C543.8 103.57 542.42 102.61 540.75 102.1C539.09 101.59 537.14 101.33 534.91 101.33C532.8 101.33 530.92 101.59 529.25 102.1C527.59 102.61 526.19 103.58 525.04 105.02C523.89 106.46 523.01 108.44 522.4 110.96C521.8 113.49 521.49 116.76 521.49 120.78V129.22ZM563.08 129.03C563.08 133.63 562.65 137.86 561.79 141.72C560.93 145.59 559.42 148.91 557.28 151.69C555.14 154.47 552.27 156.64 548.66 158.2C545.05 159.77 540.47 160.55 534.91 160.55C529.22 160.55 524.56 159.77 520.92 158.2C517.28 156.64 514.4 154.47 512.29 151.69C510.19 148.91 508.72 145.59 507.89 141.72C507.05 137.86 506.64 133.63 506.64 129.03V120.98C506.64 116.31 507.09 112.03 507.98 108.14C508.88 104.24 510.39 100.92 512.53 98.1702C514.67 95.4202 517.55 93.2802 521.16 91.7502C524.77 90.2202 529.32 89.4502 534.81 89.4502C540.63 89.4502 545.37 90.2602 549.04 91.8902C552.72 93.5202 555.59 95.7402 557.67 98.5502C559.74 101.36 561.17 104.69 561.93 108.52C562.7 112.35 563.08 116.5 563.08 120.98V129.03Z" fill="white"/>
<path d="M584.36 90.8901L599.49 142.54L614.92 90.8901H629.97L606.78 159.11H591.73L568.74 90.8901H584.36Z" fill="white"/>
<path d="M653.64 159.11H639.07V90.8901H653.64V159.11Z" fill="white"/>
<path d="M667.63 90.8901H691.58C697.4 90.8901 702.24 91.6501 706.1 93.1901C709.97 94.7201 713.05 96.8401 715.35 99.5601C717.65 102.27 719.26 105.53 720.19 109.33C721.11 113.13 721.58 117.27 721.58 121.74V128.16C721.58 132.7 721.1 136.87 720.14 140.67C719.18 144.47 717.55 147.73 715.25 150.44C712.95 153.16 709.87 155.28 706.01 156.82C702.14 158.35 697.3 159.11 691.49 159.11H667.63V90.8901ZM682.19 147.23H690.24C692.99 147.23 695.4 146.91 697.48 146.27C699.55 145.64 701.28 144.55 702.65 143.02C704.03 141.48 705.05 139.45 705.72 136.93C706.39 134.41 706.72 131.26 706.72 127.49V122.41C706.72 118.58 706.39 115.4 705.72 112.88C705.05 110.36 704.03 108.34 702.65 106.84C701.28 105.34 699.55 104.29 697.48 103.68C695.4 103.07 692.99 102.77 690.24 102.77H682.19V147.23Z" fill="white"/>
</svg>
