<svg xmlns="http://www.w3.org/2000/svg" width="801" height="320" viewBox="0 0 801 320" fill="none" style="&#10;    /* background-color: black; */&#10;    /* color: black; */&#10;">
<g filter="url(#filter0_b)">
<mask id="path-1-inside-1" fill="white">
<path d="M159.79 248.81C161.77 248.81 163.57 249.57 164.91 250.83C166.96 252.38 168.28 254.84 168.28 257.59V287.09C173.56 290.06 177.13 295.72 177.13 302.21C177.13 311.8 169.36 319.56 159.78 319.56C150.2 319.56 142.43 311.8 142.43 302.21C142.43 295.72 146 290.06 151.28 287.09V263.45C140.35 262.54 129.67 259.89 119.63 255.66C109.87 251.55 100.74 245.95 92.59 239L75.77 255.81C77.4 261.65 75.92 268.17 71.33 272.76C64.56 279.54 53.57 279.54 46.8 272.76C40.02 265.99 40.02 255 46.8 248.23C51.39 243.64 57.91 242.16 63.75 243.79L84.61 222.93C85.16 222.37 85.78 221.91 86.44 221.54C89.41 219.16 93.76 219.38 96.47 222.17C104.8 230.69 114.67 237.36 125.43 241.9C136.16 246.41 147.83 248.81 159.79 248.81ZM242.46 128.63C240.98 124.76 242.93 120.43 246.79 118.96C250.66 117.49 254.99 119.43 256.46 123.29C258.7 129.14 260.4 135.23 261.56 141.49C262.16 144.75 262.61 148.02 262.9 151.28H287.09C290.06 146 295.72 142.43 302.21 142.43C311.8 142.43 319.56 150.2 319.56 159.78C319.56 169.36 311.8 177.13 302.21 177.13C295.72 177.13 290.07 173.56 287.09 168.28H262.99C262.15 179.12 259.6 189.72 255.49 199.7C251.44 209.52 245.88 218.72 238.97 226.94L255.81 243.79C261.65 242.16 268.17 243.64 272.76 248.23C279.54 255 279.54 265.99 272.76 272.76C265.99 279.54 255 279.54 248.23 272.76C243.64 268.17 242.16 261.65 243.79 255.81L222.93 234.96C221.09 233.12 220.28 230.63 220.48 228.22C220.4 226.21 221.12 224.18 222.65 222.64C230.88 214.35 237.3 204.6 241.66 194.02C246.01 183.46 248.31 172.01 248.31 160.29C248.31 154.8 247.82 149.4 246.85 144.18C245.89 138.95 244.41 133.74 242.46 128.63ZM71.28 160.29C71.28 163.98 68.63 167.04 65.13 167.67C64.15 168.07 63.08 168.28 61.97 168.28H32.47C29.5 173.56 23.84 177.13 17.35 177.13C7.77 177.13 0 169.36 0 159.78C0 150.2 7.77 142.43 17.35 142.43C23.84 142.43 29.5 146 32.47 151.28H56.67C58.58 129.16 67.44 109.03 81.06 93.09L63.75 75.77C57.91 77.4 51.39 75.92 46.8 71.33C40.02 64.56 40.02 53.57 46.8 46.8C53.57 40.02 64.56 40.02 71.33 46.8C75.92 51.39 77.4 57.91 75.77 63.75L93.13 81.1C109.11 67.64 129.21 58.93 151.28 57.13V32.47C146 29.5 142.43 23.84 142.43 17.35C142.43 7.76001 150.2 0 159.78 0C169.36 0 177.13 7.76001 177.13 17.35C177.13 23.84 173.56 29.5 168.28 32.47V57.13C178.95 58.02 189.37 60.56 199.19 64.6C208.58 68.47 217.41 73.71 225.35 80.21L225.48 80.08C227.31 77.87 229.2 76.01 231.06 74.5L241.81 63.75C240.18 57.91 241.66 51.39 246.25 46.8C253.03 40.02 264.01 40.02 270.79 46.8C277.56 53.57 277.56 64.56 270.79 71.33C266.2 75.92 259.67 77.4 253.84 75.77C223.99 105.62 195.24 136.26 165.28 166.27C162.16 169.4 157.1 169.4 153.97 166.28C150.84 163.16 150.84 158.09 153.96 154.97L169.04 139.86C166.1 138.52 162.89 137.81 159.6 137.82C147.03 137.83 136.81 148.07 136.82 160.64C136.83 173.21 147.07 183.43 159.64 183.42C169.25 183.41 177.87 177.33 181.1 168.3C182.59 164.14 187.17 161.97 191.33 163.46C194.6 164.62 196.63 167.7 196.64 170.98C196.64 171.88 196.49 172.79 196.17 173.68C190.67 189.06 176 199.4 159.66 199.42C138.27 199.44 120.84 182.05 120.82 160.66C120.8 139.26 138.19 121.84 159.58 121.82C167.16 121.81 174.51 124.01 180.78 128.1L192.26 116.59C182.85 109.59 171.49 105.8 159.57 105.82C156.04 105.82 152.52 106.16 149.09 106.83C144.75 107.67 140.55 104.84 139.71 100.5C138.86 96.16 141.7 91.96 146.03 91.12C150.46 90.26 155.01 89.82 159.55 89.81C175.75 89.8 191.15 95.21 203.66 105.17C208.81 99.28 212.48 95.14 215.61 91.57C208.89 86.11 201.44 81.69 193.51 78.43C182.95 74.08 171.51 71.78 159.79 71.78C135.35 71.78 113.22 81.69 97.21 97.71C81.19 113.72 71.28 135.85 71.28 160.29ZM88.82 160.69C88.81 152.49 90.2 144.44 92.93 136.78C94.42 132.62 99 130.46 103.16 131.94C107.32 133.43 109.49 138.01 108 142.17C105.88 148.09 104.81 154.32 104.82 160.67C104.85 190.89 129.46 215.45 159.68 215.42C189.89 215.39 214.45 190.78 214.42 160.56C214.42 155.89 213.83 151.26 212.67 146.79C211.55 142.51 214.12 138.14 218.4 137.03C222.67 135.92 227.04 138.49 228.15 142.76C229.66 148.54 230.42 154.53 230.42 160.55C230.46 199.59 198.73 231.38 159.69 231.42C120.65 231.46 88.86 199.73 88.82 160.69Z"/>
</mask>
<path d="M159.79 248.81C161.77 248.81 163.57 249.57 164.91 250.83C166.96 252.38 168.28 254.84 168.28 257.59V287.09C173.56 290.06 177.13 295.72 177.13 302.21C177.13 311.8 169.36 319.56 159.78 319.56C150.2 319.56 142.43 311.8 142.43 302.21C142.43 295.72 146 290.06 151.28 287.09V263.45C140.35 262.54 129.67 259.89 119.63 255.66C109.87 251.55 100.74 245.95 92.59 239L75.77 255.81C77.4 261.65 75.92 268.17 71.33 272.76C64.56 279.54 53.57 279.54 46.8 272.76C40.02 265.99 40.02 255 46.8 248.23C51.39 243.64 57.91 242.16 63.75 243.79L84.61 222.93C85.16 222.37 85.78 221.91 86.44 221.54C89.41 219.16 93.76 219.38 96.47 222.17C104.8 230.69 114.67 237.36 125.43 241.9C136.16 246.41 147.83 248.81 159.79 248.81ZM242.46 128.63C240.98 124.76 242.93 120.43 246.79 118.96C250.66 117.49 254.99 119.43 256.46 123.29C258.7 129.14 260.4 135.23 261.56 141.49C262.16 144.75 262.61 148.02 262.9 151.28H287.09C290.06 146 295.72 142.43 302.21 142.43C311.8 142.43 319.56 150.2 319.56 159.78C319.56 169.36 311.8 177.13 302.21 177.13C295.72 177.13 290.07 173.56 287.09 168.28H262.99C262.15 179.12 259.6 189.72 255.49 199.7C251.44 209.52 245.88 218.72 238.97 226.94L255.81 243.79C261.65 242.16 268.17 243.64 272.76 248.23C279.54 255 279.54 265.99 272.76 272.76C265.99 279.54 255 279.54 248.23 272.76C243.64 268.17 242.16 261.65 243.79 255.81L222.93 234.96C221.09 233.12 220.28 230.63 220.48 228.22C220.4 226.21 221.12 224.18 222.65 222.64C230.88 214.35 237.3 204.6 241.66 194.02C246.01 183.46 248.31 172.01 248.31 160.29C248.31 154.8 247.82 149.4 246.85 144.18C245.89 138.95 244.41 133.74 242.46 128.63ZM71.28 160.29C71.28 163.98 68.63 167.04 65.13 167.67C64.15 168.07 63.08 168.28 61.97 168.28H32.47C29.5 173.56 23.84 177.13 17.35 177.13C7.77 177.13 0 169.36 0 159.78C0 150.2 7.77 142.43 17.35 142.43C23.84 142.43 29.5 146 32.47 151.28H56.67C58.58 129.16 67.44 109.03 81.06 93.09L63.75 75.77C57.91 77.4 51.39 75.92 46.8 71.33C40.02 64.56 40.02 53.57 46.8 46.8C53.57 40.02 64.56 40.02 71.33 46.8C75.92 51.39 77.4 57.91 75.77 63.75L93.13 81.1C109.11 67.64 129.21 58.93 151.28 57.13V32.47C146 29.5 142.43 23.84 142.43 17.35C142.43 7.76001 150.2 0 159.78 0C169.36 0 177.13 7.76001 177.13 17.35C177.13 23.84 173.56 29.5 168.28 32.47V57.13C178.95 58.02 189.37 60.56 199.19 64.6C208.58 68.47 217.41 73.71 225.35 80.21L225.48 80.08C227.31 77.87 229.2 76.01 231.06 74.5L241.81 63.75C240.18 57.91 241.66 51.39 246.25 46.8C253.03 40.02 264.01 40.02 270.79 46.8C277.56 53.57 277.56 64.56 270.79 71.33C266.2 75.92 259.67 77.4 253.84 75.77C223.99 105.62 195.24 136.26 165.28 166.27C162.16 169.4 157.1 169.4 153.97 166.28C150.84 163.16 150.84 158.09 153.96 154.97L169.04 139.86C166.1 138.52 162.89 137.81 159.6 137.82C147.03 137.83 136.81 148.07 136.82 160.64C136.83 173.21 147.07 183.43 159.64 183.42C169.25 183.41 177.87 177.33 181.1 168.3C182.59 164.14 187.17 161.97 191.33 163.46C194.6 164.62 196.63 167.7 196.64 170.98C196.64 171.88 196.49 172.79 196.17 173.68C190.67 189.06 176 199.4 159.66 199.42C138.27 199.44 120.84 182.05 120.82 160.66C120.8 139.26 138.19 121.84 159.58 121.82C167.16 121.81 174.51 124.01 180.78 128.1L192.26 116.59C182.85 109.59 171.49 105.8 159.57 105.82C156.04 105.82 152.52 106.16 149.09 106.83C144.75 107.67 140.55 104.84 139.71 100.5C138.86 96.16 141.7 91.96 146.03 91.12C150.46 90.26 155.01 89.82 159.55 89.81C175.75 89.8 191.15 95.21 203.66 105.17C208.81 99.28 212.48 95.14 215.61 91.57C208.89 86.11 201.44 81.69 193.51 78.43C182.95 74.08 171.51 71.78 159.79 71.78C135.35 71.78 113.22 81.69 97.21 97.71C81.19 113.72 71.28 135.85 71.28 160.29ZM88.82 160.69C88.81 152.49 90.2 144.44 92.93 136.78C94.42 132.62 99 130.46 103.16 131.94C107.32 133.43 109.49 138.01 108 142.17C105.88 148.09 104.81 154.32 104.82 160.67C104.85 190.89 129.46 215.45 159.68 215.42C189.89 215.39 214.45 190.78 214.42 160.56C214.42 155.89 213.83 151.26 212.67 146.79C211.55 142.51 214.12 138.14 218.4 137.03C222.67 135.92 227.04 138.49 228.15 142.76C229.66 148.54 230.42 154.53 230.42 160.55C230.46 199.59 198.73 231.38 159.69 231.42C120.65 231.46 88.86 199.73 88.82 160.69Z" fill="white" stroke="black" stroke-width="5" mask="url(#path-1-inside-1)"/>




</g>
<defs>
<filter id="filter0_b" x="-4" y="-4" width="802.475" height="327.56" filterUnits="userSpaceOnUse" color-interpolation-filters="sRGB">
<feFlood flood-opacity="0" result="BackgroundImageFix"/>
<feGaussianBlur in="BackgroundImage" stdDeviation="2"/>
<feComposite in2="SourceAlpha" operator="in" result="effect1_backgroundBlur"/>
<feBlend mode="normal" in="SourceGraphic" in2="effect1_backgroundBlur" result="shape"/>
</filter>
</defs>
</svg>