<svg width="801" height="320" viewBox="0 0 801 320" fill="none" xmlns="http://www.w3.org/2000/svg">
<g filter="url(#filter0_b)">
<mask id="path-1-inside-1" fill="white">
<path d="M159.79 248.81C161.77 248.81 163.57 249.57 164.91 250.83C166.96 252.38 168.28 254.84 168.28 257.59V287.09C173.56 290.06 177.13 295.72 177.13 302.21C177.13 311.8 169.36 319.56 159.78 319.56C150.2 319.56 142.43 311.8 142.43 302.21C142.43 295.72 146 290.06 151.28 287.09V263.45C140.35 262.54 129.67 259.89 119.63 255.66C109.87 251.55 100.74 245.95 92.59 239L75.77 255.81C77.4 261.65 75.92 268.17 71.33 272.76C64.56 279.54 53.57 279.54 46.8 272.76C40.02 265.99 40.02 255 46.8 248.23C51.39 243.64 57.91 242.16 63.75 243.79L84.61 222.93C85.16 222.37 85.78 221.91 86.44 221.54C89.41 219.16 93.76 219.38 96.47 222.17C104.8 230.69 114.67 237.36 125.43 241.9C136.16 246.41 147.83 248.81 159.79 248.81ZM242.46 128.63C240.98 124.76 242.93 120.43 246.79 118.96C250.66 117.49 254.99 119.43 256.46 123.29C258.7 129.14 260.4 135.23 261.56 141.49C262.16 144.75 262.61 148.02 262.9 151.28H287.09C290.06 146 295.72 142.43 302.21 142.43C311.8 142.43 319.56 150.2 319.56 159.78C319.56 169.36 311.8 177.13 302.21 177.13C295.72 177.13 290.07 173.56 287.09 168.28H262.99C262.15 179.12 259.6 189.72 255.49 199.7C251.44 209.52 245.88 218.72 238.97 226.94L255.81 243.79C261.65 242.16 268.17 243.64 272.76 248.23C279.54 255 279.54 265.99 272.76 272.76C265.99 279.54 255 279.54 248.23 272.76C243.64 268.17 242.16 261.65 243.79 255.81L222.93 234.96C221.09 233.12 220.28 230.63 220.48 228.22C220.4 226.21 221.12 224.18 222.65 222.64C230.88 214.35 237.3 204.6 241.66 194.02C246.01 183.46 248.31 172.01 248.31 160.29C248.31 154.8 247.82 149.4 246.85 144.18C245.89 138.95 244.41 133.74 242.46 128.63ZM71.28 160.29C71.28 163.98 68.63 167.04 65.13 167.67C64.15 168.07 63.08 168.28 61.97 168.28H32.47C29.5 173.56 23.84 177.13 17.35 177.13C7.77 177.13 0 169.36 0 159.78C0 150.2 7.77 142.43 17.35 142.43C23.84 142.43 29.5 146 32.47 151.28H56.67C58.58 129.16 67.44 109.03 81.06 93.09L63.75 75.77C57.91 77.4 51.39 75.92 46.8 71.33C40.02 64.56 40.02 53.57 46.8 46.8C53.57 40.02 64.56 40.02 71.33 46.8C75.92 51.39 77.4 57.91 75.77 63.75L93.13 81.1C109.11 67.64 129.21 58.93 151.28 57.13V32.47C146 29.5 142.43 23.84 142.43 17.35C142.43 7.76001 150.2 0 159.78 0C169.36 0 177.13 7.76001 177.13 17.35C177.13 23.84 173.56 29.5 168.28 32.47V57.13C178.95 58.02 189.37 60.56 199.19 64.6C208.58 68.47 217.41 73.71 225.35 80.21L225.48 80.08C227.31 77.87 229.2 76.01 231.06 74.5L241.81 63.75C240.18 57.91 241.66 51.39 246.25 46.8C253.03 40.02 264.01 40.02 270.79 46.8C277.56 53.57 277.56 64.56 270.79 71.33C266.2 75.92 259.67 77.4 253.84 75.77C223.99 105.62 195.24 136.26 165.28 166.27C162.16 169.4 157.1 169.4 153.97 166.28C150.84 163.16 150.84 158.09 153.96 154.97L169.04 139.86C166.1 138.52 162.89 137.81 159.6 137.82C147.03 137.83 136.81 148.07 136.82 160.64C136.83 173.21 147.07 183.43 159.64 183.42C169.25 183.41 177.87 177.33 181.1 168.3C182.59 164.14 187.17 161.97 191.33 163.46C194.6 164.62 196.63 167.7 196.64 170.98C196.64 171.88 196.49 172.79 196.17 173.68C190.67 189.06 176 199.4 159.66 199.42C138.27 199.44 120.84 182.05 120.82 160.66C120.8 139.26 138.19 121.84 159.58 121.82C167.16 121.81 174.51 124.01 180.78 128.1L192.26 116.59C182.85 109.59 171.49 105.8 159.57 105.82C156.04 105.82 152.52 106.16 149.09 106.83C144.75 107.67 140.55 104.84 139.71 100.5C138.86 96.16 141.7 91.96 146.03 91.12C150.46 90.26 155.01 89.82 159.55 89.81C175.75 89.8 191.15 95.21 203.66 105.17C208.81 99.28 212.48 95.14 215.61 91.57C208.89 86.11 201.44 81.69 193.51 78.43C182.95 74.08 171.51 71.78 159.79 71.78C135.35 71.78 113.22 81.69 97.21 97.71C81.19 113.72 71.28 135.85 71.28 160.29ZM88.82 160.69C88.81 152.49 90.2 144.44 92.93 136.78C94.42 132.62 99 130.46 103.16 131.94C107.32 133.43 109.49 138.01 108 142.17C105.88 148.09 104.81 154.32 104.82 160.67C104.85 190.89 129.46 215.45 159.68 215.42C189.89 215.39 214.45 190.78 214.42 160.56C214.42 155.89 213.83 151.26 212.67 146.79C211.55 142.51 214.12 138.14 218.4 137.03C222.67 135.92 227.04 138.49 228.15 142.76C229.66 148.54 230.42 154.53 230.42 160.55C230.46 199.59 198.73 231.38 159.69 231.42C120.65 231.46 88.86 199.73 88.82 160.69Z"/>
</mask>
<path d="M159.79 248.81C161.77 248.81 163.57 249.57 164.91 250.83C166.96 252.38 168.28 254.84 168.28 257.59V287.09C173.56 290.06 177.13 295.72 177.13 302.21C177.13 311.8 169.36 319.56 159.78 319.56C150.2 319.56 142.43 311.8 142.43 302.21C142.43 295.72 146 290.06 151.28 287.09V263.45C140.35 262.54 129.67 259.89 119.63 255.66C109.87 251.55 100.74 245.95 92.59 239L75.77 255.81C77.4 261.65 75.92 268.17 71.33 272.76C64.56 279.54 53.57 279.54 46.8 272.76C40.02 265.99 40.02 255 46.8 248.23C51.39 243.64 57.91 242.16 63.75 243.79L84.61 222.93C85.16 222.37 85.78 221.91 86.44 221.54C89.41 219.16 93.76 219.38 96.47 222.17C104.8 230.69 114.67 237.36 125.43 241.9C136.16 246.41 147.83 248.81 159.79 248.81ZM242.46 128.63C240.98 124.76 242.93 120.43 246.79 118.96C250.66 117.49 254.99 119.43 256.46 123.29C258.7 129.14 260.4 135.23 261.56 141.49C262.16 144.75 262.61 148.02 262.9 151.28H287.09C290.06 146 295.72 142.43 302.21 142.43C311.8 142.43 319.56 150.2 319.56 159.78C319.56 169.36 311.8 177.13 302.21 177.13C295.72 177.13 290.07 173.56 287.09 168.28H262.99C262.15 179.12 259.6 189.72 255.49 199.7C251.44 209.52 245.88 218.72 238.97 226.94L255.81 243.79C261.65 242.16 268.17 243.64 272.76 248.23C279.54 255 279.54 265.99 272.76 272.76C265.99 279.54 255 279.54 248.23 272.76C243.64 268.17 242.16 261.65 243.79 255.81L222.93 234.96C221.09 233.12 220.28 230.63 220.48 228.22C220.4 226.21 221.12 224.18 222.65 222.64C230.88 214.35 237.3 204.6 241.66 194.02C246.01 183.46 248.31 172.01 248.31 160.29C248.31 154.8 247.82 149.4 246.85 144.18C245.89 138.95 244.41 133.74 242.46 128.63ZM71.28 160.29C71.28 163.98 68.63 167.04 65.13 167.67C64.15 168.07 63.08 168.28 61.97 168.28H32.47C29.5 173.56 23.84 177.13 17.35 177.13C7.77 177.13 0 169.36 0 159.78C0 150.2 7.77 142.43 17.35 142.43C23.84 142.43 29.5 146 32.47 151.28H56.67C58.58 129.16 67.44 109.03 81.06 93.09L63.75 75.77C57.91 77.4 51.39 75.92 46.8 71.33C40.02 64.56 40.02 53.57 46.8 46.8C53.57 40.02 64.56 40.02 71.33 46.8C75.92 51.39 77.4 57.91 75.77 63.75L93.13 81.1C109.11 67.64 129.21 58.93 151.28 57.13V32.47C146 29.5 142.43 23.84 142.43 17.35C142.43 7.76001 150.2 0 159.78 0C169.36 0 177.13 7.76001 177.13 17.35C177.13 23.84 173.56 29.5 168.28 32.47V57.13C178.95 58.02 189.37 60.56 199.19 64.6C208.58 68.47 217.41 73.71 225.35 80.21L225.48 80.08C227.31 77.87 229.2 76.01 231.06 74.5L241.81 63.75C240.18 57.91 241.66 51.39 246.25 46.8C253.03 40.02 264.01 40.02 270.79 46.8C277.56 53.57 277.56 64.56 270.79 71.33C266.2 75.92 259.67 77.4 253.84 75.77C223.99 105.62 195.24 136.26 165.28 166.27C162.16 169.4 157.1 169.4 153.97 166.28C150.84 163.16 150.84 158.09 153.96 154.97L169.04 139.86C166.1 138.52 162.89 137.81 159.6 137.82C147.03 137.83 136.81 148.07 136.82 160.64C136.83 173.21 147.07 183.43 159.64 183.42C169.25 183.41 177.87 177.33 181.1 168.3C182.59 164.14 187.17 161.97 191.33 163.46C194.6 164.62 196.63 167.7 196.64 170.98C196.64 171.88 196.49 172.79 196.17 173.68C190.67 189.06 176 199.4 159.66 199.42C138.27 199.44 120.84 182.05 120.82 160.66C120.8 139.26 138.19 121.84 159.58 121.82C167.16 121.81 174.51 124.01 180.78 128.1L192.26 116.59C182.85 109.59 171.49 105.8 159.57 105.82C156.04 105.82 152.52 106.16 149.09 106.83C144.75 107.67 140.55 104.84 139.71 100.5C138.86 96.16 141.7 91.96 146.03 91.12C150.46 90.26 155.01 89.82 159.55 89.81C175.75 89.8 191.15 95.21 203.66 105.17C208.81 99.28 212.48 95.14 215.61 91.57C208.89 86.11 201.44 81.69 193.51 78.43C182.95 74.08 171.51 71.78 159.79 71.78C135.35 71.78 113.22 81.69 97.21 97.71C81.19 113.72 71.28 135.85 71.28 160.29ZM88.82 160.69C88.81 152.49 90.2 144.44 92.93 136.78C94.42 132.62 99 130.46 103.16 131.94C107.32 133.43 109.49 138.01 108 142.17C105.88 148.09 104.81 154.32 104.82 160.67C104.85 190.89 129.46 215.45 159.68 215.42C189.89 215.39 214.45 190.78 214.42 160.56C214.42 155.89 213.83 151.26 212.67 146.79C211.55 142.51 214.12 138.14 218.4 137.03C222.67 135.92 227.04 138.49 228.15 142.76C229.66 148.54 230.42 154.53 230.42 160.55C230.46 199.59 198.73 231.38 159.69 231.42C120.65 231.46 88.86 199.73 88.82 160.69Z" fill="white" stroke="white" stroke-width="2" mask="url(#path-1-inside-1)"/>
<path d="M388.978 113.373H372.975V140.933H363.944V72.8043H386.498C394.171 72.8043 400.067 74.5512 404.185 78.045C408.334 81.5388 410.408 86.6236 410.408 93.2992C410.408 97.5417 409.254 101.238 406.946 104.389C404.668 107.54 401.487 109.895 397.4 111.455L413.403 140.372V140.933H403.764L388.978 113.373ZM372.975 106.027H386.778C391.239 106.027 394.78 104.872 397.4 102.564C400.052 100.256 401.377 97.1674 401.377 93.2992C401.377 89.0879 400.114 85.8593 397.587 83.6133C395.092 81.3673 391.473 80.2287 386.732 80.1975H372.975V106.027ZM461.552 109.442H432.026V133.587H466.324V140.933H423.042V72.8043H465.856V80.1975H432.026V102.096H461.552V109.442ZM527.809 131.996C525.5 135.303 522.272 137.783 518.123 139.436C514.005 141.058 509.201 141.869 503.711 141.869C498.158 141.869 493.23 140.575 488.925 137.986C484.62 135.365 481.282 131.653 478.911 126.849C476.572 122.045 475.371 116.477 475.308 110.144V104.202C475.308 93.9387 477.695 85.9841 482.467 80.3378C487.271 74.6916 494.009 71.8685 502.681 71.8685C509.794 71.8685 515.518 73.6934 519.854 77.3432C524.19 80.9617 526.842 86.1089 527.809 92.7845H518.825C517.14 83.7693 511.775 79.2616 502.728 79.2616C496.708 79.2616 492.138 81.3829 489.018 85.6253C485.93 89.8366 484.37 95.9508 484.339 103.968V109.536C484.339 117.179 486.086 123.262 489.58 127.785C493.074 132.277 497.8 134.523 503.758 134.523C507.127 134.523 510.075 134.149 512.601 133.4C515.128 132.651 517.218 131.388 518.871 129.61V114.309H503.103V107.009H527.809V131.996ZM552.468 140.933H543.484V72.8043H552.468V140.933ZM589.012 110.565C581.307 108.351 575.692 105.637 572.167 102.424C568.673 99.1794 566.926 95.1865 566.926 90.4449C566.926 85.0794 569.063 80.6498 573.337 77.156C577.642 73.631 583.226 71.8685 590.088 71.8685C594.768 71.8685 598.932 72.7731 602.582 74.5824C606.263 76.3917 609.101 78.8873 611.098 82.0691C613.125 85.251 614.139 88.7292 614.139 92.5038H605.108C605.108 88.3861 603.798 85.1574 601.178 82.8178C598.558 80.447 594.861 79.2616 590.088 79.2616C585.659 79.2616 582.196 80.2443 579.701 82.2095C577.236 84.1436 576.004 86.8419 576.004 90.3045C576.004 93.0809 577.174 95.4361 579.513 97.3701C581.884 99.273 585.893 101.02 591.539 102.611C597.216 104.202 601.646 105.964 604.828 107.898C608.041 109.801 610.412 112.032 611.94 114.59C613.5 117.148 614.28 120.158 614.28 123.62C614.28 129.142 612.127 133.572 607.822 136.909C603.518 140.216 597.762 141.869 590.556 141.869C585.877 141.869 581.51 140.98 577.455 139.202C573.399 137.393 570.264 134.928 568.049 131.809C565.866 128.69 564.774 125.149 564.774 121.187H573.805C573.805 125.305 575.318 128.565 578.344 130.967C581.401 133.338 585.472 134.523 590.556 134.523C595.298 134.523 598.932 133.556 601.459 131.622C603.985 129.688 605.249 127.052 605.249 123.714C605.249 120.376 604.079 117.803 601.739 115.993C599.4 114.153 595.157 112.344 589.012 110.565ZM672.91 80.1975H651.011V140.933H642.074V80.1975H620.222V72.8043H672.91V80.1975ZM708.003 113.373H692.001V140.933H682.97V72.8043H705.524C713.197 72.8043 719.093 74.5512 723.211 78.045C727.36 81.5388 729.434 86.6236 729.434 93.2992C729.434 97.5417 728.28 101.238 725.971 104.389C723.694 107.54 720.512 109.895 716.426 111.455L732.429 140.372V140.933H722.79L708.003 113.373ZM692.001 106.027H705.804C710.265 106.027 713.806 104.872 716.426 102.564C719.078 100.256 720.403 97.1674 720.403 93.2992C720.403 89.0879 719.14 85.8593 716.613 83.6133C714.118 81.3673 710.499 80.2287 705.757 80.1975H692.001V106.027ZM794.475 109.068C794.475 115.744 793.352 121.577 791.106 126.568C788.86 131.528 785.678 135.318 781.56 137.939C777.442 140.559 772.638 141.869 767.148 141.869C761.783 141.869 757.026 140.559 752.877 137.939C748.728 135.287 745.499 131.528 743.191 126.662C740.914 121.764 739.744 116.103 739.681 109.676V104.763C739.681 98.2124 740.82 92.4258 743.097 87.4034C745.374 82.3811 748.587 78.5441 752.736 75.8926C756.916 73.2099 761.689 71.8685 767.055 71.8685C772.514 71.8685 777.318 73.1943 781.466 75.8458C785.647 78.4662 788.86 82.2875 791.106 87.3098C793.352 92.301 794.475 98.1188 794.475 104.763V109.068ZM785.537 104.67C785.537 96.5903 783.915 90.3981 780.671 86.0933C777.427 81.7572 772.888 79.5892 767.055 79.5892C761.377 79.5892 756.901 81.7572 753.625 86.0933C750.381 90.3981 748.712 96.3875 748.619 104.061V109.068C748.619 116.898 750.256 123.059 753.532 127.551C756.838 132.012 761.377 134.242 767.148 134.242C772.95 134.242 777.442 132.137 780.624 127.925C783.806 123.683 785.444 117.615 785.537 109.723V104.67Z" fill="white"/>
<path d="M388.978 113.373L389.859 112.9L389.576 112.373H388.978V113.373ZM372.975 113.373V112.373H371.975V113.373H372.975ZM372.975 140.933V141.933H373.975V140.933H372.975ZM363.944 140.933H362.944V141.933H363.944V140.933ZM363.944 72.8043V71.8043H362.944V72.8043H363.944ZM404.185 78.045L403.538 78.8075L403.541 78.8099L404.185 78.045ZM406.946 104.389L406.139 103.798L406.135 103.803L406.946 104.389ZM397.4 111.455L397.044 110.52L395.967 110.931L396.525 111.939L397.4 111.455ZM413.403 140.372H414.403V140.114L414.278 139.888L413.403 140.372ZM413.403 140.933V141.933H414.403V140.933H413.403ZM403.764 140.933L402.883 141.406L403.165 141.933H403.764V140.933ZM372.975 106.027H371.975V107.027H372.975V106.027ZM397.4 102.564L396.743 101.81L396.739 101.814L397.4 102.564ZM397.587 83.6133L396.918 84.3566L396.923 84.3607L397.587 83.6133ZM386.732 80.1975L386.738 79.1975H386.732V80.1975ZM372.975 80.1975V79.1975H371.975V80.1975H372.975ZM388.978 112.373H372.975V114.373H388.978V112.373ZM371.975 113.373V140.933H373.975V113.373H371.975ZM372.975 139.933H363.944V141.933H372.975V139.933ZM364.944 140.933V72.8043H362.944V140.933H364.944ZM363.944 73.8043H386.498V71.8043H363.944V73.8043ZM386.498 73.8043C394.033 73.8043 399.664 75.5205 403.538 78.8075L404.832 77.2825C400.47 73.5819 394.31 71.8043 386.498 71.8043V73.8043ZM403.541 78.8099C407.413 82.0706 409.408 86.8442 409.408 93.2992H411.408C411.408 86.4029 409.255 81.0071 404.829 77.2801L403.541 78.8099ZM409.408 93.2992C409.408 97.3485 408.311 100.834 406.139 103.798L407.752 104.98C410.197 101.643 411.408 97.7349 411.408 93.2992H409.408ZM406.135 103.803C403.986 106.777 400.972 109.021 397.044 110.52L397.757 112.389C402.002 110.769 405.351 108.303 407.756 104.975L406.135 103.803ZM396.525 111.939L412.528 140.856L414.278 139.888L398.275 110.97L396.525 111.939ZM412.403 140.372V140.933H414.403V140.372H412.403ZM413.403 139.933H403.764V141.933H413.403V139.933ZM404.645 140.461L389.859 112.9L388.096 113.846L402.883 141.406L404.645 140.461ZM372.975 107.027H386.778V105.027H372.975V107.027ZM386.778 107.027C391.413 107.027 395.212 105.824 398.061 103.314L396.739 101.814C394.347 103.921 391.065 105.027 386.778 105.027V107.027ZM398.057 103.318C400.95 100.8 402.377 97.424 402.377 93.2992H400.377C400.377 96.9107 399.153 99.7117 396.743 101.81L398.057 103.318ZM402.377 93.2992C402.377 88.8779 401.043 85.3467 398.252 82.8659L396.923 84.3607C399.185 86.3719 400.377 89.2979 400.377 93.2992H402.377ZM398.256 82.87C395.516 80.4037 391.624 79.2296 386.738 79.1975L386.725 81.1974C391.322 81.2277 394.668 82.3309 396.918 84.3566L398.256 82.87ZM386.732 79.1975H372.975V81.1975H386.732V79.1975ZM371.975 80.1975V106.027H373.975V80.1975H371.975ZM461.552 109.442V110.442H462.552V109.442H461.552ZM432.026 109.442V108.442H431.026V109.442H432.026ZM432.026 133.587H431.026V134.587H432.026V133.587ZM466.324 133.587H467.324V132.587H466.324V133.587ZM466.324 140.933V141.933H467.324V140.933H466.324ZM423.042 140.933H422.042V141.933H423.042V140.933ZM423.042 72.8043V71.8043H422.042V72.8043H423.042ZM465.856 72.8043H466.856V71.8043H465.856V72.8043ZM465.856 80.1975V81.1975H466.856V80.1975H465.856ZM432.026 80.1975V79.1975H431.026V80.1975H432.026ZM432.026 102.096H431.026V103.096H432.026V102.096ZM461.552 102.096H462.552V101.096H461.552V102.096ZM461.552 108.442H432.026V110.442H461.552V108.442ZM431.026 109.442V133.587H433.026V109.442H431.026ZM432.026 134.587H466.324V132.587H432.026V134.587ZM465.324 133.587V140.933H467.324V133.587H465.324ZM466.324 139.933H423.042V141.933H466.324V139.933ZM424.042 140.933V72.8043H422.042V140.933H424.042ZM423.042 73.8043H465.856V71.8043H423.042V73.8043ZM464.856 72.8043V80.1975H466.856V72.8043H464.856ZM465.856 79.1975H432.026V81.1975H465.856V79.1975ZM431.026 80.1975V102.096H433.026V80.1975H431.026ZM432.026 103.096H461.552V101.096H432.026V103.096ZM460.552 102.096V109.442H462.552V102.096H460.552ZM527.809 131.996L528.629 132.569L528.809 132.311V131.996H527.809ZM518.123 139.436L518.489 140.367L518.493 140.365L518.123 139.436ZM488.925 137.986L488.405 138.84L488.409 138.843L488.925 137.986ZM478.911 126.849L478.012 127.287L478.015 127.292L478.911 126.849ZM475.308 110.144H474.308L474.308 110.154L475.308 110.144ZM482.467 80.3378L481.706 79.6898L481.704 79.6923L482.467 80.3378ZM519.854 77.3432L519.21 78.1082L519.213 78.1109L519.854 77.3432ZM527.809 92.7845V93.7845H528.964L528.798 92.6411L527.809 92.7845ZM518.825 92.7845L517.842 92.9682L517.994 93.7845H518.825V92.7845ZM489.018 85.6253L488.213 85.0329L488.212 85.034L489.018 85.6253ZM484.339 103.968L483.339 103.964V103.968H484.339ZM489.58 127.785L488.788 128.396L488.79 128.399L489.58 127.785ZM518.871 129.61L519.604 130.291L519.871 130.003V129.61H518.871ZM518.871 114.309H519.871V113.309H518.871V114.309ZM503.103 114.309H502.103V115.309H503.103V114.309ZM503.103 107.009V106.009H502.103V107.009H503.103ZM527.809 107.009H528.809V106.009H527.809V107.009ZM526.989 131.424C524.804 134.553 521.74 136.918 517.753 138.507L518.493 140.365C522.803 138.647 526.196 136.052 528.629 132.569L526.989 131.424ZM517.756 138.506C513.78 140.072 509.105 140.869 503.711 140.869V142.869C509.297 142.869 514.23 142.044 518.489 140.367L517.756 138.506ZM503.711 140.869C498.32 140.869 493.573 139.615 489.44 137.129L488.409 138.843C492.886 141.535 497.996 142.869 503.711 142.869V140.869ZM489.445 137.131C485.312 134.616 482.1 131.052 479.808 126.407L478.015 127.292C480.464 132.255 483.927 136.114 488.405 138.84L489.445 137.131ZM479.81 126.411C477.547 121.763 476.369 116.346 476.308 110.134L474.308 110.154C474.372 116.608 475.597 122.327 478.012 127.287L479.81 126.411ZM476.308 110.144V104.202H474.308V110.144H476.308ZM476.308 104.202C476.308 94.0839 478.661 86.39 483.231 80.9834L481.704 79.6923C476.728 85.5782 474.308 93.7935 474.308 104.202H476.308ZM483.229 80.9859C487.81 75.6018 494.247 72.8685 502.681 72.8685V70.8685C493.771 70.8685 486.733 73.7814 481.706 79.6898L483.229 80.9859ZM502.681 72.8685C509.62 72.8685 515.097 74.6457 519.21 78.1082L520.498 76.5781C515.939 72.741 509.968 70.8685 502.681 70.8685V72.8685ZM519.213 78.1109C523.324 81.5419 525.88 86.4462 526.819 92.9279L528.798 92.6411C527.803 85.7715 525.056 80.3816 520.495 76.5754L519.213 78.1109ZM527.809 91.7845H518.825V93.7845H527.809V91.7845ZM519.808 92.6008C518.936 87.9367 517.089 84.32 514.18 81.8767C511.27 79.432 507.417 78.2616 502.728 78.2616V80.2616C507.086 80.2616 510.438 81.3451 512.894 83.408C515.351 85.4723 517.029 88.617 517.842 92.9682L519.808 92.6008ZM502.728 78.2616C496.442 78.2616 491.549 80.4949 488.213 85.0329L489.824 86.2177C492.726 82.2709 496.974 80.2616 502.728 80.2616V78.2616ZM488.212 85.034C484.948 89.485 483.371 95.8417 483.339 103.964L485.339 103.972C485.37 96.0599 486.912 90.1883 489.825 86.2167L488.212 85.034ZM483.339 103.968V109.536H485.339V103.968H483.339ZM483.339 109.536C483.339 117.326 485.12 123.647 488.788 128.396L490.371 127.174C487.052 122.876 485.339 117.032 485.339 109.536H483.339ZM488.79 128.399C492.484 133.147 497.508 135.523 503.758 135.523V133.523C498.091 133.523 493.663 131.406 490.369 127.171L488.79 128.399ZM503.758 135.523C507.198 135.523 510.245 135.141 512.885 134.359L512.317 132.441C509.904 133.156 507.056 133.523 503.758 133.523V135.523ZM512.885 134.359C515.569 133.564 517.818 132.211 519.604 130.291L518.139 128.929C516.618 130.565 514.688 131.739 512.317 132.441L512.885 134.359ZM519.871 129.61V114.309H517.871V129.61H519.871ZM518.871 113.309H503.103V115.309H518.871V113.309ZM504.103 114.309V107.009H502.103V114.309H504.103ZM503.103 108.009H527.809V106.009H503.103V108.009ZM526.809 107.009V131.996H528.809V107.009H526.809ZM552.468 140.933V141.933H553.468V140.933H552.468ZM543.484 140.933H542.484V141.933H543.484V140.933ZM543.484 72.8043V71.8043H542.484V72.8043H543.484ZM552.468 72.8043H553.468V71.8043H552.468V72.8043ZM552.468 139.933H543.484V141.933H552.468V139.933ZM544.484 140.933V72.8043H542.484V140.933H544.484ZM543.484 73.8043H552.468V71.8043H543.484V73.8043ZM551.468 72.8043V140.933H553.468V72.8043H551.468ZM589.012 110.565L589.29 109.605L589.288 109.604L589.012 110.565ZM572.167 102.424L571.487 103.156L571.493 103.163L572.167 102.424ZM573.337 77.156L573.97 77.9302L573.97 77.9297L573.337 77.156ZM602.582 74.5824L602.138 75.4784L602.141 75.4799L602.582 74.5824ZM611.098 82.0691L610.251 82.6006L610.255 82.6066L611.098 82.0691ZM614.139 92.5038V93.5038H615.139V92.5038H614.139ZM605.109 92.5038H604.109V93.5038H605.109V92.5038ZM601.178 82.8178L600.507 83.5594L600.512 83.5638L601.178 82.8178ZM579.701 82.2095L580.318 82.9962L580.319 82.9952L579.701 82.2095ZM579.513 97.3701L578.876 98.1409L578.882 98.1455L578.887 98.15L579.513 97.3701ZM591.539 102.611L591.268 103.573L591.269 103.574L591.539 102.611ZM604.828 107.898L604.308 108.753L604.318 108.759L604.828 107.898ZM611.94 114.59L611.082 115.103L611.086 115.11L611.94 114.59ZM607.822 136.909L608.432 137.702L608.435 137.7L607.822 136.909ZM577.455 139.202L577.047 140.115L577.053 140.118L577.455 139.202ZM568.049 131.809L567.23 132.383L567.234 132.388L568.049 131.809ZM564.774 121.187V120.187H563.774V121.187H564.774ZM573.805 121.187H574.805V120.187H573.805V121.187ZM578.344 130.967L577.722 131.75L577.731 131.757L578.344 130.967ZM601.739 115.993L601.121 116.779L601.128 116.784L601.739 115.993ZM589.288 109.604C581.643 107.407 576.2 104.746 572.841 101.685L571.493 103.163C575.184 106.527 580.971 109.295 588.736 111.527L589.288 109.604ZM572.848 101.691C569.556 98.6346 567.926 94.9067 567.926 90.4449H565.926C565.926 95.4663 567.79 99.7242 571.487 103.156L572.848 101.691ZM567.926 90.4449C567.926 85.3894 569.921 81.2404 573.97 77.9302L572.704 76.3818C568.206 80.0592 565.926 84.7695 565.926 90.4449H567.926ZM573.97 77.9297C578.058 74.5827 583.401 72.8685 590.088 72.8685V70.8685C583.05 70.8685 577.226 72.6792 572.703 76.3823L573.97 77.9297ZM590.088 72.8685C594.636 72.8685 598.645 73.747 602.138 75.4784L603.026 73.6865C599.219 71.7992 594.899 70.8685 590.088 70.8685V72.8685ZM602.141 75.4799C605.671 77.215 608.362 79.5904 610.251 82.6006L611.945 81.5377C609.841 78.1842 606.855 75.5684 603.023 73.685L602.141 75.4799ZM610.255 82.6066C612.18 85.6278 613.139 88.9195 613.139 92.5038H615.139C615.139 88.5389 614.071 84.8742 611.941 81.5317L610.255 82.6066ZM614.139 91.5038H605.109V93.5038H614.139V91.5038ZM606.108 92.5038C606.108 88.1551 604.714 84.6343 601.844 82.0719L600.512 83.5638C602.883 85.6805 604.109 88.6171 604.109 92.5038H606.108ZM601.849 82.0763C598.988 79.4882 595.021 78.2616 590.088 78.2616V80.2616C594.701 80.2616 598.127 81.4058 600.507 83.5594L601.849 82.0763ZM590.088 78.2616C585.521 78.2616 581.812 79.2741 579.082 81.4239L580.319 82.9952C582.581 81.2144 585.796 80.2616 590.088 80.2616V78.2616ZM579.083 81.4229C576.35 83.5682 575.004 86.5718 575.004 90.3045H577.004C577.004 87.112 578.123 84.719 580.318 82.9962L579.083 81.4229ZM575.004 90.3045C575.004 93.4093 576.331 96.037 578.876 98.1409L580.151 96.5994C578.016 94.8351 577.004 92.7525 577.004 90.3045H575.004ZM578.887 98.15C581.421 100.183 585.59 101.974 591.268 103.573L591.81 101.648C586.195 100.066 582.348 98.3628 580.139 96.5903L578.887 98.15ZM591.269 103.574C596.903 105.153 601.236 106.885 604.308 108.753L605.347 107.044C602.056 105.043 597.529 103.251 591.809 101.648L591.269 103.574ZM604.318 108.759C607.423 110.598 609.658 112.719 611.082 115.103L612.799 114.077C611.165 111.344 608.658 109.005 605.337 107.038L604.318 108.759ZM611.086 115.11C612.536 117.488 613.28 120.312 613.28 123.62H615.28C615.28 120.003 614.463 116.807 612.794 114.069L611.086 115.11ZM613.28 123.62C613.28 128.838 611.266 132.974 607.21 136.119L608.435 137.7C612.988 134.169 615.28 129.446 615.28 123.62H613.28ZM607.213 136.116C603.133 139.251 597.614 140.869 590.556 140.869V142.869C597.911 142.869 603.902 141.181 608.432 137.702L607.213 136.116ZM590.556 140.869C586.007 140.869 581.778 140.006 577.856 138.286L577.053 140.118C581.242 141.955 585.747 142.869 590.556 142.869V140.869ZM577.862 138.289C573.944 136.541 570.96 134.182 568.865 131.23L567.234 132.388C569.568 135.675 572.855 138.245 577.047 140.115L577.862 138.289ZM568.869 131.236C566.808 128.291 565.774 124.953 565.774 121.187H563.774C563.774 125.345 564.924 129.088 567.23 132.382L568.869 131.236ZM564.774 122.187H573.805V120.187H564.774V122.187ZM572.805 121.187C572.805 125.587 574.44 129.144 577.722 131.75L578.965 130.184C576.196 127.985 574.805 125.023 574.805 121.187H572.805ZM577.731 131.757C581.011 134.301 585.32 135.523 590.556 135.523V133.523C585.624 133.523 581.79 132.374 578.956 130.177L577.731 131.757ZM590.556 135.523C595.415 135.523 599.298 134.535 602.067 132.416L600.851 130.828C598.566 132.577 595.181 133.523 590.556 133.523V135.523ZM602.067 132.416C604.854 130.282 606.249 127.345 606.249 123.714H604.249C604.249 126.758 603.117 129.093 600.851 130.828L602.067 132.416ZM606.249 123.714C606.249 120.112 604.969 117.227 602.351 115.202L601.128 116.784C603.189 118.378 604.249 120.64 604.249 123.714H606.249ZM602.358 115.207C599.855 113.239 595.45 111.387 589.29 109.605L588.734 111.526C594.865 113.3 598.945 115.067 601.121 116.779L602.358 115.207ZM672.91 80.1975V81.1975H673.91V80.1975H672.91ZM651.011 80.1975V79.1975H650.011V80.1975H651.011ZM651.011 140.933V141.933H652.011V140.933H651.011ZM642.074 140.933H641.074V141.933H642.074V140.933ZM642.074 80.1975H643.074V79.1975H642.074V80.1975ZM620.222 80.1975H619.222V81.1975H620.222V80.1975ZM620.222 72.8043V71.8043H619.222V72.8043H620.222ZM672.91 72.8043H673.91V71.8043H672.91V72.8043ZM672.91 79.1975H651.011V81.1975H672.91V79.1975ZM650.011 80.1975V140.933H652.011V80.1975H650.011ZM651.011 139.933H642.074V141.933H651.011V139.933ZM643.074 140.933V80.1975H641.074V140.933H643.074ZM642.074 79.1975H620.222V81.1975H642.074V79.1975ZM621.222 80.1975V72.8043H619.222V80.1975H621.222ZM620.222 73.8043H672.91V71.8043H620.222V73.8043ZM671.91 72.8043V80.1975H673.91V72.8043H671.91ZM708.003 113.373L708.885 112.9L708.602 112.373H708.003V113.373ZM692.001 113.373V112.373H691.001V113.373H692.001ZM692.001 140.933V141.933H693.001V140.933H692.001ZM682.97 140.933H681.97V141.933H682.97V140.933ZM682.97 72.8043V71.8043H681.97V72.8043H682.97ZM723.211 78.045L722.564 78.8075L722.567 78.8099L723.211 78.045ZM725.971 104.389L725.165 103.798L725.161 103.803L725.971 104.389ZM716.426 111.455L716.069 110.52L714.993 110.931L715.551 111.939L716.426 111.455ZM732.429 140.372H733.429V140.114L733.304 139.888L732.429 140.372ZM732.429 140.933V141.933H733.429V140.933H732.429ZM722.79 140.933L721.908 141.406L722.191 141.933H722.79V140.933ZM692.001 106.027H691.001V107.027H692.001V106.027ZM716.426 102.564L715.769 101.81L715.765 101.814L716.426 102.564ZM716.613 83.6133L715.944 84.3566L715.949 84.3607L716.613 83.6133ZM705.757 80.1975L705.764 79.1975H705.757V80.1975ZM692.001 80.1975V79.1975H691.001V80.1975H692.001ZM708.003 112.373H692.001V114.373H708.003V112.373ZM691.001 113.373V140.933H693.001V113.373H691.001ZM692.001 139.933H682.97V141.933H692.001V139.933ZM683.97 140.933V72.8043H681.97V140.933H683.97ZM682.97 73.8043H705.524V71.8043H682.97V73.8043ZM705.524 73.8043C713.059 73.8043 718.69 75.5205 722.564 78.8075L723.858 77.2825C719.496 73.5819 713.336 71.8043 705.524 71.8043V73.8043ZM722.567 78.8099C726.439 82.0706 728.434 86.8442 728.434 93.2992H730.434C730.434 86.4029 728.281 81.0071 723.855 77.2801L722.567 78.8099ZM728.434 93.2992C728.434 97.3485 727.337 100.834 725.165 103.798L726.778 104.98C729.223 101.643 730.434 97.7349 730.434 93.2992H728.434ZM725.161 103.803C723.012 106.777 719.997 109.021 716.069 110.52L716.783 112.389C721.027 110.769 724.377 108.303 726.782 104.975L725.161 103.803ZM715.551 111.939L731.554 140.856L733.304 139.888L717.301 110.97L715.551 111.939ZM731.429 140.372V140.933H733.429V140.372H731.429ZM732.429 139.933H722.79V141.933H732.429V139.933ZM723.671 140.461L708.885 112.9L707.122 113.846L721.908 141.406L723.671 140.461ZM692.001 107.027H705.804V105.027H692.001V107.027ZM705.804 107.027C710.439 107.027 714.238 105.824 717.087 103.314L715.765 101.814C713.373 103.921 710.091 105.027 705.804 105.027V107.027ZM717.083 103.318C719.976 100.8 721.403 97.424 721.403 93.2992H719.403C719.403 96.9107 718.179 99.7117 715.769 101.81L717.083 103.318ZM721.403 93.2992C721.403 88.8779 720.068 85.3467 717.277 82.8659L715.949 84.3607C718.211 86.3719 719.403 89.2979 719.403 93.2992H721.403ZM717.282 82.87C714.542 80.4037 710.65 79.2296 705.764 79.1975L705.751 81.1974C710.348 81.2277 713.693 82.3309 715.944 84.3566L717.282 82.87ZM705.757 79.1975H692.001V81.1975H705.757V79.1975ZM691.001 80.1975V106.027H693.001V80.1975H691.001ZM791.106 126.568L792.017 126.981L792.017 126.979L791.106 126.568ZM752.877 137.939L752.338 138.781L752.343 138.784L752.877 137.939ZM743.191 126.662L742.284 127.084L742.287 127.09L743.191 126.662ZM739.681 109.676H738.681L738.682 109.686L739.681 109.676ZM752.736 75.8926L753.275 76.7352L753.276 76.7342L752.736 75.8926ZM781.466 75.8458L780.928 76.6885L780.935 76.6931L781.466 75.8458ZM791.106 87.3098L790.193 87.7181L790.194 87.7202L791.106 87.3098ZM780.671 86.0933L779.87 86.6923L779.872 86.6951L780.671 86.0933ZM753.625 86.0933L752.827 85.4905L752.827 85.4914L753.625 86.0933ZM748.619 104.061L747.619 104.049V104.061H748.619ZM753.532 127.551L752.724 128.14L752.728 128.146L753.532 127.551ZM780.624 127.925L781.422 128.528L781.424 128.525L780.624 127.925ZM785.537 109.723L786.537 109.735V109.723H785.537ZM793.475 109.068C793.475 115.633 792.37 121.321 790.194 126.158L792.017 126.979C794.333 121.833 795.475 115.855 795.475 109.068H793.475ZM790.195 126.156C788.019 130.96 784.958 134.591 781.023 137.095L782.097 138.782C786.397 136.046 789.7 132.097 792.017 126.981L790.195 126.156ZM781.023 137.095C777.085 139.601 772.473 140.869 767.148 140.869V142.869C772.804 142.869 777.799 141.517 782.097 138.782L781.023 137.095ZM767.148 140.869C761.953 140.869 757.385 139.603 753.411 137.093L752.343 138.784C756.666 141.515 761.612 142.869 767.148 142.869V140.869ZM753.415 137.096C749.439 134.555 746.33 130.947 744.094 126.233L742.287 127.09C744.668 132.11 748.017 136.019 752.338 138.781L753.415 137.096ZM744.098 126.24C741.891 121.494 740.743 115.977 740.681 109.667L738.682 109.686C738.745 116.228 739.937 122.035 742.284 127.084L744.098 126.24ZM740.681 109.676V104.763H738.681V109.676H740.681ZM740.681 104.763C740.681 98.3284 741.8 92.6869 744.008 87.8164L742.187 86.9905C739.84 92.1646 738.681 98.0964 738.681 104.763H740.681ZM744.008 87.8164C746.215 82.9484 749.308 79.2704 753.275 76.7352L752.198 75.05C747.867 77.8179 744.534 81.8138 742.187 86.9905L744.008 87.8164ZM753.276 76.7342C757.282 74.1632 761.865 72.8685 767.055 72.8685V70.8685C761.514 70.8685 756.55 72.2565 752.196 75.051L753.276 76.7342ZM767.055 72.8685C772.344 72.8685 776.957 74.1506 780.928 76.6884L782.005 75.0032C777.678 72.2379 772.683 70.8685 767.055 70.8685V72.8685ZM780.935 76.6931C784.928 79.1962 788.018 82.8551 790.193 87.7181L792.018 86.9016C789.701 81.7199 786.365 77.7361 781.998 74.9985L780.935 76.6931ZM790.194 87.7202C792.371 92.5578 793.475 98.2306 793.475 104.763H795.475C795.475 98.007 794.333 92.0442 792.017 86.8995L790.194 87.7202ZM793.475 104.763V109.068H795.475V104.763H793.475ZM786.537 104.67C786.537 96.4762 784.895 90.0371 781.47 85.4914L779.872 86.6951C782.935 90.7592 784.537 96.7044 784.537 104.67H786.537ZM781.472 85.4942C778.022 80.884 773.175 78.5892 767.055 78.5892V80.5892C772.601 80.5892 776.831 82.6304 779.87 86.6923L781.472 85.4942ZM767.055 78.5892C761.08 78.5892 756.302 80.8914 752.827 85.4905L754.423 86.696C757.5 82.6229 761.674 80.5892 767.055 80.5892V78.5892ZM752.827 85.4914C749.41 90.0249 747.714 96.2496 747.619 104.049L749.619 104.074C749.711 96.5254 751.352 90.7714 754.424 86.6951L752.827 85.4914ZM747.619 104.061V109.068H749.619V104.061H747.619ZM747.619 109.068C747.619 117.026 749.282 123.42 752.724 128.14L754.34 126.962C751.231 122.698 749.619 116.77 749.619 109.068H747.619ZM752.728 128.146C756.232 132.873 761.075 135.242 767.148 135.242V133.242C761.679 133.242 757.445 131.15 754.335 126.955L752.728 128.146ZM767.148 135.242C773.228 135.242 778.031 133.017 781.422 128.528L779.826 127.322C776.854 131.256 772.673 133.242 767.148 133.242V135.242ZM781.424 128.525C784.782 124.048 786.442 117.741 786.537 109.735L784.537 109.711C784.445 117.49 782.83 123.317 779.824 127.325L781.424 128.525ZM786.537 109.723V104.67H784.537V109.723H786.537Z" fill="white"/>
<path d="M415.649 223.719C415.119 231.05 412.405 236.821 407.507 241.032C402.641 245.244 396.215 247.349 388.229 247.349C379.494 247.349 372.616 244.417 367.594 238.552C362.603 232.657 360.107 224.577 360.107 214.314V210.15C360.107 203.599 361.261 197.828 363.57 192.837C365.878 187.845 369.169 184.024 373.443 181.373C377.748 178.69 382.739 177.348 388.416 177.348C396.277 177.348 402.61 179.454 407.414 183.665C412.217 187.877 414.994 193.788 415.742 201.4H401.705C401.362 197.001 400.13 193.819 398.008 191.854C395.918 189.858 392.721 188.859 388.416 188.859C383.737 188.859 380.228 190.544 377.888 193.913C375.58 197.251 374.394 202.445 374.332 209.495V214.642C374.332 222.004 375.439 227.385 377.654 230.785C379.9 234.185 383.425 235.885 388.229 235.885C392.565 235.885 395.794 234.903 397.915 232.937C400.067 230.941 401.299 227.868 401.611 223.719H415.649ZM480.83 213.893C480.83 220.6 479.644 226.48 477.274 231.534C474.903 236.587 471.503 240.486 467.073 243.232C462.675 245.977 457.621 247.349 451.912 247.349C446.266 247.349 441.228 245.992 436.799 243.278C432.369 240.564 428.938 236.696 426.505 231.674C424.071 226.62 422.839 220.818 422.808 214.267V210.898C422.808 204.191 424.009 198.296 426.411 193.211C428.844 188.095 432.26 184.18 436.658 181.466C441.088 178.721 446.141 177.348 451.819 177.348C457.496 177.348 462.534 178.721 466.933 181.466C471.362 184.18 474.778 188.095 477.18 193.211C479.613 198.296 480.83 204.176 480.83 210.852V213.893ZM466.605 210.805C466.605 203.661 465.326 198.233 462.768 194.521C460.21 190.809 456.56 188.953 451.819 188.953C447.108 188.953 443.474 190.793 440.916 194.474C438.358 198.124 437.064 203.49 437.033 210.571V213.893C437.033 220.849 438.312 226.246 440.87 230.083C443.428 233.92 447.108 235.838 451.912 235.838C456.623 235.838 460.241 233.998 462.768 230.317C465.295 226.605 466.574 221.208 466.605 214.127V210.805ZM515.175 229.522L530.616 178.284H546.245L522.521 246.413H507.875L484.246 178.284H499.827L515.175 229.522ZM567.628 246.413H553.591V178.284H567.628V246.413ZM580.683 246.413V178.284H601.646C607.635 178.284 612.985 179.641 617.695 182.355C622.437 185.038 626.134 188.875 628.785 193.866C631.437 198.826 632.762 204.472 632.762 210.805V213.94C632.762 220.272 631.452 225.903 628.832 230.832C626.243 235.76 622.577 239.582 617.836 242.296C613.094 245.01 607.744 246.382 601.786 246.413H580.683ZM594.721 189.655V235.137H601.506C606.996 235.137 611.191 233.343 614.092 229.756C616.994 226.168 618.475 221.037 618.538 214.361V210.758C618.538 203.833 617.103 198.592 614.233 195.036C611.363 191.448 607.167 189.655 601.646 189.655H594.721Z" fill="white"/>
<path d="M415.649 223.719L416.646 223.791L416.724 222.719H415.649V223.719ZM407.507 241.032L406.855 240.274L406.853 240.276L407.507 241.032ZM367.594 238.552L366.831 239.199L366.834 239.203L367.594 238.552ZM363.57 192.837L362.662 192.417L363.57 192.837ZM373.443 181.373L373.97 182.222L373.972 182.221L373.443 181.373ZM407.414 183.665L406.754 184.417L407.414 183.665ZM415.742 201.4V202.4H416.846L416.738 201.302L415.742 201.4ZM401.705 201.4L400.708 201.477L400.78 202.4H401.705V201.4ZM398.008 191.854L397.318 192.577L397.323 192.582L397.329 192.588L398.008 191.854ZM377.888 193.913L377.067 193.342L377.065 193.344L377.888 193.913ZM374.332 209.495L373.332 209.486V209.495H374.332ZM377.654 230.785L376.816 231.331L376.82 231.336L377.654 230.785ZM397.915 232.937L398.594 233.671L398.595 233.671L397.915 232.937ZM401.611 223.719V222.719H400.684L400.614 223.644L401.611 223.719ZM414.651 223.647C414.137 230.752 411.522 236.261 406.855 240.274L408.159 241.791C413.287 237.381 416.1 231.348 416.646 223.791L414.651 223.647ZM406.853 240.276C402.209 244.295 396.034 246.349 388.229 246.349V248.349C396.395 248.349 403.073 246.192 408.161 241.789L406.853 240.276ZM388.229 246.349C379.744 246.349 373.159 243.514 368.353 237.902L366.834 239.203C372.073 245.32 379.245 248.349 388.229 248.349V246.349ZM368.357 237.906C363.563 232.243 361.107 224.419 361.107 214.314H359.107C359.107 224.735 361.643 233.07 366.831 239.199L368.357 237.906ZM361.107 214.314V210.15H359.107V214.314H361.107ZM361.107 210.15C361.107 203.716 362.24 198.093 364.477 193.256L362.662 192.417C360.282 197.562 359.107 203.481 359.107 210.15H361.107ZM364.477 193.256C366.712 188.425 369.878 184.761 373.97 182.222L372.916 180.523C368.46 183.287 365.045 187.266 362.662 192.417L364.477 193.256ZM373.972 182.221C378.099 179.649 382.903 178.348 388.416 178.348V176.348C382.575 176.348 377.396 177.731 372.914 180.524L373.972 182.221ZM388.416 178.348C396.093 178.348 402.172 180.401 406.754 184.417L408.073 182.913C403.047 178.508 396.461 176.348 388.416 176.348V178.348ZM406.754 184.417C411.331 188.429 414.018 194.086 414.747 201.497L416.738 201.302C415.969 193.49 413.104 187.324 408.073 182.913L406.754 184.417ZM415.742 200.4H401.705V202.4H415.742V200.4ZM402.702 201.322C402.349 196.8 401.07 193.327 398.688 191.12L397.329 192.588C399.189 194.311 400.374 197.202 400.708 201.477L402.702 201.322ZM398.699 191.131C396.349 188.886 392.854 187.859 388.416 187.859V189.859C392.588 189.859 395.487 190.829 397.318 192.577L398.699 191.131ZM388.416 187.859C383.463 187.859 379.622 189.663 377.067 193.342L378.709 194.483C380.833 191.424 384.011 189.859 388.416 189.859V187.859ZM377.065 193.344C374.587 196.928 373.395 202.366 373.332 209.486L375.332 209.503C375.394 202.523 376.573 197.573 378.71 194.482L377.065 193.344ZM373.332 209.495V214.642H375.332V209.495H373.332ZM373.332 214.642C373.332 222.061 374.44 227.683 376.816 231.331L378.492 230.239C376.438 227.087 375.332 221.946 375.332 214.642H373.332ZM376.82 231.336C379.286 235.07 383.159 236.885 388.229 236.885V234.885C383.691 234.885 380.514 233.3 378.488 230.234L376.82 231.336ZM388.229 236.885C392.694 236.885 396.214 235.876 398.594 233.671L397.235 232.204C395.373 233.929 392.436 234.885 388.229 234.885V236.885ZM398.595 233.671C400.997 231.442 402.286 228.09 402.609 223.794L400.614 223.644C400.313 227.647 399.137 230.439 397.235 232.204L398.595 233.671ZM401.611 224.719H415.649V222.719H401.611V224.719ZM467.073 243.232L466.546 242.382L466.543 242.383L467.073 243.232ZM436.799 243.278L436.276 244.131L436.799 243.278ZM426.505 231.674L425.604 232.108L425.605 232.11L426.505 231.674ZM422.808 214.267H421.808L421.808 214.272L422.808 214.267ZM426.411 193.211L425.508 192.781L425.507 192.784L426.411 193.211ZM436.658 181.466L437.183 182.317L437.185 182.316L436.658 181.466ZM466.933 181.466L466.403 182.315L466.41 182.319L466.933 181.466ZM477.18 193.211L476.275 193.636L476.278 193.643L477.18 193.211ZM440.916 194.474L441.735 195.048L441.738 195.045L440.916 194.474ZM437.033 210.571L436.033 210.566V210.571H437.033ZM462.768 230.317L463.593 230.883L463.595 230.88L462.768 230.317ZM466.605 214.127L467.605 214.131V214.127H466.605ZM479.83 213.893C479.83 220.482 478.665 226.212 476.368 231.109L478.179 231.958C480.623 226.748 481.83 220.718 481.83 213.893H479.83ZM476.368 231.109C474.074 236 470.799 239.746 466.546 242.382L467.6 244.082C472.206 241.227 475.732 237.174 478.179 231.958L476.368 231.109ZM466.543 242.383C462.32 245.019 457.453 246.349 451.912 246.349V248.349C457.789 248.349 463.029 246.934 467.602 244.08L466.543 242.383ZM451.912 246.349C446.434 246.349 441.58 245.035 437.321 242.426L436.276 244.131C440.877 246.95 446.098 248.349 451.912 248.349V246.349ZM437.321 242.426C433.067 239.819 429.761 236.102 427.404 231.238L425.605 232.11C428.115 237.291 431.671 241.31 436.276 244.131L437.321 242.426ZM427.406 231.24C425.047 226.341 423.839 220.69 423.808 214.263L421.808 214.272C421.84 220.947 423.096 226.9 425.604 232.108L427.406 231.24ZM423.808 214.267V210.898H421.808V214.267H423.808ZM423.808 210.898C423.808 204.311 424.987 198.566 427.315 193.638L425.507 192.784C423.031 198.025 421.808 204.072 421.808 210.898H423.808ZM427.314 193.64C429.673 188.681 432.965 184.92 437.183 182.317L436.133 180.615C431.555 183.44 428.016 187.509 425.508 192.781L427.314 193.64ZM437.185 182.316C441.442 179.678 446.31 178.348 451.819 178.348V176.348C445.973 176.348 440.733 177.764 436.132 180.616L437.185 182.316ZM451.819 178.348C457.327 178.348 462.178 179.678 466.403 182.315L467.462 180.618C462.89 177.764 457.665 176.348 451.819 176.348V178.348ZM466.41 182.319C470.658 184.922 473.948 188.681 476.275 193.636L478.085 192.786C475.608 187.509 472.066 183.438 467.455 180.613L466.41 182.319ZM476.278 193.643C478.636 198.57 479.83 204.298 479.83 210.852H481.83C481.83 204.054 480.59 198.021 478.082 192.779L476.278 193.643ZM479.83 210.852V213.893H481.83V210.852H479.83ZM467.605 210.805C467.605 203.568 466.314 197.904 463.592 193.954L461.945 195.089C464.338 198.562 465.605 203.755 465.605 210.805H467.605ZM463.592 193.954C460.836 189.954 456.869 187.953 451.819 187.953V189.953C456.252 189.953 459.585 191.663 461.945 195.089L463.592 193.954ZM451.819 187.953C446.801 187.953 442.851 189.938 440.095 193.904L441.738 195.045C444.098 191.649 447.416 189.953 451.819 189.953V187.953ZM440.097 193.9C437.372 197.789 436.064 203.392 436.033 210.566L438.033 210.575C438.063 203.587 439.345 198.459 441.735 195.048L440.097 193.9ZM436.033 210.571V213.893H438.033V210.571H436.033ZM436.033 213.893C436.033 220.953 437.328 226.573 440.038 230.638L441.702 229.528C439.296 225.919 438.033 220.746 438.033 213.893H436.033ZM440.038 230.638C442.79 234.767 446.791 236.838 451.912 236.838V234.838C447.426 234.838 444.065 233.073 441.702 229.528L440.038 230.638ZM451.912 236.838C456.931 236.838 460.867 234.853 463.593 230.883L461.944 229.751C459.615 233.143 456.315 234.838 451.912 234.838V236.838ZM463.595 230.88C466.281 226.933 467.573 221.306 467.605 214.131L465.605 214.123C465.574 221.11 464.309 226.277 461.941 229.754L463.595 230.88ZM467.605 214.127V210.805H465.605V214.127H467.605ZM515.175 229.522L514.217 229.808L515.172 232.997L516.132 229.81L515.175 229.522ZM530.616 178.284V177.284H529.873L529.659 177.996L530.616 178.284ZM546.245 178.284L547.189 178.613L547.652 177.284H546.245V178.284ZM522.521 246.413V247.413H523.232L523.465 246.742L522.521 246.413ZM507.875 246.413L506.931 246.741L507.164 247.413H507.875V246.413ZM484.246 178.284V177.284H482.84L483.301 178.612L484.246 178.284ZM499.827 178.284L500.785 177.997L500.572 177.284H499.827V178.284ZM516.132 229.81L531.574 178.573L529.659 177.996L514.217 229.233L516.132 229.81ZM530.616 179.284H546.245V177.284H530.616V179.284ZM545.3 177.955L521.577 246.085L523.465 246.742L547.189 178.613L545.3 177.955ZM522.521 245.413H507.875V247.413H522.521V245.413ZM508.82 246.086L485.19 177.957L483.301 178.612L506.931 246.741L508.82 246.086ZM484.246 179.284H499.827V177.284H484.246V179.284ZM498.869 178.571L514.217 229.808L516.133 229.235L500.785 177.997L498.869 178.571ZM567.628 246.413V247.413H568.628V246.413H567.628ZM553.591 246.413H552.591V247.413H553.591V246.413ZM553.591 178.284V177.284H552.591V178.284H553.591ZM567.628 178.284H568.628V177.284H567.628V178.284ZM567.628 245.413H553.591V247.413H567.628V245.413ZM554.591 246.413V178.284H552.591V246.413H554.591ZM553.591 179.284H567.628V177.284H553.591V179.284ZM566.628 178.284V246.413H568.628V178.284H566.628ZM580.683 246.413H579.683V247.413H580.683V246.413ZM580.683 178.284V177.284H579.683V178.284H580.683ZM617.695 182.355L617.196 183.222L617.203 183.226L617.695 182.355ZM628.785 193.866L627.902 194.335L627.903 194.337L628.785 193.866ZM628.832 230.832L627.949 230.362L627.947 230.367L628.832 230.832ZM617.836 242.296L618.333 243.164L617.836 242.296ZM601.786 246.413V247.413L601.792 247.413L601.786 246.413ZM594.721 189.655V188.655H593.721V189.655H594.721ZM594.721 235.137H593.721V236.137H594.721V235.137ZM618.538 214.361L619.538 214.37V214.361H618.538ZM614.233 195.036L613.452 195.661L613.455 195.664L614.233 195.036ZM581.683 246.413V178.284H579.683V246.413H581.683ZM580.683 179.284H601.646V177.284H580.683V179.284ZM601.646 179.284C607.478 179.284 612.653 180.604 617.196 183.222L618.195 181.489C613.317 178.679 607.792 177.284 601.646 177.284V179.284ZM617.203 183.226C621.772 185.811 625.336 189.506 627.902 194.335L629.668 193.397C626.931 188.244 623.102 184.265 618.188 181.485L617.203 183.226ZM627.903 194.337C630.468 199.135 631.762 204.616 631.762 210.805H633.762C633.762 204.329 632.405 198.517 629.667 193.395L627.903 194.337ZM631.762 210.805V213.94H633.762V210.805H631.762ZM631.762 213.94C631.762 220.131 630.483 225.597 627.949 230.362L629.715 231.301C632.422 226.209 633.762 220.414 633.762 213.94H631.762ZM627.947 230.367C625.444 235.13 621.912 238.81 617.339 241.428L618.333 243.164C623.243 240.353 627.041 236.391 629.717 231.297L627.947 230.367ZM617.339 241.428C612.761 244.048 607.583 245.383 601.781 245.413L601.792 247.413C607.906 247.381 613.428 245.971 618.333 243.164L617.339 241.428ZM601.786 245.413H580.683V247.413H601.786V245.413ZM593.721 189.655V235.137H595.721V189.655H593.721ZM594.721 236.137H601.506V234.137H594.721V236.137ZM601.506 236.137C607.234 236.137 611.742 234.252 614.87 230.384L613.315 229.127C610.64 232.434 606.758 234.137 601.506 234.137V236.137ZM614.87 230.384C617.964 226.558 619.474 221.174 619.538 214.37L617.538 214.352C617.477 220.899 616.023 225.778 613.315 229.127L614.87 230.384ZM619.538 214.361V210.758H617.538V214.361H619.538ZM619.538 210.758C619.538 203.717 618.082 198.213 615.011 194.408L613.455 195.664C616.123 198.971 617.538 203.949 617.538 210.758H619.538ZM615.014 194.411C611.915 190.538 607.403 188.655 601.646 188.655V190.655C606.932 190.655 610.811 192.359 613.452 195.661L615.014 194.411ZM601.646 188.655H594.721V190.655H601.646V188.655Z" fill="white"/>
</g>
<defs>
<filter id="filter0_b" x="-4" y="-4" width="802.475" height="327.56" filterUnits="userSpaceOnUse" color-interpolation-filters="sRGB">
<feFlood flood-opacity="0" result="BackgroundImageFix"/>
<feGaussianBlur in="BackgroundImage" stdDeviation="2"/>
<feComposite in2="SourceAlpha" operator="in" result="effect1_backgroundBlur"/>
<feBlend mode="normal" in="SourceGraphic" in2="effect1_backgroundBlur" result="shape"/>
</filter>
</defs>
</svg>
