<svg width="801" height="320" viewBox="0 0 801 320" fill="none" xmlns="http://www.w3.org/2000/svg">
<path d="M159.8 249.03C161.78 249.03 163.58 249.79 164.92 251.05C166.97 252.6 168.29 255.06 168.29 257.81V287.31C173.57 290.28 177.14 295.94 177.14 302.43C177.14 312.02 169.37 319.78 159.79 319.78C150.21 319.78 142.44 312.02 142.44 302.43C142.44 295.94 146.01 290.28 151.29 287.31V263.67C140.36 262.76 129.68 260.11 119.64 255.88C109.88 251.77 100.75 246.17 92.5998 239.22L75.7798 256.03C77.4098 261.87 75.9298 268.39 71.3398 272.98C64.5698 279.76 53.5798 279.76 46.8098 272.98C40.0298 266.21 40.0298 255.22 46.8098 248.45C51.3998 243.86 57.9198 242.38 63.7598 244.01L84.6198 223.15C85.1698 222.59 85.7898 222.13 86.4498 221.76C89.4198 219.38 93.7698 219.6 96.4798 222.39C104.81 230.91 114.68 237.58 125.44 242.12C136.17 246.63 147.84 249.03 159.8 249.03ZM242.47 128.85C240.99 124.98 242.94 120.65 246.8 119.18C250.67 117.71 255 119.65 256.47 123.51C258.71 129.36 260.41 135.45 261.57 141.71C262.17 144.97 262.62 148.24 262.91 151.5H287.1C290.07 146.22 295.73 142.65 302.22 142.65C311.81 142.65 319.57 150.42 319.57 160C319.57 169.58 311.81 177.35 302.22 177.35C295.73 177.35 290.08 173.78 287.1 168.5H263C262.16 179.34 259.61 189.94 255.5 199.92C251.45 209.74 245.89 218.94 238.98 227.16L255.82 244.01C261.66 242.38 268.18 243.86 272.77 248.45C279.55 255.22 279.55 266.21 272.77 272.98C266 279.76 255.01 279.76 248.24 272.98C243.65 268.39 242.17 261.87 243.8 256.03L222.94 235.18C221.1 233.34 220.29 230.85 220.49 228.44C220.41 226.43 221.13 224.4 222.66 222.86C230.89 214.57 237.31 204.82 241.67 194.24C246.02 183.68 248.32 172.23 248.32 160.51C248.32 155.02 247.83 149.62 246.86 144.4C245.9 139.17 244.42 133.96 242.47 128.85ZM71.2898 160.51C71.2898 164.2 68.6398 167.26 65.1398 167.89C64.1598 168.29 63.0898 168.5 61.9798 168.5H32.4798C29.5098 173.78 23.8498 177.35 17.3598 177.35C7.77976 177.35 0.00976562 169.58 0.00976562 160C0.00976562 150.42 7.77976 142.65 17.3598 142.65C23.8498 142.65 29.5098 146.22 32.4798 151.5H56.6798C58.5898 129.38 67.4498 109.25 81.0698 93.31L63.7598 75.99C57.9198 77.62 51.3998 76.14 46.8098 71.55C40.0298 64.78 40.0298 53.79 46.8098 47.02C53.5798 40.24 64.5698 40.24 71.3398 47.02C75.9298 51.61 77.4098 58.13 75.7798 63.97L93.1398 81.32C109.12 67.86 129.22 59.15 151.29 57.35V32.69C146.01 29.72 142.44 24.06 142.44 17.57C142.44 7.97998 150.21 0.219971 159.79 0.219971C169.37 0.219971 177.14 7.97998 177.14 17.57C177.14 24.06 173.57 29.72 168.29 32.69V57.35C178.96 58.24 189.38 60.78 199.2 64.82C208.59 68.69 217.42 73.93 225.36 80.43L225.49 80.3C227.32 78.09 229.21 76.23 231.07 74.72L241.82 63.97C240.19 58.13 241.67 51.61 246.26 47.02C253.04 40.24 264.02 40.24 270.8 47.02C277.57 53.79 277.57 64.78 270.8 71.55C266.21 76.14 259.68 77.62 253.85 75.99C224 105.84 195.25 136.48 165.29 166.49C162.17 169.62 157.11 169.62 153.98 166.5C150.85 163.38 150.85 158.31 153.97 155.19L169.05 140.08C166.11 138.74 162.9 138.03 159.61 138.04C147.04 138.05 136.82 148.29 136.83 160.86C136.84 173.43 147.08 183.65 159.65 183.64C169.26 183.63 177.88 177.55 181.11 168.52C182.6 164.36 187.18 162.19 191.34 163.68C194.61 164.84 196.64 167.92 196.65 171.2C196.65 172.1 196.5 173.01 196.18 173.9C190.68 189.28 176.01 199.62 159.67 199.64C138.28 199.66 120.85 182.27 120.83 160.88C120.81 139.48 138.2 122.06 159.59 122.04C167.17 122.03 174.52 124.23 180.79 128.32L192.27 116.81C182.86 109.81 171.5 106.02 159.58 106.04C156.05 106.04 152.53 106.38 149.1 107.05C144.76 107.89 140.56 105.06 139.72 100.72C138.87 96.38 141.71 92.18 146.04 91.34C150.47 90.48 155.02 90.04 159.56 90.03C175.76 90.02 191.16 95.43 203.67 105.39C208.82 99.5 212.49 95.36 215.62 91.79C208.9 86.33 201.45 81.91 193.52 78.65C182.96 74.3 171.52 72 159.8 72C135.36 72 113.23 81.91 97.2198 97.93C81.1998 113.94 71.2898 136.07 71.2898 160.51ZM88.8298 160.91C88.8198 152.71 90.2098 144.66 92.9398 137C94.4298 132.84 99.0098 130.68 103.17 132.16C107.33 133.65 109.5 138.23 108.01 142.39C105.89 148.31 104.82 154.54 104.83 160.89C104.86 191.11 129.47 215.67 159.69 215.64C189.9 215.61 214.46 191 214.43 160.78C214.43 156.11 213.84 151.48 212.68 147.01C211.56 142.73 214.13 138.36 218.41 137.25C222.68 136.14 227.05 138.71 228.16 142.98C229.67 148.76 230.43 154.75 230.43 160.77C230.47 199.81 198.74 231.6 159.7 231.64C120.66 231.68 88.8698 199.95 88.8298 160.91Z" fill="#4B2973"/>
<path d="M388.987 113.593H372.984V141.153H363.953V73.0243H386.507C394.181 73.0243 400.076 74.7712 404.194 78.265C408.343 81.7588 410.417 86.8435 410.417 93.5192C410.417 97.7617 409.263 101.458 406.955 104.609C404.678 107.76 401.496 110.115 397.409 111.674L413.412 140.592V141.153H403.773L388.987 113.593ZM372.984 106.247H386.788C391.248 106.247 394.789 105.092 397.409 102.784C400.061 100.476 401.387 97.3873 401.387 93.5192C401.387 89.3079 400.123 86.0793 397.597 83.8333C395.101 81.5872 391.482 80.4486 386.741 80.4174H372.984V106.247ZM461.561 109.662H432.035V133.807H466.334V141.153H423.051V73.0243H465.866V80.4174H432.035V102.316H461.561V109.662ZM527.818 132.216C525.509 135.523 522.281 138.003 518.132 139.656C514.014 141.278 509.21 142.089 503.72 142.089C498.168 142.089 493.239 140.795 488.934 138.206C484.629 135.585 481.291 131.873 478.921 127.069C476.581 122.265 475.38 116.697 475.318 110.364V104.422C475.318 94.1587 477.704 86.204 482.477 80.5578C487.281 74.9116 494.019 72.0885 502.691 72.0885C509.803 72.0885 515.527 73.9133 519.863 77.5631C524.199 81.1817 526.851 86.3288 527.818 93.0045H518.834C517.149 83.9892 511.784 79.4816 502.738 79.4816C496.717 79.4816 492.147 81.6028 489.028 85.8453C485.939 90.0566 484.38 96.1707 484.348 104.188V109.756C484.348 117.399 486.095 123.482 489.589 128.005C493.083 132.497 497.809 134.743 503.767 134.743C507.136 134.743 510.084 134.369 512.611 133.62C515.137 132.871 517.227 131.608 518.881 129.83V114.529H503.112V107.229H527.818V132.216ZM552.477 141.153H543.493V73.0243H552.477V141.153ZM589.021 110.785C581.316 108.571 575.701 105.857 572.176 102.644C568.683 99.3994 566.936 95.4065 566.936 90.6649C566.936 85.2994 569.073 80.8698 573.346 77.376C577.651 73.851 583.235 72.0885 590.098 72.0885C594.777 72.0885 598.941 72.9931 602.591 74.8024C606.272 76.6117 609.111 79.1073 611.107 82.2891C613.135 85.471 614.149 88.9492 614.149 92.7237H605.118C605.118 88.606 603.808 85.3774 601.187 83.0378C598.567 80.667 594.87 79.4816 590.098 79.4816C585.668 79.4816 582.205 80.4642 579.71 82.4295C577.246 84.3636 576.013 87.0619 576.013 90.5245C576.013 93.3008 577.183 95.656 579.523 97.5901C581.893 99.493 585.902 101.24 591.548 102.831C597.226 104.422 601.655 106.184 604.837 108.118C608.05 110.021 610.421 112.252 611.949 114.81C613.509 117.368 614.289 120.378 614.289 123.84C614.289 129.362 612.137 133.792 607.832 137.129C603.527 140.436 597.771 142.089 590.566 142.089C585.886 142.089 581.519 141.2 577.464 139.422C573.409 137.613 570.274 135.148 568.059 132.029C565.875 128.91 564.783 125.369 564.783 121.407H573.814C573.814 125.525 575.327 128.785 578.353 131.187C581.41 133.558 585.481 134.743 590.566 134.743C595.307 134.743 598.941 133.776 601.468 131.842C603.995 129.908 605.258 127.272 605.258 123.934C605.258 120.596 604.088 118.023 601.749 116.213C599.409 114.373 595.167 112.564 589.021 110.785ZM672.919 80.4174H651.02V141.153H642.083V80.4174H620.231V73.0243H672.919V80.4174ZM708.013 113.593H692.01V141.153H682.979V73.0243H705.533C713.207 73.0243 719.102 74.7712 723.22 78.265C727.369 81.7588 729.443 86.8435 729.443 93.5192C729.443 97.7617 728.289 101.458 725.981 104.609C723.704 107.76 720.522 110.115 716.435 111.674L732.438 140.592V141.153H722.799L708.013 113.593ZM692.01 106.247H705.814C710.274 106.247 713.815 105.092 716.435 102.784C719.087 100.476 720.413 97.3873 720.413 93.5192C720.413 89.3079 719.149 86.0793 716.622 83.8333C714.127 81.5872 710.508 80.4486 705.767 80.4174H692.01V106.247ZM794.484 109.288C794.484 115.964 793.361 121.797 791.115 126.788C788.869 131.748 785.687 135.538 781.569 138.159C777.452 140.779 772.648 142.089 767.157 142.089C761.792 142.089 757.035 140.779 752.886 138.159C748.737 135.507 745.509 131.748 743.2 126.882C740.923 121.984 739.753 116.322 739.691 109.896V104.983C739.691 98.4324 740.829 92.6457 743.107 87.6234C745.384 82.6011 748.597 78.7641 752.746 76.1126C756.926 73.4298 761.698 72.0885 767.064 72.0885C772.523 72.0885 777.327 73.4142 781.476 76.0658C785.656 78.6861 788.869 82.5075 791.115 87.5298C793.361 92.521 794.484 98.3388 794.484 104.983V109.288ZM785.547 104.89C785.547 96.8102 783.925 90.6181 780.68 86.3132C777.436 81.9772 772.897 79.8091 767.064 79.8091C761.387 79.8091 756.91 81.9772 753.635 86.3132C750.39 90.6181 748.722 96.6075 748.628 104.281V109.288C748.628 117.118 750.266 123.279 753.541 127.771C756.848 132.232 761.387 134.462 767.157 134.462C772.96 134.462 777.452 132.357 780.633 128.145C783.815 123.903 785.453 117.835 785.547 109.943V104.89Z" fill="#4B2973"/>
<path d="M415.658 223.939C415.128 231.27 412.414 237.041 407.516 241.252C402.65 245.464 396.224 247.569 388.238 247.569C379.504 247.569 372.625 244.637 367.603 238.772C362.612 232.877 360.116 224.797 360.116 214.534V210.37C360.116 203.819 361.271 198.048 363.579 193.057C365.887 188.065 369.178 184.244 373.452 181.593C377.757 178.91 382.748 177.568 388.425 177.568C396.286 177.568 402.619 179.674 407.423 183.885C412.227 188.097 415.003 194.008 415.752 201.62H401.714C401.371 197.221 400.139 194.039 398.018 192.074C395.928 190.078 392.73 189.079 388.425 189.079C383.746 189.079 380.237 190.764 377.897 194.133C375.589 197.471 374.403 202.665 374.341 209.715V214.862C374.341 222.224 375.448 227.605 377.663 231.005C379.909 234.405 383.434 236.105 388.238 236.105C392.574 236.105 395.803 235.123 397.924 233.157C400.076 231.161 401.309 228.088 401.621 223.939H415.658ZM480.839 214.113C480.839 220.82 479.654 226.7 477.283 231.754C474.912 236.807 471.512 240.706 467.082 243.452C462.684 246.197 457.63 247.569 451.922 247.569C446.276 247.569 441.238 246.212 436.808 243.498C432.378 240.784 428.947 236.916 426.514 231.894C424.081 226.84 422.848 221.038 422.817 214.487V211.118C422.817 204.411 424.018 198.516 426.42 193.431C428.853 188.315 432.269 184.4 436.668 181.686C441.097 178.941 446.151 177.568 451.828 177.568C457.506 177.568 462.543 178.941 466.942 181.686C471.371 184.4 474.787 188.315 477.189 193.431C479.622 198.516 480.839 204.396 480.839 211.072V214.113ZM466.614 211.025C466.614 203.881 465.335 198.453 462.777 194.741C460.219 191.029 456.57 189.173 451.828 189.173C447.118 189.173 443.484 191.013 440.926 194.694C438.368 198.344 437.073 203.71 437.042 210.791V214.113C437.042 221.069 438.321 226.466 440.879 230.303C443.437 234.14 447.118 236.058 451.922 236.058C456.632 236.058 460.251 234.218 462.777 230.537C465.304 226.825 466.583 221.428 466.614 214.347V211.025ZM515.184 229.742L530.625 178.504H546.254L522.53 246.633H507.885L484.255 178.504H499.836L515.184 229.742ZM567.638 246.633H553.6V178.504H567.638V246.633ZM580.692 246.633V178.504H601.655C607.645 178.504 612.994 179.861 617.705 182.575C622.446 185.258 626.143 189.095 628.794 194.086C631.446 199.046 632.772 204.692 632.772 211.025V214.16C632.772 220.492 631.461 226.123 628.841 231.052C626.252 235.98 622.587 239.802 617.845 242.516C613.104 245.23 607.754 246.602 601.796 246.633H580.692ZM594.73 189.875V235.357H601.515C607.005 235.357 611.201 233.563 614.102 229.975C617.003 226.388 618.485 221.257 618.547 214.581V210.978C618.547 204.053 617.112 198.812 614.242 195.256C611.372 191.668 607.177 189.875 601.655 189.875H594.73Z" fill="#1C8769"/>
</svg>
