<svg width="448" height="392" viewBox="0 0 448 392" fill="none" xmlns="http://www.w3.org/2000/svg">
  <path d="M312.278 370.974C314.626 378.083 309.816 386.064 309.816 386.064C309.816 386.064 301.199 382.521 298.85 375.413C296.501 368.304 301.311 360.323 301.311 360.323C301.311 360.323 309.929 363.866 312.278 370.974Z" fill="#E6E6E6" />
  <path d="M430.231 0.21875H44.358V247.402H430.231V0.21875Z" fill="#E6E6E6" />
  <path d="M419.197 31.2218H55.392V232.779H419.197V31.2218Z" fill="white" />
  <path d="M430.066 0H44.193V16.3968H430.066V0Z" fill="#F9A826" />
  <path d="M305.32 48.8993H169.106V62.4389H305.32V48.8993Z" fill="#E6E6E6" />
  <path d="M305.32 80.7925H169.106V85.9207H305.32V80.7925Z" fill="#E6E6E6" />
  <path d="M305.32 96.4451H169.106V101.573H305.32V96.4451Z" fill="#E6E6E6" />
  <path d="M239.488 112.296H169.106V117.424H239.488V112.296Z" fill="#E6E6E6" />
  <path d="M305.32 128.428H169.106V133.556H305.32V128.428Z" fill="#E6E6E6" />
  <path d="M305.32 144.56H169.106V149.689H305.32V144.56Z" fill="#E6E6E6" />
  <path d="M237.131 160.693H169.106V165.821H237.131V160.693Z" fill="#E6E6E6" />
  <path d="M305.32 176.825H169.106V181.953H305.32V176.825Z" fill="#E6E6E6" />
  <path d="M305.32 192.957H169.106V198.085H305.32V192.957Z" fill="#E6E6E6" />
  <path d="M305.483 212.744H262.468V226.889H305.483V212.744Z" fill="#F9A826" />
  <path d="M313.913 207.85L313.586 208.107L306.031 214.044C306.031 214.044 295.333 225.308 291.392 219.113C287.451 212.918 302.652 205.597 302.652 205.597L308.283 201.655L313.913 207.85Z" fill="#9F616A" />
  <path d="M401.7 215.452C401.7 215.452 394.056 231.221 392.145 232.347L377.812 219.958L384.501 213.2L401.7 215.452Z" fill="#9F616A" />
  <path d="M421.453 217.423L429.335 232.629L425.394 247.834V295.702L429.335 367.223H408.503L388.797 251.213L366.838 367.223H345.443L349.947 292.886L348.821 249.523C348.821 249.523 349.384 224.181 355.015 221.929C360.645 219.676 421.453 217.423 421.453 217.423Z" fill="#2F2E41" />
  <path d="M424.831 364.407L426.52 371.165C426.52 371.165 432.713 375.67 431.024 380.738C429.335 385.807 430.461 388.623 426.52 389.749C422.579 390.875 409.629 392.565 410.192 386.933C410.755 381.302 410.192 369.475 410.192 369.475L411.881 365.533L424.831 364.407Z" fill="#2F2E41" />
  <path d="M350.51 364.407L348.821 371.165C348.821 371.165 342.628 375.67 344.317 380.738C346.006 385.807 344.88 388.623 348.821 389.749C352.763 390.875 365.712 392.565 365.149 386.933C364.586 381.302 365.149 369.475 365.149 369.475L363.46 365.533L350.51 364.407Z" fill="#2F2E41" />
  <path d="M372.187 96.7268C383.021 96.7268 391.803 87.9427 391.803 77.107C391.803 66.2714 383.021 57.4873 372.187 57.4873C361.354 57.4873 352.572 66.2714 352.572 77.107C352.572 87.9427 361.354 96.7268 372.187 96.7268Z" fill="#9F616A" />
  <path d="M387.406 85.5641L390.112 107.89H365.761L367.791 88.9465L387.406 85.5641Z" fill="#9F616A" />
  <path d="M340.657 116.9C340.657 116.9 364.868 100.569 376.691 100.569C388.515 100.569 418.356 106.763 422.86 114.084L419.482 192.926C419.482 192.926 427.364 204.752 422.86 209.258C418.356 213.763 423.705 223.055 423.705 223.055C423.705 223.055 388.515 221.084 376.691 226.152C364.868 231.221 350.792 226.152 350.792 226.152C350.792 226.152 356.704 218.55 351.073 216.297C345.443 214.045 354.452 178.003 354.452 178.003L351.918 155.195L340.657 116.9Z" fill="#575A89" />
  <path d="M417.793 114.084L422.016 113.24C422.016 113.24 449.323 157.447 447.634 167.021C445.945 176.595 435.247 219.958 435.247 219.958L420.608 216.016L429.054 174.905L415.541 140.553L417.793 114.084Z" fill="#575A89" />
  <path d="M346.851 119.153L340.939 116.619C339.969 119.287 338.811 121.884 337.475 124.389C330.491 137.528 328.271 180.537 328.271 180.537L304.06 200.81L312.506 213.2C312.506 213.2 344.016 194.939 349.103 184.479C353.351 175.743 352.763 144.776 352.763 144.776L346.851 119.153Z" fill="#575A89" />
  <path d="M388.223 90.5503C388.223 90.5503 408.134 76.3248 397.704 59.2541C390.469 47.4114 375.475 48.3488 366.97 50.0338C364.679 50.4568 362.525 51.4308 360.694 52.8719C358.863 54.3129 357.409 56.1778 356.459 58.3057C355.037 61.625 355.037 64.9443 360.726 64.9443C372.104 64.9443 366.415 73.4797 366.415 73.4797C366.415 73.4797 374 75.3764 372.104 82.015C370.208 88.6536 388.223 90.5503 388.223 90.5503Z" fill="#2F2E41" />
  <path d="M77.514 124.243C65.511 124.243 55.781 114.485 55.781 102.449C55.781 90.4122 65.511 80.6545 77.514 80.6545C89.517 80.6545 99.247 90.4122 99.247 102.449C99.247 114.485 89.517 124.243 77.514 124.243Z" fill="#2F2E41" />
  <path d="M23.303 379.604H5.005V391.157H34.824C34.824 389.64 34.526 388.138 33.947 386.736C33.368 385.334 32.52 384.061 31.45 382.988C30.38 381.915 29.11 381.064 27.712 380.483C26.314 379.902 24.816 379.604 23.303 379.604Z" fill="#2F2E41" />
  <path d="M103.825 381.077L112.986 378.6L107.818 341.987L94.298 345.643L103.825 381.077Z" fill="#FFB8B8" />
  <path d="M118.824 374.206L101.156 378.983L104.156 390.139L132.947 382.354C132.152 379.395 130.217 376.875 127.568 375.347C124.92 373.819 121.774 373.409 118.824 374.206Z" fill="#2F2E41" />
  <path d="M85.845 212.51L114.098 373.061L99.609 375.966L53.97 262.636L19.922 375.24L2.535 373.061C2.535 373.061 10.504 211.783 35.859 197.98L85.845 212.51Z" fill="#2F2E41" />
  <path d="M130.652 269.944C129.633 269.435 128.738 268.709 128.029 267.817C127.321 266.924 126.816 265.886 126.551 264.777C126.286 263.667 126.266 262.513 126.494 261.395C126.721 260.277 127.191 259.223 127.869 258.307L112.287 235.394L126.657 235.17L139.25 256.963C140.71 258.207 141.664 259.945 141.931 261.847C142.198 263.749 141.76 265.683 140.7 267.283C139.64 268.883 138.032 270.038 136.18 270.528C134.328 271.019 132.361 270.811 130.652 269.944Z" fill="#FFB8B8" />
  <path d="M27.782 241.611C26.764 241.103 25.869 240.377 25.16 239.484C24.452 238.591 23.947 237.554 23.682 236.444C23.416 235.335 23.397 234.18 23.624 233.063C23.852 231.945 24.321 230.891 24.999 229.974L9.418 207.061L23.787 206.838L36.381 228.63C37.84 229.875 38.794 231.612 39.061 233.514C39.329 235.416 38.891 237.351 37.831 238.951C36.771 240.551 35.163 241.706 33.311 242.196C31.459 242.686 29.492 242.478 27.782 241.611Z" fill="#FFB8B8" />
  <path d="M76.961 128.558C66.463 128.558 57.953 120.024 57.953 109.496C57.953 98.9686 66.463 90.4343 76.961 90.4343C87.459 90.4343 95.969 98.9686 95.969 109.496C95.969 120.024 87.459 128.558 76.961 128.558Z" fill="#FFB8B8" />
  <path d="M35.859 139.136C36.584 136.23 48.899 136.956 48.899 136.956C48.899 136.956 62.767 133.759 62.635 134.159C74.322 133.257 88.577 137.657 90.653 138.324C94.901 139.499 103.016 143.094 108.869 145.738C109.684 146.106 110.321 146.782 110.641 147.618C110.962 148.455 110.94 149.384 110.58 150.205L92.727 191.079L90.192 217.595L31.513 199.433C46.001 193.621 35.135 142.042 35.859 139.136Z" fill="#F9A826" />
  <path d="M40.93 139.862L36.114 138.649L9.78 190.715L8.33099 220.501L24.993 207.425V195.801L42.379 173.28L40.93 139.862Z" fill="#F9A826" />
  <path d="M104.318 143.858L109.895 146.343C110.185 146.473 110.439 146.672 110.635 146.923C110.83 147.174 110.961 147.47 111.016 147.783L122.067 211.057L132.933 243.022L118.445 250.286L101.783 210.33L95.987 181.271L104.318 143.858Z" fill="#F9A826" />
  <path d="M96.895 100.51C93.037 99.2398 88.967 101.231 85.198 102.747C81.484 104.242 77.516 105.318 73.521 105.083C69.526 104.848 65.485 103.156 63.07 99.9557C60.655 96.7558 60.23 91.9601 62.62 88.7418C64.194 86.6232 66.706 85.4144 69.22 84.6272C74.594 82.9454 80.607 82.8873 85.715 85.26C90.823 87.6327 94.828 92.6451 95.248 98.2741" fill="#2F2E41" />
  <path d="M78.093 85.3266C79.389 76.5286 74.583 67.394 68.024 64.1171C61.465 60.8403 53.771 62.7733 47.862 67.653C41.953 72.5326 37.646 80.0312 34.44 88.0022C31.234 95.9733 29.014 104.511 26.402 112.824C24.082 120.207 21.359 127.595 16.953 133.241C12.547 138.888 6.139 142.562 0 141.011C5.044 147.812 14.323 146.634 20.079 140.817C25.836 135 28.829 125.908 31.184 117.058C33.54 108.208 35.59 98.9475 40.147 91.6134C48.253 78.5661 64.162 74.6462 75.523 82.8967" fill="#2F2E41" />
</svg>
