<svg width="769" height="520" viewBox="0 0 769 520" fill="none"
  xmlns="http://www.w3.org/2000/svg">
  <g clip-path="url(#clip0)">
    <path d="M456.278 370.974C458.626 378.083 453.816 386.064 453.816 386.064C453.816 386.064 445.199 382.521 442.85 375.413C440.501 368.304 445.311 360.322 445.311 360.322C445.311 360.322 453.929 363.866 456.278 370.974Z" fill="#E6E6E6"/>
    <path d="M574.231 0.218796H188.358V247.402H574.231V0.218796Z" fill="#E6E6E6"/>
    <path d="M563.197 31.2218H199.392V232.779H563.197V31.2218Z" fill="white"/>
    <path d="M574.066 0H188.193V16.3968H574.066V0Z" fill="#F9A826"/>
    <path d="M449.32 48.8993H313.106V62.439H449.32V48.8993Z" fill="#E6E6E6"/>
    <path d="M449.32 80.7925H313.106V85.9207H449.32V80.7925Z" fill="#E6E6E6"/>
    <path d="M449.32 96.4451H313.106V101.573H449.32V96.4451Z" fill="#E6E6E6"/>
    <path d="M383.488 112.296H313.106V117.424H383.488V112.296Z" fill="#E6E6E6"/>
    <path d="M449.32 128.428H313.106V133.556H449.32V128.428Z" fill="#E6E6E6"/>
    <path d="M449.32 144.56H313.106V149.689H449.32V144.56Z" fill="#E6E6E6"/>
    <path d="M381.131 160.693H313.106V165.821H381.131V160.693Z" fill="#E6E6E6"/>
    <path d="M449.32 176.825H313.106V181.953H449.32V176.825Z" fill="#E6E6E6"/>
    <path d="M449.32 192.957H313.106V198.085H449.32V192.957Z" fill="#E6E6E6"/>
    <path d="M449.483 212.744H406.468V226.889H449.483V212.744Z" fill="#F9A826"/>
    <path d="M457.913 207.85L457.586 208.107L450.031 214.045C450.031 214.045 439.333 225.308 435.392 219.113C431.451 212.918 446.652 205.597 446.652 205.597L452.283 201.655L457.913 207.85Z" fill="#9F616A"/>
    <path d="M545.7 215.452C545.7 215.452 538.056 231.221 536.145 232.347L521.812 219.958L528.501 213.2L545.7 215.452Z" fill="#9F616A"/>
    <path d="M565.453 217.423L573.335 232.629L569.394 247.834V295.702L573.335 367.223H552.503L532.797 251.213L510.838 367.223H489.443L493.947 292.886L492.821 249.523C492.821 249.523 493.384 224.181 499.015 221.929C504.645 219.676 565.453 217.423 565.453 217.423Z" fill="#2F2E41"/>
    <path d="M568.831 364.407L570.52 371.165C570.52 371.165 576.713 375.67 575.024 380.739C573.335 385.807 574.461 388.623 570.52 389.749C566.579 390.875 553.629 392.565 554.192 386.933C554.755 381.302 554.192 369.475 554.192 369.475L555.881 365.533L568.831 364.407Z" fill="#2F2E41"/>
    <path d="M494.51 364.407L492.821 371.165C492.821 371.165 486.628 375.67 488.317 380.739C490.006 385.807 488.88 388.623 492.821 389.749C496.763 390.875 509.712 392.565 509.149 386.933C508.586 381.302 509.149 369.475 509.149 369.475L507.46 365.533L494.51 364.407Z" fill="#2F2E41"/>
    <path d="M516.187 96.7268C527.021 96.7268 535.803 87.9428 535.803 77.1071C535.803 66.2714 527.021 57.4874 516.187 57.4874C505.354 57.4874 496.572 66.2714 496.572 77.1071C496.572 87.9428 505.354 96.7268 516.187 96.7268Z" fill="#9F616A"/>
    <path d="M531.406 85.5641L534.112 107.89H509.761L511.791 88.9465L531.406 85.5641Z" fill="#9F616A"/>
    <path d="M484.657 116.9C484.657 116.9 508.868 100.569 520.691 100.569C532.515 100.569 562.356 106.763 566.86 114.084L563.482 192.926C563.482 192.926 571.364 204.752 566.86 209.258C562.356 213.763 567.705 223.055 567.705 223.055C567.705 223.055 532.515 221.084 520.691 226.152C508.868 231.221 494.792 226.152 494.792 226.152C494.792 226.152 500.704 218.55 495.073 216.297C489.443 214.045 498.452 178.003 498.452 178.003L495.918 155.195L484.657 116.9Z" fill="#575A89"/>
    <path d="M561.793 114.084L566.016 113.24C566.016 113.24 593.323 157.447 591.634 167.021C589.945 176.595 579.247 219.958 579.247 219.958L564.608 216.016L573.054 174.905L559.541 140.553L561.793 114.084Z" fill="#575A89"/>
    <path d="M490.851 119.153L484.939 116.619C483.969 119.287 482.811 121.884 481.475 124.389C474.491 137.528 472.271 180.537 472.271 180.537L448.06 200.81L456.506 213.2C456.506 213.2 488.016 194.939 493.103 184.479C497.351 175.743 496.763 144.776 496.763 144.776L490.851 119.153Z" fill="#575A89"/>
    <path d="M532.223 90.5503C532.223 90.5503 552.134 76.3248 541.704 59.2541C534.469 47.4114 519.475 48.3488 510.97 50.0338C508.679 50.4568 506.525 51.4308 504.694 52.8718C502.863 54.3129 501.409 56.1778 500.459 58.3057C499.037 61.625 499.037 64.9443 504.726 64.9443C516.104 64.9443 510.415 73.4796 510.415 73.4796C510.415 73.4796 518 75.3764 516.104 82.015C514.208 88.6536 532.223 90.5503 532.223 90.5503Z" fill="#2F2E41"/>
    <path d="M221.514 124.243C209.511 124.243 199.781 114.485 199.781 102.449C199.781 90.4121 209.511 80.6545 221.514 80.6545C233.517 80.6545 243.247 90.4121 243.247 102.449C243.247 114.485 233.517 124.243 221.514 124.243Z" fill="#2F2E41"/>
    <path d="M167.303 379.604H149.005V391.157H178.824C178.824 389.64 178.526 388.138 177.947 386.736C177.368 385.334 176.52 384.061 175.45 382.988C174.38 381.915 173.11 381.064 171.712 380.483C170.314 379.902 168.816 379.604 167.303 379.604Z" fill="#2F2E41"/>
    <path d="M247.825 381.077L256.986 378.6L251.818 341.987L238.298 345.643L247.825 381.077Z" fill="#FFB8B8"/>
    <path d="M262.824 374.206L245.156 378.983L248.156 390.138L276.947 382.354C276.152 379.395 274.217 376.875 271.568 375.347C268.92 373.819 265.774 373.408 262.824 374.206Z" fill="#2F2E41"/>
    <path d="M229.845 212.51L258.098 373.061L243.609 375.966L197.97 262.636L163.922 375.24L146.535 373.061C146.535 373.061 154.504 211.783 179.859 197.98L229.845 212.51Z" fill="#2F2E41"/>
    <path d="M274.652 269.944C273.633 269.435 272.738 268.709 272.029 267.817C271.321 266.924 270.816 265.886 270.551 264.777C270.286 263.667 270.266 262.513 270.494 261.395C270.721 260.277 271.191 259.223 271.869 258.307L256.287 235.394L270.657 235.17L283.25 256.963C284.71 258.207 285.664 259.945 285.931 261.847C286.198 263.749 285.76 265.683 284.7 267.283C283.64 268.883 282.032 270.038 280.18 270.528C278.328 271.019 276.361 270.811 274.652 269.944Z" fill="#FFB8B8"/>
    <path d="M171.782 241.611C170.764 241.103 169.869 240.377 169.16 239.484C168.452 238.591 167.947 237.554 167.682 236.444C167.416 235.335 167.397 234.18 167.624 233.063C167.852 231.945 168.321 230.891 168.999 229.974L153.418 207.061L167.787 206.837L180.381 228.63C181.84 229.874 182.794 231.612 183.061 233.514C183.329 235.416 182.891 237.351 181.831 238.951C180.771 240.551 179.163 241.705 177.311 242.196C175.459 242.686 173.492 242.478 171.782 241.611V241.611Z" fill="#FFB8B8"/>
    <path d="M220.961 128.558C210.463 128.558 201.953 120.024 201.953 109.496C201.953 98.9685 210.463 90.4342 220.961 90.4342C231.459 90.4342 239.969 98.9685 239.969 109.496C239.969 120.024 231.459 128.558 220.961 128.558Z" fill="#FFB8B8"/>
    <path d="M179.859 139.136C180.584 136.23 192.899 136.956 192.899 136.956C192.899 136.956 206.767 133.759 206.635 134.159C218.322 133.257 232.577 137.657 234.653 138.324C238.901 139.499 247.016 143.094 252.869 145.738C253.684 146.106 254.321 146.782 254.641 147.618C254.962 148.455 254.94 149.384 254.58 150.205L236.727 191.079L234.192 217.595L175.513 199.433C190.001 193.621 179.135 142.042 179.859 139.136Z" fill="#F9A826"/>
    <path d="M184.93 139.862L180.114 138.649L153.78 190.715L152.331 220.501L168.993 207.425V195.801L186.379 173.28L184.93 139.862Z" fill="#F9A826"/>
    <path d="M248.318 143.858L253.895 146.343C254.185 146.473 254.439 146.672 254.635 146.923C254.83 147.174 254.961 147.469 255.016 147.783L266.067 211.057L276.933 243.022L262.445 250.286L245.783 210.33L239.987 181.271L248.318 143.858Z" fill="#F9A826"/>
    <path d="M240.895 100.51C237.037 99.2398 232.967 101.231 229.198 102.747C225.484 104.242 221.516 105.318 217.521 105.083C213.526 104.848 209.485 103.156 207.07 99.9557C204.655 96.7558 204.23 91.9601 206.62 88.7418C208.194 86.6232 210.706 85.4144 213.22 84.6273C218.594 82.9454 224.607 82.8874 229.715 85.26C234.823 87.6327 238.828 92.6452 239.248 98.2741" fill="#2F2E41"/>
    <path d="M222.093 85.3265C223.389 76.5286 218.583 67.394 212.024 64.1171C205.465 60.8402 197.771 62.7733 191.862 67.6529C185.953 72.5326 181.646 80.0312 178.44 88.0022C175.234 95.9732 173.014 104.511 170.402 112.824C168.082 120.207 165.359 127.595 160.953 133.241C156.547 138.888 150.139 142.562 144 141.011C149.044 147.812 158.323 146.634 164.079 140.817C169.836 135 172.829 125.908 175.184 117.058C177.54 108.208 179.59 98.9475 184.147 91.6134C192.253 78.566 208.162 74.6462 219.523 82.8967" fill="#2F2E41"/>
  </g>
  <path d="M44.7778 467.619H36.1401L34.2002 473H31.3965L39.2695 452.383H41.6484L49.5356 473H46.7461L44.7778 467.619ZM36.9614 465.382H43.9707L40.459 455.739L36.9614 465.382ZM64.4489 469.446L68.2438 457.679H70.9201L65.426 473H63.4294L57.8786 457.679H60.5549L64.4489 469.446ZM76.4368 473H73.8172V457.679H76.4368V473ZM73.6048 453.615C73.6048 453.19 73.7322 452.831 73.9871 452.539C74.2514 452.246 74.6385 452.1 75.1482 452.1C75.658 452.1 76.0451 452.246 76.3094 452.539C76.5737 452.831 76.7059 453.19 76.7059 453.615C76.7059 454.04 76.5737 454.394 76.3094 454.677C76.0451 454.96 75.658 455.102 75.1482 455.102C74.6385 455.102 74.2514 454.96 73.9871 454.677C73.7322 454.394 73.6048 454.04 73.6048 453.615ZM89.7133 468.936C89.7133 468.228 89.4442 467.681 88.9062 467.293C88.3775 466.897 87.4477 466.557 86.1166 466.274C84.795 465.991 83.7424 465.651 82.9589 465.254C82.1848 464.858 81.609 464.386 81.2313 463.838C80.8632 463.291 80.6791 462.639 80.6791 461.884C80.6791 460.629 81.2077 459.567 82.265 458.698C83.3318 457.83 84.6911 457.396 86.3432 457.396C88.0801 457.396 89.4867 457.844 90.5629 458.741C91.6485 459.638 92.1913 460.785 92.1913 462.182H89.5575C89.5575 461.464 89.2507 460.846 88.6371 460.327C88.0329 459.807 87.2683 459.548 86.3432 459.548C85.3897 459.548 84.6439 459.756 84.1059 460.171C83.5678 460.586 83.2987 461.129 83.2987 461.799C83.2987 462.432 83.5489 462.909 84.0492 463.229C84.5495 463.55 85.4511 463.857 86.7538 464.15C88.066 464.443 89.128 464.792 89.9398 465.198C90.7517 465.604 91.3511 466.095 91.7382 466.67C92.1347 467.237 92.3329 467.931 92.3329 468.752C92.3329 470.121 91.7854 471.221 90.6903 472.051C89.5953 472.873 88.1745 473.283 86.4281 473.283C85.2009 473.283 84.1153 473.066 83.1713 472.632C82.2273 472.198 81.4862 471.593 80.9481 470.819C80.4195 470.036 80.1552 469.191 80.1552 468.285H82.7748C82.822 469.163 83.1713 469.861 83.8227 470.38C84.4835 470.89 85.352 471.145 86.4281 471.145C87.4193 471.145 88.2123 470.947 88.807 470.55C89.4112 470.144 89.7133 469.606 89.7133 468.936ZM105.354 471.485C104.335 472.684 102.839 473.283 100.866 473.283C99.2326 473.283 97.9865 472.811 97.1274 471.867C96.2778 470.914 95.8483 469.507 95.8389 467.647V457.679H98.4585V467.577C98.4585 469.899 99.4025 471.06 101.291 471.06C103.292 471.06 104.623 470.314 105.284 468.823V457.679H107.903V473H105.411L105.354 471.485ZM121.505 473C121.354 472.698 121.232 472.16 121.137 471.386C119.92 472.651 118.466 473.283 116.776 473.283C115.266 473.283 114.024 472.858 113.052 472.009C112.089 471.15 111.608 470.064 111.608 468.752C111.608 467.157 112.212 465.92 113.42 465.042C114.638 464.155 116.346 463.711 118.546 463.711H121.095V462.507C121.095 461.592 120.821 460.865 120.274 460.327C119.726 459.779 118.919 459.505 117.852 459.505C116.918 459.505 116.134 459.741 115.502 460.213C114.869 460.685 114.553 461.257 114.553 461.927H111.919C111.919 461.162 112.188 460.426 112.726 459.718C113.274 459 114.01 458.434 114.935 458.019C115.87 457.603 116.894 457.396 118.008 457.396C119.773 457.396 121.156 457.839 122.157 458.727C123.157 459.604 123.677 460.818 123.714 462.366V469.417C123.714 470.824 123.894 471.943 124.253 472.773V473H121.505ZM117.158 471.003C117.98 471.003 118.758 470.791 119.495 470.366C120.231 469.941 120.764 469.389 121.095 468.709V465.566H119.042C115.832 465.566 114.227 466.505 114.227 468.384C114.227 469.205 114.501 469.847 115.048 470.31C115.596 470.772 116.299 471.003 117.158 471.003ZM130.817 473H128.197V451.25H130.817V473ZM138.019 473H135.399V457.679H138.019V473ZM135.187 453.615C135.187 453.19 135.314 452.831 135.569 452.539C135.833 452.246 136.221 452.1 136.73 452.1C137.24 452.1 137.627 452.246 137.891 452.539C138.156 452.831 138.288 453.19 138.288 453.615C138.288 454.04 138.156 454.394 137.891 454.677C137.627 454.96 137.24 455.102 136.73 455.102C136.221 455.102 135.833 454.96 135.569 454.677C135.314 454.394 135.187 454.04 135.187 453.615ZM144.838 470.862H153.802V473H141.638V471.074L150.092 459.845H141.766V457.679H153.377V459.534L144.838 470.862ZM166.37 473C166.219 472.698 166.096 472.16 166.002 471.386C164.784 472.651 163.33 473.283 161.641 473.283C160.13 473.283 158.889 472.858 157.917 472.009C156.954 471.15 156.472 470.064 156.472 468.752C156.472 467.157 157.076 465.92 158.285 465.042C159.502 464.155 161.211 463.711 163.411 463.711H165.959V462.507C165.959 461.592 165.686 460.865 165.138 460.327C164.591 459.779 163.784 459.505 162.717 459.505C161.782 459.505 160.999 459.741 160.366 460.213C159.734 460.685 159.417 461.257 159.417 461.927H156.784C156.784 461.162 157.053 460.426 157.591 459.718C158.138 459 158.875 458.434 159.8 458.019C160.734 457.603 161.759 457.396 162.873 457.396C164.638 457.396 166.021 457.839 167.021 458.727C168.022 459.604 168.541 460.818 168.579 462.366V469.417C168.579 470.824 168.758 471.943 169.117 472.773V473H166.37ZM162.023 471.003C162.844 471.003 163.623 470.791 164.359 470.366C165.096 469.941 165.629 469.389 165.959 468.709V465.566H163.906C160.697 465.566 159.092 466.505 159.092 468.384C159.092 469.205 159.366 469.847 159.913 470.31C160.461 470.772 161.164 471.003 162.023 471.003ZM178.981 471.145C179.916 471.145 180.732 470.862 181.431 470.295C182.129 469.729 182.516 469.021 182.592 468.171H185.07C185.023 469.049 184.721 469.885 184.164 470.678C183.607 471.471 182.861 472.103 181.926 472.575C181.001 473.047 180.019 473.283 178.981 473.283C176.895 473.283 175.233 472.589 173.997 471.202C172.769 469.805 172.156 467.898 172.156 465.481V465.042C172.156 463.55 172.43 462.224 172.977 461.063C173.525 459.902 174.308 459 175.328 458.358C176.357 457.716 177.57 457.396 178.967 457.396C180.685 457.396 182.11 457.91 183.243 458.939C184.386 459.968 184.994 461.304 185.07 462.946H182.592C182.516 461.955 182.139 461.143 181.459 460.511C180.789 459.869 179.958 459.548 178.967 459.548C177.636 459.548 176.602 460.029 175.866 460.992C175.139 461.946 174.775 463.329 174.775 465.141V465.637C174.775 467.402 175.139 468.761 175.866 469.715C176.593 470.668 177.631 471.145 178.981 471.145ZM179.406 473.127L179.236 473.864C180.68 474.119 181.402 474.935 181.402 476.313C181.402 477.229 181.025 477.951 180.27 478.48C179.514 479.018 178.462 479.287 177.112 479.287L177.013 477.772C177.759 477.772 178.334 477.649 178.74 477.404C179.156 477.158 179.363 476.814 179.363 476.37C179.363 475.955 179.212 475.648 178.91 475.45C178.608 475.251 177.995 475.11 177.069 475.025L177.523 473.127H179.406ZM197.624 473C197.473 472.698 197.35 472.16 197.256 471.386C196.038 472.651 194.585 473.283 192.895 473.283C191.384 473.283 190.143 472.858 189.171 472.009C188.208 471.15 187.726 470.064 187.726 468.752C187.726 467.157 188.33 465.92 189.539 465.042C190.757 464.155 192.465 463.711 194.665 463.711H197.214V462.507C197.214 461.592 196.94 460.865 196.392 460.327C195.845 459.779 195.038 459.505 193.971 459.505C193.036 459.505 192.253 459.741 191.62 460.213C190.988 460.685 190.672 461.257 190.672 461.927H188.038C188.038 461.162 188.307 460.426 188.845 459.718C189.392 459 190.129 458.434 191.054 458.019C191.988 457.603 193.013 457.396 194.127 457.396C195.892 457.396 197.275 457.839 198.276 458.727C199.276 459.604 199.795 460.818 199.833 462.366V469.417C199.833 470.824 200.013 471.943 200.371 472.773V473H197.624ZM193.277 471.003C194.098 471.003 194.877 470.791 195.613 470.366C196.35 469.941 196.883 469.389 197.214 468.709V465.566H195.16C191.951 465.566 190.346 466.505 190.346 468.384C190.346 469.205 190.62 469.847 191.167 470.31C191.715 470.772 192.418 471.003 193.277 471.003ZM199.437 451.703C199.437 452.723 199.144 453.549 198.559 454.181C197.983 454.814 197.261 455.13 196.392 455.13C196.005 455.13 195.67 455.083 195.387 454.988C195.104 454.894 194.731 454.7 194.268 454.408C193.815 454.115 193.485 453.94 193.277 453.884C193.079 453.818 192.848 453.785 192.583 453.785C192.196 453.785 191.866 453.936 191.592 454.238C191.318 454.53 191.181 454.908 191.181 455.371L189.425 455.271C189.425 454.261 189.709 453.426 190.275 452.765C190.851 452.104 191.578 451.774 192.456 451.774C192.786 451.774 193.084 451.821 193.348 451.916C193.612 452.01 193.971 452.194 194.424 452.468C194.877 452.742 195.222 452.921 195.458 453.006C195.703 453.091 195.972 453.133 196.265 453.133C196.671 453.133 197.006 452.973 197.27 452.652C197.544 452.331 197.681 451.958 197.681 451.533L199.437 451.703ZM203.396 465.198C203.396 463.697 203.688 462.347 204.274 461.148C204.868 459.949 205.69 459.024 206.738 458.373C207.795 457.721 208.998 457.396 210.348 457.396C212.435 457.396 214.12 458.118 215.404 459.562C216.697 461.006 217.344 462.927 217.344 465.325V465.509C217.344 467.001 217.056 468.341 216.48 469.531C215.913 470.711 215.097 471.631 214.03 472.292C212.973 472.953 211.755 473.283 210.377 473.283C208.3 473.283 206.615 472.561 205.322 471.117C204.038 469.672 203.396 467.761 203.396 465.382V465.198ZM206.03 465.509C206.03 467.208 206.421 468.573 207.205 469.602C207.998 470.631 209.055 471.145 210.377 471.145C211.708 471.145 212.765 470.626 213.549 469.587C214.332 468.54 214.724 467.076 214.724 465.198C214.724 463.517 214.323 462.158 213.52 461.12C212.727 460.072 211.67 459.548 210.348 459.548C209.055 459.548 208.012 460.062 207.219 461.091C206.426 462.12 206.03 463.593 206.03 465.509ZM227.485 465.212C227.485 462.861 228.042 460.973 229.156 459.548C230.27 458.113 231.728 457.396 233.531 457.396C235.325 457.396 236.746 458.009 237.793 459.236V451.25H240.413V473H238.006L237.878 471.357C236.831 472.641 235.372 473.283 233.503 473.283C231.728 473.283 230.279 472.556 229.156 471.103C228.042 469.649 227.485 467.751 227.485 465.41V465.212ZM230.104 465.509C230.104 467.246 230.463 468.606 231.181 469.587C231.898 470.569 232.889 471.06 234.154 471.06C235.816 471.06 237.029 470.314 237.793 468.823V461.785C237.01 460.341 235.806 459.619 234.183 459.619C232.899 459.619 231.898 460.114 231.181 461.105C230.463 462.097 230.104 463.565 230.104 465.509ZM250.999 473.283C248.922 473.283 247.233 472.604 245.93 471.244C244.627 469.875 243.976 468.049 243.976 465.764V465.283C243.976 463.763 244.264 462.408 244.839 461.219C245.425 460.02 246.237 459.085 247.275 458.415C248.323 457.735 249.456 457.396 250.673 457.396C252.665 457.396 254.213 458.052 255.318 459.364C256.422 460.676 256.975 462.555 256.975 465V466.09H246.595C246.633 467.6 247.072 468.823 247.912 469.757C248.762 470.682 249.838 471.145 251.141 471.145C252.066 471.145 252.849 470.956 253.491 470.579C254.133 470.201 254.695 469.701 255.176 469.078L256.776 470.324C255.493 472.297 253.567 473.283 250.999 473.283ZM250.673 459.548C249.616 459.548 248.729 459.935 248.011 460.709C247.294 461.474 246.85 462.55 246.68 463.938H254.355V463.739C254.28 462.408 253.921 461.379 253.279 460.652C252.637 459.916 251.768 459.548 250.673 459.548ZM280.455 465.509C280.455 467.841 279.922 469.72 278.855 471.145C277.788 472.57 276.344 473.283 274.522 473.283C272.662 473.283 271.199 472.693 270.132 471.513V478.891H267.512V457.679H269.906L270.033 459.378C271.1 458.056 272.582 457.396 274.479 457.396C276.32 457.396 277.774 458.089 278.841 459.477C279.917 460.865 280.455 462.795 280.455 465.269V465.509ZM277.835 465.212C277.835 463.484 277.467 462.12 276.731 461.12C275.994 460.119 274.984 459.619 273.7 459.619C272.115 459.619 270.925 460.322 270.132 461.729V469.049C270.916 470.446 272.115 471.145 273.729 471.145C274.984 471.145 275.98 470.649 276.717 469.658C277.462 468.658 277.835 467.175 277.835 465.212ZM293.406 473C293.255 472.698 293.132 472.16 293.038 471.386C291.82 472.651 290.366 473.283 288.676 473.283C287.166 473.283 285.924 472.858 284.952 472.009C283.989 471.15 283.508 470.064 283.508 468.752C283.508 467.157 284.112 465.92 285.32 465.042C286.538 464.155 288.247 463.711 290.446 463.711H292.995V462.507C292.995 461.592 292.721 460.865 292.174 460.327C291.626 459.779 290.819 459.505 289.752 459.505C288.818 459.505 288.034 459.741 287.402 460.213C286.769 460.685 286.453 461.257 286.453 461.927H283.819C283.819 461.162 284.088 460.426 284.626 459.718C285.174 459 285.91 458.434 286.835 458.019C287.77 457.603 288.794 457.396 289.908 457.396C291.673 457.396 293.056 457.839 294.057 458.727C295.058 459.604 295.577 460.818 295.615 462.366V469.417C295.615 470.824 295.794 471.943 296.153 472.773V473H293.406ZM289.059 471.003C289.88 471.003 290.659 470.791 291.395 470.366C292.131 469.941 292.665 469.389 292.995 468.709V465.566H290.942C287.732 465.566 286.127 466.505 286.127 468.384C286.127 469.205 286.401 469.847 286.949 470.31C287.496 470.772 288.199 471.003 289.059 471.003ZM306.017 471.145C306.951 471.145 307.768 470.862 308.466 470.295C309.165 469.729 309.552 469.021 309.627 468.171H312.105C312.058 469.049 311.756 469.885 311.199 470.678C310.642 471.471 309.896 472.103 308.962 472.575C308.037 473.047 307.055 473.283 306.017 473.283C303.93 473.283 302.269 472.589 301.032 471.202C299.805 469.805 299.191 467.898 299.191 465.481V465.042C299.191 463.55 299.465 462.224 300.013 461.063C300.56 459.902 301.344 459 302.363 458.358C303.392 457.716 304.605 457.396 306.002 457.396C307.721 457.396 309.146 457.91 310.279 458.939C311.421 459.968 312.03 461.304 312.105 462.946H309.627C309.552 461.955 309.174 461.143 308.495 460.511C307.824 459.869 306.994 459.548 306.002 459.548C304.671 459.548 303.638 460.029 302.901 460.992C302.174 461.946 301.811 463.329 301.811 465.141V465.637C301.811 467.402 302.174 468.761 302.901 469.715C303.628 470.668 304.667 471.145 306.017 471.145ZM318.047 473H315.427V457.679H318.047V473ZM315.215 453.615C315.215 453.19 315.342 452.831 315.597 452.539C315.862 452.246 316.249 452.1 316.758 452.1C317.268 452.1 317.655 452.246 317.92 452.539C318.184 452.831 318.316 453.19 318.316 453.615C318.316 454.04 318.184 454.394 317.92 454.677C317.655 454.96 317.268 455.102 316.758 455.102C316.249 455.102 315.862 454.96 315.597 454.677C315.342 454.394 315.215 454.04 315.215 453.615ZM328.76 473.283C326.684 473.283 324.994 472.604 323.691 471.244C322.388 469.875 321.737 468.049 321.737 465.764V465.283C321.737 463.763 322.025 462.408 322.601 461.219C323.186 460.02 323.998 459.085 325.036 458.415C326.084 457.735 327.217 457.396 328.435 457.396C330.427 457.396 331.975 458.052 333.079 459.364C334.184 460.676 334.736 462.555 334.736 465V466.09H324.357C324.394 467.6 324.833 468.823 325.674 469.757C326.523 470.682 327.599 471.145 328.902 471.145C329.827 471.145 330.611 470.956 331.253 470.579C331.895 470.201 332.456 469.701 332.938 469.078L334.538 470.324C333.254 472.297 331.328 473.283 328.76 473.283ZM328.435 459.548C327.377 459.548 326.49 459.935 325.773 460.709C325.055 461.474 324.612 462.55 324.442 463.938H332.116V463.739C332.041 462.408 331.682 461.379 331.04 460.652C330.398 459.916 329.53 459.548 328.435 459.548ZM340.409 457.679L340.493 459.604C341.664 458.132 343.193 457.396 345.081 457.396C348.319 457.396 349.952 459.222 349.981 462.875V473H347.361V462.861C347.352 461.757 347.097 460.94 346.596 460.412C346.106 459.883 345.336 459.619 344.288 459.619C343.439 459.619 342.693 459.845 342.051 460.298C341.409 460.751 340.909 461.346 340.55 462.083V473H337.93V457.679H340.409ZM357.636 453.969V457.679H360.496V459.704H357.636V469.205C357.636 469.819 357.763 470.281 358.018 470.593C358.273 470.895 358.707 471.046 359.321 471.046C359.623 471.046 360.038 470.989 360.567 470.876V473C359.878 473.189 359.207 473.283 358.556 473.283C357.385 473.283 356.503 472.929 355.908 472.221C355.313 471.513 355.016 470.508 355.016 469.205V459.704H352.226V457.679H355.016V453.969H357.636ZM370.077 473.283C368 473.283 366.31 472.604 365.007 471.244C363.705 469.875 363.053 468.049 363.053 465.764V465.283C363.053 463.763 363.341 462.408 363.917 461.219C364.502 460.02 365.314 459.085 366.353 458.415C367.4 457.735 368.533 457.396 369.751 457.396C371.743 457.396 373.291 458.052 374.396 459.364C375.5 460.676 376.052 462.555 376.052 465V466.09H365.673C365.711 467.6 366.15 468.823 366.99 469.757C367.839 470.682 368.916 471.145 370.218 471.145C371.143 471.145 371.927 470.956 372.569 470.579C373.211 470.201 373.772 469.701 374.254 469.078L375.854 470.324C374.57 472.297 372.644 473.283 370.077 473.283ZM369.751 459.548C368.694 459.548 367.806 459.935 367.089 460.709C366.371 461.474 365.928 462.55 365.758 463.938H373.433V463.739C373.357 462.408 372.998 461.379 372.356 460.652C371.715 459.916 370.846 459.548 369.751 459.548ZM388.168 468.936C388.168 468.228 387.899 467.681 387.36 467.293C386.832 466.897 385.902 466.557 384.571 466.274C383.249 465.991 382.197 465.651 381.413 465.254C380.639 464.858 380.063 464.386 379.686 463.838C379.317 463.291 379.133 462.639 379.133 461.884C379.133 460.629 379.662 459.567 380.719 458.698C381.786 457.83 383.145 457.396 384.797 457.396C386.534 457.396 387.941 457.844 389.017 458.741C390.103 459.638 390.646 460.785 390.646 462.182H388.012C388.012 461.464 387.705 460.846 387.091 460.327C386.487 459.807 385.723 459.548 384.797 459.548C383.844 459.548 383.098 459.756 382.56 460.171C382.022 460.586 381.753 461.129 381.753 461.799C381.753 462.432 382.003 462.909 382.504 463.229C383.004 463.55 383.905 463.857 385.208 464.15C386.52 464.443 387.582 464.792 388.394 465.198C389.206 465.604 389.805 466.095 390.192 466.67C390.589 467.237 390.787 467.931 390.787 468.752C390.787 470.121 390.24 471.221 389.145 472.051C388.05 472.873 386.629 473.283 384.882 473.283C383.655 473.283 382.57 473.066 381.626 472.632C380.682 472.198 379.941 471.593 379.402 470.819C378.874 470.036 378.609 469.191 378.609 468.285H381.229C381.276 469.163 381.626 469.861 382.277 470.38C382.938 470.89 383.806 471.145 384.882 471.145C385.874 471.145 386.667 470.947 387.261 470.55C387.865 470.144 388.168 469.606 388.168 468.936ZM411.152 473C411.001 472.698 410.878 472.16 410.784 471.386C409.566 472.651 408.112 473.283 406.423 473.283C404.912 473.283 403.671 472.858 402.699 472.009C401.736 471.15 401.254 470.064 401.254 468.752C401.254 467.157 401.858 465.92 403.067 465.042C404.284 464.155 405.993 463.711 408.193 463.711H410.742V462.507C410.742 461.592 410.468 460.865 409.92 460.327C409.373 459.779 408.566 459.505 407.499 459.505C406.564 459.505 405.781 459.741 405.148 460.213C404.516 460.685 404.2 461.257 404.2 461.927H401.566C401.566 461.162 401.835 460.426 402.373 459.718C402.92 459 403.657 458.434 404.582 458.019C405.516 457.603 406.541 457.396 407.655 457.396C409.42 457.396 410.803 457.839 411.804 458.727C412.804 459.604 413.323 460.818 413.361 462.366V469.417C413.361 470.824 413.541 471.943 413.899 472.773V473H411.152ZM406.805 471.003C407.626 471.003 408.405 470.791 409.141 470.366C409.878 469.941 410.411 469.389 410.742 468.709V465.566H408.688C405.479 465.566 403.874 466.505 403.874 468.384C403.874 469.205 404.148 469.847 404.695 470.31C405.243 470.772 405.946 471.003 406.805 471.003ZM420.464 473H417.844V457.679H420.464V473ZM417.632 453.615C417.632 453.19 417.759 452.831 418.014 452.539C418.278 452.246 418.665 452.1 419.175 452.1C419.685 452.1 420.072 452.246 420.336 452.539C420.601 452.831 420.733 453.19 420.733 453.615C420.733 454.04 420.601 454.394 420.336 454.677C420.072 454.96 419.685 455.102 419.175 455.102C418.665 455.102 418.278 454.96 418.014 454.677C417.759 454.394 417.632 454.04 417.632 453.615ZM427.297 457.679L427.382 459.604C428.553 458.132 430.082 457.396 431.97 457.396C435.208 457.396 436.841 459.222 436.87 462.875V473H434.25V462.861C434.241 461.757 433.986 460.94 433.485 460.412C432.994 459.883 432.225 459.619 431.177 459.619C430.328 459.619 429.582 459.845 428.94 460.298C428.298 460.751 427.798 461.346 427.439 462.083V473H424.819V457.679H427.297ZM440.333 465.212C440.333 462.861 440.89 460.973 442.004 459.548C443.118 458.113 444.576 457.396 446.379 457.396C448.173 457.396 449.594 458.009 450.642 459.236V451.25H453.261V473H450.854L450.727 471.357C449.679 472.641 448.22 473.283 446.351 473.283C444.576 473.283 443.127 472.556 442.004 471.103C440.89 469.649 440.333 467.751 440.333 465.41V465.212ZM442.953 465.509C442.953 467.246 443.311 468.606 444.029 469.587C444.746 470.569 445.738 471.06 447.003 471.06C448.664 471.06 449.877 470.314 450.642 468.823V461.785C449.858 460.341 448.655 459.619 447.031 459.619C445.747 459.619 444.746 460.114 444.029 461.105C443.311 462.097 442.953 463.565 442.953 465.509ZM466.948 473C466.797 472.698 466.675 472.16 466.58 471.386C465.362 472.651 463.909 473.283 462.219 473.283C460.709 473.283 459.467 472.858 458.495 472.009C457.532 471.15 457.05 470.064 457.05 468.752C457.05 467.157 457.655 465.92 458.863 465.042C460.081 464.155 461.789 463.711 463.989 463.711H466.538V462.507C466.538 461.592 466.264 460.865 465.716 460.327C465.169 459.779 464.362 459.505 463.295 459.505C462.361 459.505 461.577 459.741 460.945 460.213C460.312 460.685 459.996 461.257 459.996 461.927H457.362C457.362 461.162 457.631 460.426 458.169 459.718C458.717 459 459.453 458.434 460.378 458.019C461.313 457.603 462.337 457.396 463.451 457.396C465.216 457.396 466.599 457.839 467.6 458.727C468.6 459.604 469.12 460.818 469.157 462.366V469.417C469.157 470.824 469.337 471.943 469.695 472.773V473H466.948ZM462.601 471.003C463.423 471.003 464.201 470.791 464.938 470.366C465.674 469.941 466.207 469.389 466.538 468.709V465.566H464.485C461.275 465.566 459.67 466.505 459.67 468.384C459.67 469.205 459.944 469.847 460.491 470.31C461.039 470.772 461.742 471.003 462.601 471.003ZM483.235 457.679L483.32 459.604C484.491 458.132 486.02 457.396 487.908 457.396C491.146 457.396 492.779 459.222 492.808 462.875V473H490.188V462.861C490.178 461.757 489.924 460.94 489.423 460.412C488.932 459.883 488.163 459.619 487.115 459.619C486.266 459.619 485.52 459.845 484.878 460.298C484.236 460.751 483.736 461.346 483.377 462.083V473H480.757V457.679H483.235ZM506.367 473C506.216 472.698 506.093 472.16 505.999 471.386C504.781 472.651 503.327 473.283 501.638 473.283C500.127 473.283 498.886 472.858 497.914 472.009C496.951 471.15 496.469 470.064 496.469 468.752C496.469 467.157 497.073 465.92 498.282 465.042C499.5 464.155 501.208 463.711 503.408 463.711H505.957V462.507C505.957 461.592 505.683 460.865 505.135 460.327C504.588 459.779 503.781 459.505 502.714 459.505C501.779 459.505 500.996 459.741 500.363 460.213C499.731 460.685 499.415 461.257 499.415 461.927H496.781C496.781 461.162 497.05 460.426 497.588 459.718C498.135 459 498.872 458.434 499.797 458.019C500.731 457.603 501.756 457.396 502.87 457.396C504.635 457.396 506.018 457.839 507.019 458.727C508.019 459.604 508.538 460.818 508.576 462.366V469.417C508.576 470.824 508.756 471.943 509.114 472.773V473H506.367ZM502.02 471.003C502.841 471.003 503.62 470.791 504.356 470.366C505.093 469.941 505.626 469.389 505.957 468.709V465.566H503.903C500.694 465.566 499.089 466.505 499.089 468.384C499.089 469.205 499.363 469.847 499.91 470.31C500.458 470.772 501.161 471.003 502.02 471.003ZM508.18 451.703C508.18 452.723 507.887 453.549 507.302 454.181C506.726 454.814 506.004 455.13 505.135 455.13C504.748 455.13 504.413 455.083 504.13 454.988C503.847 454.894 503.474 454.7 503.011 454.408C502.558 454.115 502.228 453.94 502.02 453.884C501.822 453.818 501.59 453.785 501.326 453.785C500.939 453.785 500.609 453.936 500.335 454.238C500.061 454.53 499.924 454.908 499.924 455.371L498.168 455.271C498.168 454.261 498.452 453.426 499.018 452.765C499.594 452.104 500.321 451.774 501.199 451.774C501.529 451.774 501.826 451.821 502.091 451.916C502.355 452.01 502.714 452.194 503.167 452.468C503.62 452.742 503.965 452.921 504.201 453.006C504.446 453.091 504.715 453.133 505.008 453.133C505.414 453.133 505.749 452.973 506.013 452.652C506.287 452.331 506.424 451.958 506.424 451.533L508.18 451.703ZM512.139 465.198C512.139 463.697 512.431 462.347 513.017 461.148C513.611 459.949 514.433 459.024 515.481 458.373C516.538 457.721 517.741 457.396 519.091 457.396C521.178 457.396 522.863 458.118 524.147 459.562C525.44 461.006 526.087 462.927 526.087 465.325V465.509C526.087 467.001 525.799 468.341 525.223 469.531C524.656 470.711 523.84 471.631 522.773 472.292C521.716 472.953 520.498 473.283 519.12 473.283C517.043 473.283 515.358 472.561 514.065 471.117C512.781 469.672 512.139 467.761 512.139 465.382V465.198ZM514.773 465.509C514.773 467.208 515.164 468.573 515.948 469.602C516.741 470.631 517.798 471.145 519.12 471.145C520.451 471.145 521.508 470.626 522.292 469.587C523.075 468.54 523.467 467.076 523.467 465.198C523.467 463.517 523.066 462.158 522.263 461.12C521.47 460.072 520.413 459.548 519.091 459.548C517.798 459.548 516.755 460.062 515.962 461.091C515.169 462.12 514.773 463.593 514.773 465.509ZM543.223 473.283C541.146 473.283 539.456 472.604 538.154 471.244C536.851 469.875 536.2 468.049 536.2 465.764V465.283C536.2 463.763 536.487 462.408 537.063 461.219C537.649 460.02 538.46 459.085 539.499 458.415C540.547 457.735 541.68 457.396 542.897 457.396C544.889 457.396 546.437 458.052 547.542 459.364C548.646 460.676 549.199 462.555 549.199 465V466.09H538.819C538.857 467.6 539.296 468.823 540.136 469.757C540.986 470.682 542.062 471.145 543.365 471.145C544.29 471.145 545.073 470.956 545.715 470.579C546.357 470.201 546.919 469.701 547.4 469.078L549 470.324C547.716 472.297 545.791 473.283 543.223 473.283ZM542.897 459.548C541.84 459.548 540.953 459.935 540.235 460.709C539.518 461.474 539.074 462.55 538.904 463.938H546.579V463.739C546.503 462.408 546.145 461.379 545.503 460.652C544.861 459.916 543.992 459.548 542.897 459.548ZM561.314 468.936C561.314 468.228 561.045 467.681 560.507 467.293C559.978 466.897 559.048 466.557 557.717 466.274C556.396 465.991 555.343 465.651 554.559 465.254C553.785 464.858 553.21 464.386 552.832 463.838C552.464 463.291 552.28 462.639 552.28 461.884C552.28 460.629 552.808 459.567 553.866 458.698C554.932 457.83 556.292 457.396 557.944 457.396C559.681 457.396 561.087 457.844 562.163 458.741C563.249 459.638 563.792 460.785 563.792 462.182H561.158C561.158 461.464 560.851 460.846 560.238 460.327C559.634 459.807 558.869 459.548 557.944 459.548C556.99 459.548 556.245 459.756 555.706 460.171C555.168 460.586 554.899 461.129 554.899 461.799C554.899 462.432 555.149 462.909 555.65 463.229C556.15 463.55 557.052 463.857 558.354 464.15C559.667 464.443 560.729 464.792 561.54 465.198C562.352 465.604 562.952 466.095 563.339 466.67C563.735 467.237 563.933 467.931 563.933 468.752C563.933 470.121 563.386 471.221 562.291 472.051C561.196 472.873 559.775 473.283 558.029 473.283C556.801 473.283 555.716 473.066 554.772 472.632C553.828 472.198 553.087 471.593 552.549 470.819C552.02 470.036 551.756 469.191 551.756 468.285H554.375C554.423 469.163 554.772 469.861 555.423 470.38C556.084 470.89 556.953 471.145 558.029 471.145C559.02 471.145 559.813 470.947 560.408 470.55C561.012 470.144 561.314 469.606 561.314 468.936ZM571.05 453.969V457.679H573.911V459.704H571.05V469.205C571.05 469.819 571.178 470.281 571.433 470.593C571.688 470.895 572.122 471.046 572.735 471.046C573.037 471.046 573.453 470.989 573.981 470.876V473C573.292 473.189 572.622 473.283 571.971 473.283C570.8 473.283 569.917 472.929 569.323 472.221C568.728 471.513 568.431 470.508 568.431 469.205V459.704H565.641V457.679H568.431V453.969H571.05ZM586.592 473C586.441 472.698 586.319 472.16 586.224 471.386C585.006 472.651 583.553 473.283 581.863 473.283C580.352 473.283 579.111 472.858 578.139 472.009C577.176 471.15 576.694 470.064 576.694 468.752C576.694 467.157 577.299 465.92 578.507 465.042C579.725 464.155 581.433 463.711 583.633 463.711H586.182V462.507C586.182 461.592 585.908 460.865 585.36 460.327C584.813 459.779 584.006 459.505 582.939 459.505C582.005 459.505 581.221 459.741 580.589 460.213C579.956 460.685 579.64 461.257 579.64 461.927H577.006C577.006 461.162 577.275 460.426 577.813 459.718C578.361 459 579.097 458.434 580.022 458.019C580.957 457.603 581.981 457.396 583.095 457.396C584.86 457.396 586.243 457.839 587.244 458.727C588.244 459.604 588.764 460.818 588.801 462.366V469.417C588.801 470.824 588.981 471.943 589.339 472.773V473H586.592ZM582.245 471.003C583.067 471.003 583.845 470.791 584.582 470.366C585.318 469.941 585.851 469.389 586.182 468.709V465.566H584.129C580.919 465.566 579.314 466.505 579.314 468.384C579.314 469.205 579.588 469.847 580.135 470.31C580.683 470.772 581.386 471.003 582.245 471.003ZM584.667 451.25H587.839L584.044 455.413H581.934L584.667 451.25ZM599.764 465.212C599.764 462.861 600.321 460.973 601.435 459.548C602.549 458.113 604.007 457.396 605.81 457.396C607.604 457.396 609.025 458.009 610.073 459.236V451.25H612.692V473H610.285L610.158 471.357C609.11 472.641 607.651 473.283 605.782 473.283C604.007 473.283 602.558 472.556 601.435 471.103C600.321 469.649 599.764 467.751 599.764 465.41V465.212ZM602.384 465.509C602.384 467.246 602.742 468.606 603.46 469.587C604.177 470.569 605.168 471.06 606.433 471.06C608.095 471.06 609.308 470.314 610.073 468.823V461.785C609.289 460.341 608.085 459.619 606.462 459.619C605.178 459.619 604.177 460.114 603.46 461.105C602.742 462.097 602.384 463.565 602.384 465.509ZM619.766 473H617.147V457.679H619.766V473ZM616.934 453.615C616.934 453.19 617.062 452.831 617.317 452.539C617.581 452.246 617.968 452.1 618.478 452.1C618.988 452.1 619.375 452.246 619.639 452.539C619.903 452.831 620.036 453.19 620.036 453.615C620.036 454.04 619.903 454.394 619.639 454.677C619.375 454.96 618.988 455.102 618.478 455.102C617.968 455.102 617.581 454.96 617.317 454.677C617.062 454.394 616.934 454.04 616.934 453.615ZM633.043 468.936C633.043 468.228 632.774 467.681 632.236 467.293C631.707 466.897 630.777 466.557 629.446 466.274C628.125 465.991 627.072 465.651 626.289 465.254C625.514 464.858 624.939 464.386 624.561 463.838C624.193 463.291 624.009 462.639 624.009 461.884C624.009 460.629 624.537 459.567 625.595 458.698C626.661 457.83 628.021 457.396 629.673 457.396C631.41 457.396 632.816 457.844 633.893 458.741C634.978 459.638 635.521 460.785 635.521 462.182H632.887C632.887 461.464 632.58 460.846 631.967 460.327C631.363 459.807 630.598 459.548 629.673 459.548C628.719 459.548 627.974 459.756 627.436 460.171C626.897 460.586 626.628 461.129 626.628 461.799C626.628 462.432 626.879 462.909 627.379 463.229C627.879 463.55 628.781 463.857 630.083 464.15C631.396 464.443 632.458 464.792 633.27 465.198C634.081 465.604 634.681 466.095 635.068 466.67C635.464 467.237 635.663 467.931 635.663 468.752C635.663 470.121 635.115 471.221 634.02 472.051C632.925 472.873 631.504 473.283 629.758 473.283C628.531 473.283 627.445 473.066 626.501 472.632C625.557 472.198 624.816 471.593 624.278 470.819C623.749 470.036 623.485 469.191 623.485 468.285H626.104C626.152 469.163 626.501 469.861 627.152 470.38C627.813 470.89 628.682 471.145 629.758 471.145C630.749 471.145 631.542 470.947 632.137 470.55C632.741 470.144 633.043 469.606 633.043 468.936ZM652.168 465.509C652.168 467.841 651.634 469.72 650.568 471.145C649.501 472.57 648.056 473.283 646.234 473.283C644.375 473.283 642.912 472.693 641.845 471.513V478.891H639.225V457.679H641.618L641.746 459.378C642.812 458.056 644.295 457.396 646.192 457.396C648.033 457.396 649.487 458.089 650.553 459.477C651.63 460.865 652.168 462.795 652.168 465.269V465.509ZM649.548 465.212C649.548 463.484 649.18 462.12 648.443 461.12C647.707 460.119 646.697 459.619 645.413 459.619C643.827 459.619 642.638 460.322 641.845 461.729V469.049C642.628 470.446 643.827 471.145 645.442 471.145C646.697 471.145 647.693 470.649 648.429 469.658C649.175 468.658 649.548 467.175 649.548 465.212ZM654.966 465.198C654.966 463.697 655.258 462.347 655.843 461.148C656.438 459.949 657.259 459.024 658.307 458.373C659.365 457.721 660.568 457.396 661.918 457.396C664.004 457.396 665.689 458.118 666.973 459.562C668.267 461.006 668.913 462.927 668.913 465.325V465.509C668.913 467.001 668.625 468.341 668.049 469.531C667.483 470.711 666.667 471.631 665.6 472.292C664.543 472.953 663.325 473.283 661.946 473.283C659.87 473.283 658.185 472.561 656.891 471.117C655.607 469.672 654.966 467.761 654.966 465.382V465.198ZM657.599 465.509C657.599 467.208 657.991 468.573 658.775 469.602C659.568 470.631 660.625 471.145 661.946 471.145C663.278 471.145 664.335 470.626 665.118 469.587C665.902 468.54 666.294 467.076 666.294 465.198C666.294 463.517 665.892 462.158 665.09 461.12C664.297 460.072 663.24 459.548 661.918 459.548C660.625 459.548 659.582 460.062 658.789 461.091C657.996 462.12 657.599 463.593 657.599 465.509ZM674.826 457.679L674.911 459.604C676.082 458.132 677.611 457.396 679.499 457.396C682.737 457.396 684.37 459.222 684.399 462.875V473H681.779V462.861C681.77 461.757 681.515 460.94 681.014 460.412C680.524 459.883 679.754 459.619 678.706 459.619C677.857 459.619 677.111 459.845 676.469 460.298C675.827 460.751 675.327 461.346 674.968 462.083V473H672.348V457.679H674.826ZM691.346 473H688.712V457.679H691.346V473ZM691.374 451.264H694.546L690.751 455.427H688.641L691.374 451.264ZM700.87 469.446L704.665 457.679H707.341L701.847 473H699.85L694.299 457.679H696.976L700.87 469.446ZM716.171 473.283C714.094 473.283 712.404 472.604 711.102 471.244C709.799 469.875 709.148 468.049 709.148 465.764V465.283C709.148 463.763 709.436 462.408 710.011 461.219C710.597 460.02 711.408 459.085 712.447 458.415C713.495 457.735 714.628 457.396 715.845 457.396C717.837 457.396 719.385 458.052 720.49 459.364C721.594 460.676 722.147 462.555 722.147 465V466.09H711.767C711.805 467.6 712.244 468.823 713.084 469.757C713.934 470.682 715.01 471.145 716.313 471.145C717.238 471.145 718.021 470.956 718.663 470.579C719.305 470.201 719.867 469.701 720.348 469.078L721.948 470.324C720.665 472.297 718.739 473.283 716.171 473.283ZM715.845 459.548C714.788 459.548 713.901 459.935 713.183 460.709C712.466 461.474 712.022 462.55 711.852 463.938H719.527V463.739C719.451 462.408 719.093 461.379 718.451 460.652C717.809 459.916 716.94 459.548 715.845 459.548ZM728.187 473H725.568V451.25H728.187V473ZM732.599 471.626C732.599 471.173 732.732 470.796 732.996 470.494C733.27 470.192 733.676 470.041 734.214 470.041C734.752 470.041 735.158 470.192 735.431 470.494C735.715 470.796 735.856 471.173 735.856 471.626C735.856 472.061 735.715 472.424 735.431 472.717C735.158 473.009 734.752 473.156 734.214 473.156C733.676 473.156 733.27 473.009 732.996 472.717C732.732 472.424 732.599 472.061 732.599 471.626Z" fill="black" fill-opacity="0.54"/>
  <path d="M7.95459 504.66H3.11182V513H0.378906V492.383H7.2041C9.52637 492.383 11.3105 492.911 12.5566 493.969C13.8122 495.026 14.4399 496.565 14.4399 498.585C14.4399 499.869 14.0907 500.987 13.3921 501.941C12.703 502.894 11.7401 503.607 10.5034 504.079L15.3462 512.83V513H12.4292L7.95459 504.66ZM3.11182 502.437H7.28906C8.639 502.437 9.71045 502.087 10.5034 501.389C11.3058 500.69 11.707 499.756 11.707 498.585C11.707 497.311 11.3247 496.333 10.5601 495.654C9.80485 494.974 8.7098 494.63 7.2749 494.62H3.11182V502.437ZM24.3604 513.283C22.2836 513.283 20.5938 512.604 19.2911 511.244C17.9884 509.875 17.337 508.049 17.337 505.764V505.283C17.337 503.763 17.6249 502.408 18.2008 501.219C18.7861 500.02 19.5979 499.085 20.6363 498.415C21.6842 497.735 22.817 497.396 24.0348 497.396C26.0266 497.396 27.5748 498.052 28.6793 499.364C29.7838 500.676 30.336 502.555 30.336 505V506.09H19.9566C19.9944 507.6 20.4334 508.823 21.2735 509.757C22.1231 510.682 23.1993 511.145 24.5021 511.145C25.4272 511.145 26.2107 510.956 26.8526 510.579C27.4946 510.201 28.0562 509.701 28.5377 509.078L30.1378 510.324C28.8539 512.297 26.9282 513.283 24.3604 513.283ZM24.0348 499.548C22.9775 499.548 22.0901 499.935 21.3727 500.709C20.6552 501.474 20.2115 502.55 20.0416 503.938H27.7164V503.739C27.6409 502.408 27.2822 501.379 26.6402 500.652C25.9983 499.916 25.1298 499.548 24.0348 499.548ZM32.9074 505.212C32.9074 502.824 33.4597 500.926 34.5642 499.52C35.6687 498.104 37.1319 497.396 38.9538 497.396C40.8229 497.396 42.2814 498.056 43.3293 499.378L43.4567 497.679H45.8498V512.632C45.8498 514.614 45.2598 516.177 44.0798 517.319C42.9092 518.461 41.3327 519.032 39.3503 519.032C38.2458 519.032 37.1649 518.796 36.1076 518.324C35.0503 517.852 34.2432 517.206 33.6862 516.384L35.0456 514.812C36.169 516.2 37.5425 516.894 39.1662 516.894C40.4406 516.894 41.4318 516.535 42.1398 515.818C42.8573 515.1 43.216 514.09 43.216 512.788V511.471C42.1682 512.679 40.738 513.283 38.9255 513.283C37.1319 513.283 35.6781 512.561 34.5642 511.117C33.4597 509.672 32.9074 507.704 32.9074 505.212ZM35.5412 505.509C35.5412 507.237 35.8952 508.596 36.6032 509.587C37.3112 510.569 38.3024 511.06 39.5769 511.06C41.2289 511.06 42.4419 510.31 43.216 508.809V501.813C42.4136 500.35 41.21 499.619 39.6052 499.619C38.3308 499.619 37.3348 500.114 36.6174 501.105C35.8999 502.097 35.5412 503.565 35.5412 505.509ZM52.8108 513H50.1912V497.679H52.8108V513ZM49.9788 493.615C49.9788 493.19 50.1063 492.831 50.3611 492.539C50.6255 492.246 51.0125 492.1 51.5223 492.1C52.032 492.1 52.4191 492.246 52.6834 492.539C52.9477 492.831 53.0799 493.19 53.0799 493.615C53.0799 494.04 52.9477 494.394 52.6834 494.677C52.4191 494.96 52.032 495.102 51.5223 495.102C51.0125 495.102 50.6255 494.96 50.3611 494.677C50.1063 494.394 49.9788 494.04 49.9788 493.615ZM66.0873 508.936C66.0873 508.228 65.8183 507.681 65.2802 507.293C64.7515 506.897 63.8217 506.557 62.4906 506.274C61.169 505.991 60.1164 505.651 59.3329 505.254C58.5588 504.858 57.983 504.386 57.6054 503.838C57.2372 503.291 57.0531 502.639 57.0531 501.884C57.0531 500.629 57.5818 499.567 58.6391 498.698C59.7058 497.83 61.0652 497.396 62.7172 497.396C64.4542 497.396 65.8607 497.844 66.9369 498.741C68.0225 499.638 68.5653 500.785 68.5653 502.182H65.9315C65.9315 501.464 65.6247 500.846 65.0111 500.327C64.407 499.807 63.6423 499.548 62.7172 499.548C61.7637 499.548 61.018 499.756 60.4799 500.171C59.9418 500.586 59.6728 501.129 59.6728 501.799C59.6728 502.432 59.9229 502.909 60.4232 503.229C60.9236 503.55 61.8251 503.857 63.1278 504.15C64.44 504.443 65.502 504.792 66.3139 505.198C67.1257 505.604 67.7252 506.095 68.1122 506.67C68.5087 507.237 68.7069 507.931 68.7069 508.752C68.7069 510.121 68.1594 511.221 67.0644 512.051C65.9693 512.873 64.5486 513.283 62.8021 513.283C61.5749 513.283 60.4893 513.066 59.5453 512.632C58.6013 512.198 57.8603 511.593 57.3222 510.819C56.7935 510.036 56.5292 509.191 56.5292 508.285H59.1488C59.196 509.163 59.5453 509.861 60.1967 510.38C60.8575 510.89 61.726 511.145 62.8021 511.145C63.7934 511.145 64.5863 510.947 65.1811 510.55C65.7852 510.144 66.0873 509.606 66.0873 508.936ZM75.8237 493.969V497.679H78.6841V499.704H75.8237V509.205C75.8237 509.819 75.9512 510.281 76.2061 510.593C76.4609 510.895 76.8952 511.046 77.5088 511.046C77.8109 511.046 78.2262 510.989 78.7549 510.876V513C78.0658 513.189 77.3955 513.283 76.7441 513.283C75.5736 513.283 74.6909 512.929 74.0962 512.221C73.5015 511.513 73.2041 510.508 73.2041 509.205V499.704H70.4146V497.679H73.2041V493.969H75.8237ZM89.3126 500.029C88.9161 499.963 88.4866 499.93 88.024 499.93C86.3059 499.93 85.1401 500.662 84.5265 502.125V513H81.9068V497.679H84.4557L84.4981 499.449C85.3572 498.08 86.575 497.396 88.1515 497.396C88.6612 497.396 89.0483 497.462 89.3126 497.594V500.029ZM97.9587 513.283C95.8819 513.283 94.1921 512.604 92.8894 511.244C91.5866 509.875 90.9353 508.049 90.9353 505.764V505.283C90.9353 503.763 91.2232 502.408 91.799 501.219C92.3843 500.02 93.1962 499.085 94.2346 498.415C95.2824 497.735 96.4152 497.396 97.633 497.396C99.6249 497.396 101.173 498.052 102.278 499.364C103.382 500.676 103.934 502.555 103.934 505V506.09H93.5549C93.5926 507.6 94.0316 508.823 94.8718 509.757C95.7214 510.682 96.7976 511.145 98.1003 511.145C99.0254 511.145 99.809 510.956 100.451 510.579C101.093 510.201 101.654 509.701 102.136 509.078L103.736 510.324C102.452 512.297 100.526 513.283 97.9587 513.283ZM97.633 499.548C96.5757 499.548 95.6883 499.935 94.9709 500.709C94.2535 501.474 93.8098 502.55 93.6398 503.938H101.315V503.739C101.239 502.408 100.88 501.379 100.238 500.652C99.5966 499.916 98.7281 499.548 97.633 499.548ZM123.931 511.485C122.912 512.684 121.415 513.283 119.442 513.283C117.809 513.283 116.563 512.811 115.704 511.867C114.854 510.914 114.425 509.507 114.415 507.647V497.679H117.035V507.577C117.035 509.899 117.979 511.06 119.867 511.06C121.868 511.06 123.199 510.314 123.86 508.823V497.679H126.48V513H123.988L123.931 511.485ZM133.087 497.679L133.158 499.378C134.281 498.056 135.796 497.396 137.703 497.396C139.846 497.396 141.305 498.217 142.079 499.859C142.588 499.123 143.249 498.528 144.061 498.075C144.882 497.622 145.85 497.396 146.964 497.396C150.325 497.396 152.033 499.175 152.09 502.734V513H149.47V502.89C149.47 501.795 149.22 500.978 148.72 500.44C148.219 499.892 147.379 499.619 146.199 499.619C145.227 499.619 144.42 499.911 143.778 500.497C143.136 501.072 142.763 501.851 142.659 502.833V513H140.025V502.96C140.025 500.733 138.935 499.619 136.754 499.619C135.036 499.619 133.861 500.35 133.229 501.813V513H130.609V497.679H133.087ZM166.026 497.679L166.111 499.604C167.282 498.132 168.811 497.396 170.699 497.396C173.937 497.396 175.57 499.222 175.598 502.875V513H172.979V502.861C172.969 501.757 172.714 500.94 172.214 500.412C171.723 499.883 170.954 499.619 169.906 499.619C169.056 499.619 168.311 499.845 167.669 500.298C167.027 500.751 166.526 501.346 166.168 502.083V513H163.548V497.679H166.026ZM179.005 505.198C179.005 503.697 179.298 502.347 179.883 501.148C180.478 499.949 181.299 499.024 182.347 498.373C183.404 497.721 184.608 497.396 185.958 497.396C188.044 497.396 189.729 498.118 191.013 499.562C192.306 501.006 192.953 502.927 192.953 505.325V505.509C192.953 507.001 192.665 508.341 192.089 509.531C191.523 510.711 190.706 511.631 189.639 512.292C188.582 512.953 187.364 513.283 185.986 513.283C183.909 513.283 182.224 512.561 180.931 511.117C179.647 509.672 179.005 507.761 179.005 505.382V505.198ZM181.639 505.509C181.639 507.208 182.031 508.573 182.814 509.602C183.607 510.631 184.665 511.145 185.986 511.145C187.317 511.145 188.374 510.626 189.158 509.587C189.942 508.54 190.333 507.076 190.333 505.198C190.333 503.517 189.932 502.158 189.13 501.12C188.337 500.072 187.279 499.548 185.958 499.548C184.665 499.548 183.621 500.062 182.828 501.091C182.035 502.12 181.639 503.593 181.639 505.509ZM201.217 509.446L205.012 497.679H207.688L202.194 513H200.197L194.646 497.679H197.323L201.217 509.446ZM209.438 505.198C209.438 503.697 209.731 502.347 210.316 501.148C210.911 499.949 211.732 499.024 212.78 498.373C213.837 497.721 215.041 497.396 216.391 497.396C218.477 497.396 220.162 498.118 221.446 499.562C222.739 501.006 223.386 502.927 223.386 505.325V505.509C223.386 507.001 223.098 508.341 222.522 509.531C221.956 510.711 221.139 511.631 220.072 512.292C219.015 512.953 217.797 513.283 216.419 513.283C214.342 513.283 212.657 512.561 211.364 511.117C210.08 509.672 209.438 507.761 209.438 505.382V505.198ZM212.072 505.509C212.072 507.208 212.464 508.573 213.247 509.602C214.04 510.631 215.097 511.145 216.419 511.145C217.75 511.145 218.807 510.626 219.591 509.587C220.374 508.54 220.766 507.076 220.766 505.198C220.766 503.517 220.365 502.158 219.562 501.12C218.77 500.072 217.712 499.548 216.391 499.548C215.097 499.548 214.054 500.062 213.261 501.091C212.468 502.12 212.072 503.593 212.072 505.509ZM247.107 505.509C247.107 507.841 246.573 509.72 245.507 511.145C244.44 512.57 242.995 513.283 241.174 513.283C239.314 513.283 237.851 512.693 236.784 511.513V518.891H234.164V497.679H236.557L236.685 499.378C237.752 498.056 239.234 497.396 241.131 497.396C242.972 497.396 244.426 498.089 245.492 499.477C246.569 500.865 247.107 502.795 247.107 505.269V505.509ZM244.487 505.212C244.487 503.484 244.119 502.12 243.383 501.12C242.646 500.119 241.636 499.619 240.352 499.619C238.766 499.619 237.577 500.322 236.784 501.729V509.049C237.567 510.446 238.766 511.145 240.381 511.145C241.636 511.145 242.632 510.649 243.368 509.658C244.114 508.658 244.487 507.175 244.487 505.212ZM260.057 513C259.906 512.698 259.784 512.16 259.689 511.386C258.471 512.651 257.018 513.283 255.328 513.283C253.818 513.283 252.576 512.858 251.604 512.009C250.641 511.15 250.159 510.064 250.159 508.752C250.159 507.157 250.764 505.92 251.972 505.042C253.19 504.155 254.898 503.711 257.098 503.711H259.647V502.507C259.647 501.592 259.373 500.865 258.825 500.327C258.278 499.779 257.471 499.505 256.404 499.505C255.47 499.505 254.686 499.741 254.054 500.213C253.421 500.685 253.105 501.257 253.105 501.927H250.471C250.471 501.162 250.74 500.426 251.278 499.718C251.826 499 252.562 498.434 253.487 498.019C254.422 497.603 255.446 497.396 256.56 497.396C258.325 497.396 259.708 497.839 260.709 498.727C261.709 499.604 262.229 500.818 262.266 502.366V509.417C262.266 510.824 262.446 511.943 262.804 512.773V513H260.057ZM255.71 511.003C256.532 511.003 257.31 510.791 258.047 510.366C258.783 509.941 259.316 509.389 259.647 508.709V505.566H257.594C254.384 505.566 252.779 506.505 252.779 508.384C252.779 509.205 253.053 509.847 253.6 510.31C254.148 510.772 254.851 511.003 255.71 511.003ZM272.668 511.145C273.603 511.145 274.42 510.862 275.118 510.295C275.817 509.729 276.204 509.021 276.279 508.171H278.757C278.71 509.049 278.408 509.885 277.851 510.678C277.294 511.471 276.548 512.103 275.614 512.575C274.689 513.047 273.707 513.283 272.668 513.283C270.582 513.283 268.921 512.589 267.684 511.202C266.457 509.805 265.843 507.898 265.843 505.481V505.042C265.843 503.55 266.117 502.224 266.664 501.063C267.212 499.902 267.996 499 269.015 498.358C270.044 497.716 271.257 497.396 272.654 497.396C274.372 497.396 275.798 497.91 276.931 498.939C278.073 499.968 278.682 501.304 278.757 502.946H276.279C276.204 501.955 275.826 501.143 275.146 500.511C274.476 499.869 273.645 499.548 272.654 499.548C271.323 499.548 270.289 500.029 269.553 500.992C268.826 501.946 268.463 503.329 268.463 505.141V505.637C268.463 507.402 268.826 508.761 269.553 509.715C270.28 510.668 271.318 511.145 272.668 511.145ZM284.699 513H282.079V497.679H284.699V513ZM281.867 493.615C281.867 493.19 281.994 492.831 282.249 492.539C282.513 492.246 282.9 492.1 283.41 492.1C283.92 492.1 284.307 492.246 284.571 492.539C284.836 492.831 284.968 493.19 284.968 493.615C284.968 494.04 284.836 494.394 284.571 494.677C284.307 494.96 283.92 495.102 283.41 495.102C282.9 495.102 282.513 494.96 282.249 494.677C281.994 494.394 281.867 494.04 281.867 493.615ZM295.412 513.283C293.335 513.283 291.646 512.604 290.343 511.244C289.04 509.875 288.389 508.049 288.389 505.764V505.283C288.389 503.763 288.677 502.408 289.253 501.219C289.838 500.02 290.65 499.085 291.688 498.415C292.736 497.735 293.869 497.396 295.087 497.396C297.078 497.396 298.627 498.052 299.731 499.364C300.836 500.676 301.388 502.555 301.388 505V506.09H291.008C291.046 507.6 291.485 508.823 292.325 509.757C293.175 510.682 294.251 511.145 295.554 511.145C296.479 511.145 297.262 510.956 297.904 510.579C298.546 510.201 299.108 509.701 299.589 509.078L301.19 510.324C299.906 512.297 297.98 513.283 295.412 513.283ZM295.087 499.548C294.029 499.548 293.142 499.935 292.424 500.709C291.707 501.474 291.263 502.55 291.093 503.938H298.768V503.739C298.693 502.408 298.334 501.379 297.692 500.652C297.05 499.916 296.182 499.548 295.087 499.548ZM307.06 497.679L307.145 499.604C308.316 498.132 309.845 497.396 311.733 497.396C314.971 497.396 316.604 499.222 316.633 502.875V513H314.013V502.861C314.003 501.757 313.749 500.94 313.248 500.412C312.757 499.883 311.988 499.619 310.94 499.619C310.091 499.619 309.345 499.845 308.703 500.298C308.061 500.751 307.561 501.346 307.202 502.083V513H304.582V497.679H307.06ZM324.287 493.969V497.679H327.148V499.704H324.287V509.205C324.287 509.819 324.415 510.281 324.67 510.593C324.925 510.895 325.359 511.046 325.972 511.046C326.275 511.046 326.69 510.989 327.219 510.876V513C326.529 513.189 325.859 513.283 325.208 513.283C324.037 513.283 323.155 512.929 322.56 512.221C321.965 511.513 321.668 510.508 321.668 509.205V499.704H318.878V497.679H321.668V493.969H324.287ZM336.728 513.283C334.652 513.283 332.962 512.604 331.659 511.244C330.356 509.875 329.705 508.049 329.705 505.764V505.283C329.705 503.763 329.993 502.408 330.569 501.219C331.154 500.02 331.966 499.085 333.004 498.415C334.052 497.735 335.185 497.396 336.403 497.396C338.395 497.396 339.943 498.052 341.047 499.364C342.152 500.676 342.704 502.555 342.704 505V506.09H332.325C332.362 507.6 332.801 508.823 333.642 509.757C334.491 510.682 335.567 511.145 336.87 511.145C337.795 511.145 338.579 510.956 339.221 510.579C339.863 510.201 340.424 509.701 340.906 509.078L342.506 510.324C341.222 512.297 339.296 513.283 336.728 513.283ZM336.403 499.548C335.345 499.548 334.458 499.935 333.741 500.709C333.023 501.474 332.579 502.55 332.41 503.938H340.084V503.739C340.009 502.408 339.65 501.379 339.008 500.652C338.366 499.916 337.498 499.548 336.403 499.548ZM366.184 505.509C366.184 507.841 365.651 509.72 364.584 511.145C363.517 512.57 362.073 513.283 360.251 513.283C358.391 513.283 356.928 512.693 355.861 511.513V518.891H353.242V497.679H355.635L355.762 499.378C356.829 498.056 358.311 497.396 360.209 497.396C362.049 497.396 363.503 498.089 364.57 499.477C365.646 500.865 366.184 502.795 366.184 505.269V505.509ZM363.565 505.212C363.565 503.484 363.196 502.12 362.46 501.12C361.724 500.119 360.714 499.619 359.43 499.619C357.844 499.619 356.654 500.322 355.861 501.729V509.049C356.645 510.446 357.844 511.145 359.458 511.145C360.714 511.145 361.71 510.649 362.446 509.658C363.192 508.658 363.565 507.175 363.565 505.212ZM379.135 513C378.984 512.698 378.861 512.16 378.767 511.386C377.549 512.651 376.095 513.283 374.405 513.283C372.895 513.283 371.654 512.858 370.681 512.009C369.718 511.15 369.237 510.064 369.237 508.752C369.237 507.157 369.841 505.92 371.049 505.042C372.267 504.155 373.976 503.711 376.175 503.711H378.724V502.507C378.724 501.592 378.451 500.865 377.903 500.327C377.355 499.779 376.548 499.505 375.482 499.505C374.547 499.505 373.764 499.741 373.131 500.213C372.499 500.685 372.182 501.257 372.182 501.927H369.549C369.549 501.162 369.818 500.426 370.356 499.718C370.903 499 371.64 498.434 372.565 498.019C373.499 497.603 374.523 497.396 375.637 497.396C377.403 497.396 378.786 497.839 379.786 498.727C380.787 499.604 381.306 500.818 381.344 502.366V509.417C381.344 510.824 381.523 511.943 381.882 512.773V513H379.135ZM374.788 511.003C375.609 511.003 376.388 510.791 377.124 510.366C377.861 509.941 378.394 509.389 378.724 508.709V505.566H376.671C373.461 505.566 371.857 506.505 371.857 508.384C371.857 509.205 372.13 509.847 372.678 510.31C373.225 510.772 373.929 511.003 374.788 511.003ZM393.006 500.029C392.61 499.963 392.18 499.93 391.718 499.93C389.999 499.93 388.834 500.662 388.22 502.125V513H385.6V497.679H388.149L388.192 499.449C389.051 498.08 390.269 497.396 391.845 497.396C392.355 497.396 392.742 497.462 393.006 497.594V500.029ZM404.47 513C404.319 512.698 404.196 512.16 404.102 511.386C402.884 512.651 401.43 513.283 399.741 513.283C398.23 513.283 396.989 512.858 396.017 512.009C395.054 511.15 394.572 510.064 394.572 508.752C394.572 507.157 395.176 505.92 396.385 505.042C397.602 504.155 399.311 503.711 401.511 503.711H404.059V502.507C404.059 501.592 403.786 500.865 403.238 500.327C402.691 499.779 401.884 499.505 400.817 499.505C399.882 499.505 399.099 499.741 398.466 500.213C397.834 500.685 397.517 501.257 397.517 501.927H394.884C394.884 501.162 395.153 500.426 395.691 499.718C396.238 499 396.975 498.434 397.9 498.019C398.834 497.603 399.859 497.396 400.973 497.396C402.738 497.396 404.121 497.839 405.121 498.727C406.122 499.604 406.641 500.818 406.679 502.366V509.417C406.679 510.824 406.858 511.943 407.217 512.773V513H404.47ZM400.123 511.003C400.944 511.003 401.723 510.791 402.459 510.366C403.196 509.941 403.729 509.389 404.059 508.709V505.566H402.006C398.797 505.566 397.192 506.505 397.192 508.384C397.192 509.205 397.466 509.847 398.013 510.31C398.561 510.772 399.264 511.003 400.123 511.003ZM420.899 499.534C422.06 498.108 423.57 497.396 425.43 497.396C428.668 497.396 430.301 499.222 430.329 502.875V513H427.71V502.861C427.7 501.757 427.445 500.94 426.945 500.412C426.454 499.883 425.685 499.619 424.637 499.619C423.787 499.619 423.041 499.845 422.4 500.298C421.758 500.751 421.257 501.346 420.899 502.083V513H418.279V491.25H420.899V499.534ZM443.861 513C443.709 512.698 443.587 512.16 443.492 511.386C442.275 512.651 440.821 513.283 439.131 513.283C437.621 513.283 436.379 512.858 435.407 512.009C434.444 511.15 433.963 510.064 433.963 508.752C433.963 507.157 434.567 505.92 435.775 505.042C436.993 504.155 438.702 503.711 440.901 503.711H443.45V502.507C443.45 501.592 443.176 500.865 442.629 500.327C442.081 499.779 441.274 499.505 440.207 499.505C439.273 499.505 438.489 499.741 437.857 500.213C437.224 500.685 436.908 501.257 436.908 501.927H434.274C434.274 501.162 434.543 500.426 435.081 499.718C435.629 499 436.365 498.434 437.29 498.019C438.225 497.603 439.249 497.396 440.363 497.396C442.128 497.396 443.511 497.839 444.512 498.727C445.513 499.604 446.032 500.818 446.07 502.366V509.417C446.07 510.824 446.249 511.943 446.608 512.773V513H443.861ZM439.513 511.003C440.335 511.003 441.113 510.791 441.85 510.366C442.586 509.941 443.119 509.389 443.45 508.709V505.566H441.397C438.187 505.566 436.582 506.505 436.582 508.384C436.582 509.205 436.856 509.847 437.404 510.31C437.951 510.772 438.654 511.003 439.513 511.003ZM463.297 505.509C463.297 507.85 462.759 509.734 461.682 511.159C460.606 512.575 459.162 513.283 457.349 513.283C455.414 513.283 453.918 512.599 452.861 511.23L452.733 513H450.326V491.25H452.946V499.364C454.003 498.052 455.461 497.396 457.321 497.396C459.181 497.396 460.639 498.099 461.697 499.505C462.763 500.912 463.297 502.838 463.297 505.283V505.509ZM460.677 505.212C460.677 503.428 460.332 502.049 459.643 501.077C458.954 500.105 457.963 499.619 456.67 499.619C454.942 499.619 453.701 500.421 452.946 502.026V508.653C453.748 510.258 454.999 511.06 456.698 511.06C457.954 511.06 458.931 510.574 459.629 509.602C460.328 508.629 460.677 507.166 460.677 505.212ZM469.606 513H466.987V497.679H469.606V513ZM466.774 493.615C466.774 493.19 466.902 492.831 467.157 492.539C467.421 492.246 467.808 492.1 468.318 492.1C468.828 492.1 469.215 492.246 469.479 492.539C469.743 492.831 469.875 493.19 469.875 493.615C469.875 494.04 469.743 494.394 469.479 494.677C469.215 494.96 468.828 495.102 468.318 495.102C467.808 495.102 467.421 494.96 467.157 494.677C466.902 494.394 466.774 494.04 466.774 493.615ZM476.808 513H474.188V491.25H476.808V513ZM484.01 513H481.39V497.679H484.01V513ZM481.178 493.615C481.178 493.19 481.305 492.831 481.56 492.539C481.824 492.246 482.212 492.1 482.721 492.1C483.231 492.1 483.618 492.246 483.882 492.539C484.147 492.831 484.279 493.19 484.279 493.615C484.279 494.04 484.147 494.394 483.882 494.677C483.618 494.96 483.231 495.102 482.721 495.102C482.212 495.102 481.824 494.96 481.56 494.677C481.305 494.394 481.178 494.04 481.178 493.615ZM491.92 493.969V497.679H494.78V499.704H491.92V509.205C491.92 509.819 492.047 510.281 492.302 510.593C492.557 510.895 492.991 511.046 493.605 511.046C493.907 511.046 494.322 510.989 494.851 510.876V513C494.162 513.189 493.491 513.283 492.84 513.283C491.669 513.283 490.787 512.929 490.192 512.221C489.597 511.513 489.3 510.508 489.3 509.205V499.704H486.51V497.679H489.3V493.969H491.92ZM507.462 513C507.311 512.698 507.188 512.16 507.094 511.386C505.876 512.651 504.422 513.283 502.732 513.283C501.222 513.283 499.98 512.858 499.008 512.009C498.045 511.15 497.564 510.064 497.564 508.752C497.564 507.157 498.168 505.92 499.376 505.042C500.594 504.155 502.303 503.711 504.502 503.711H507.051V502.507C507.051 501.592 506.777 500.865 506.23 500.327C505.682 499.779 504.875 499.505 503.808 499.505C502.874 499.505 502.09 499.741 501.458 500.213C500.825 500.685 500.509 501.257 500.509 501.927H497.875C497.875 501.162 498.144 500.426 498.682 499.718C499.23 499 499.966 498.434 500.891 498.019C501.826 497.603 502.85 497.396 503.964 497.396C505.729 497.396 507.112 497.839 508.113 498.727C509.114 499.604 509.633 500.818 509.671 502.366V509.417C509.671 510.824 509.85 511.943 510.209 512.773V513H507.462ZM503.115 511.003C503.936 511.003 504.715 510.791 505.451 510.366C506.187 509.941 506.721 509.389 507.051 508.709V505.566H504.998C501.788 505.566 500.183 506.505 500.183 508.384C500.183 509.205 500.457 509.847 501.005 510.31C501.552 510.772 502.256 511.003 503.115 511.003ZM521.333 500.029C520.936 499.963 520.507 499.93 520.044 499.93C518.326 499.93 517.16 500.662 516.547 502.125V513H513.927V497.679H516.476L516.518 499.449C517.377 498.08 518.595 497.396 520.172 497.396C520.682 497.396 521.069 497.462 521.333 497.594V500.029ZM540.707 513C540.556 512.698 540.433 512.16 540.339 511.386C539.121 512.651 537.667 513.283 535.977 513.283C534.467 513.283 533.225 512.858 532.253 512.009C531.29 511.15 530.809 510.064 530.809 508.752C530.809 507.157 531.413 505.92 532.621 505.042C533.839 504.155 535.548 503.711 537.747 503.711H540.296V502.507C540.296 501.592 540.022 500.865 539.475 500.327C538.927 499.779 538.12 499.505 537.053 499.505C536.119 499.505 535.335 499.741 534.703 500.213C534.07 500.685 533.754 501.257 533.754 501.927H531.12C531.12 501.162 531.389 500.426 531.927 499.718C532.475 499 533.211 498.434 534.136 498.019C535.071 497.603 536.095 497.396 537.209 497.396C538.974 497.396 540.357 497.839 541.358 498.727C542.359 499.604 542.878 500.818 542.916 502.366V509.417C542.916 510.824 543.095 511.943 543.454 512.773V513H540.707ZM536.359 511.003C537.181 511.003 537.96 510.791 538.696 510.366C539.432 509.941 539.966 509.389 540.296 508.709V505.566H538.243C535.033 505.566 533.428 506.505 533.428 508.384C533.428 509.205 533.702 509.847 534.25 510.31C534.797 510.772 535.5 511.003 536.359 511.003ZM560.873 513.283C558.797 513.283 557.107 512.604 555.804 511.244C554.501 509.875 553.85 508.049 553.85 505.764V505.283C553.85 503.763 554.138 502.408 554.714 501.219C555.299 500.02 556.111 499.085 557.149 498.415C558.197 497.735 559.33 497.396 560.548 497.396C562.54 497.396 564.088 498.052 565.192 499.364C566.297 500.676 566.849 502.555 566.849 505V506.09H556.47C556.507 507.6 556.946 508.823 557.786 509.757C558.636 510.682 559.712 511.145 561.015 511.145C561.94 511.145 562.724 510.956 563.366 510.579C564.007 510.201 564.569 509.701 565.051 509.078L566.651 510.324C565.367 512.297 563.441 513.283 560.873 513.283ZM560.548 499.548C559.49 499.548 558.603 499.935 557.886 500.709C557.168 501.474 556.724 502.55 556.555 503.938H564.229V503.739C564.154 502.408 563.795 501.379 563.153 500.652C562.511 499.916 561.643 499.548 560.548 499.548ZM575.183 503.272L578.582 497.679H581.641L576.628 505.254L581.796 513H578.766L575.226 507.265L571.686 513H568.641L573.81 505.254L568.797 497.679H571.828L575.183 503.272ZM587.426 513H584.807V497.679H587.426V513ZM584.594 493.615C584.594 493.19 584.722 492.831 584.977 492.539C585.241 492.246 585.628 492.1 586.138 492.1C586.647 492.1 587.035 492.246 587.299 492.539C587.563 492.831 587.695 493.19 587.695 493.615C587.695 494.04 587.563 494.394 587.299 494.677C587.035 494.96 586.647 495.102 586.138 495.102C585.628 495.102 585.241 494.96 584.977 494.677C584.722 494.394 584.594 494.04 584.594 493.615ZM604.753 505.509C604.753 507.85 604.214 509.734 603.138 511.159C602.062 512.575 600.618 513.283 598.805 513.283C596.87 513.283 595.374 512.599 594.317 511.23L594.189 513H591.782V491.25H594.401V499.364C595.459 498.052 596.917 497.396 598.777 497.396C600.637 497.396 602.095 498.099 603.152 499.505C604.219 500.912 604.753 502.838 604.753 505.283V505.509ZM602.133 505.212C602.133 503.428 601.788 502.049 601.099 501.077C600.41 500.105 599.419 499.619 598.126 499.619C596.398 499.619 595.157 500.421 594.401 502.026V508.653C595.204 510.258 596.455 511.06 598.154 511.06C599.409 511.06 600.387 510.574 601.085 509.602C601.784 508.629 602.133 507.166 602.133 505.212ZM611.062 513H608.443V497.679H611.062V513ZM608.23 493.615C608.23 493.19 608.358 492.831 608.612 492.539C608.877 492.246 609.264 492.1 609.774 492.1C610.283 492.1 610.67 492.246 610.935 492.539C611.199 492.831 611.331 493.19 611.331 493.615C611.331 494.04 611.199 494.394 610.935 494.677C610.67 494.96 610.283 495.102 609.774 495.102C609.264 495.102 608.877 494.96 608.612 494.677C608.358 494.394 608.23 494.04 608.23 493.615ZM621.563 511.145C622.498 511.145 623.314 510.862 624.013 510.295C624.712 509.729 625.099 509.021 625.174 508.171H627.652C627.605 509.049 627.303 509.885 626.746 510.678C626.189 511.471 625.443 512.103 624.509 512.575C623.583 513.047 622.602 513.283 621.563 513.283C619.477 513.283 617.816 512.589 616.579 511.202C615.352 509.805 614.738 507.898 614.738 505.481V505.042C614.738 503.55 615.012 502.224 615.559 501.063C616.107 499.902 616.89 499 617.91 498.358C618.939 497.716 620.152 497.396 621.549 497.396C623.267 497.396 624.693 497.91 625.826 498.939C626.968 499.968 627.577 501.304 627.652 502.946H625.174C625.099 501.955 624.721 501.143 624.041 500.511C623.371 499.869 622.54 499.548 621.549 499.548C620.218 499.548 619.184 500.029 618.448 500.992C617.721 501.946 617.358 503.329 617.358 505.141V505.637C617.358 507.402 617.721 508.761 618.448 509.715C619.175 510.668 620.213 511.145 621.563 511.145ZM621.988 513.127L621.818 513.864C623.263 514.119 623.985 514.935 623.985 516.313C623.985 517.229 623.607 517.951 622.852 518.48C622.097 519.018 621.044 519.287 619.694 519.287L619.595 517.772C620.341 517.772 620.917 517.649 621.323 517.404C621.738 517.158 621.946 516.814 621.946 516.37C621.946 515.955 621.795 515.648 621.492 515.45C621.19 515.251 620.577 515.11 619.652 515.025L620.105 513.127H621.988ZM640.206 513C640.055 512.698 639.933 512.16 639.838 511.386C638.62 512.651 637.167 513.283 635.477 513.283C633.967 513.283 632.725 512.858 631.753 512.009C630.79 511.15 630.308 510.064 630.308 508.752C630.308 507.157 630.913 505.92 632.121 505.042C633.339 504.155 635.047 503.711 637.247 503.711H639.796V502.507C639.796 501.592 639.522 500.865 638.974 500.327C638.427 499.779 637.62 499.505 636.553 499.505C635.619 499.505 634.835 499.741 634.203 500.213C633.57 500.685 633.254 501.257 633.254 501.927H630.62C630.62 501.162 630.889 500.426 631.427 499.718C631.975 499 632.711 498.434 633.636 498.019C634.571 497.603 635.595 497.396 636.709 497.396C638.474 497.396 639.857 497.839 640.858 498.727C641.858 499.604 642.378 500.818 642.415 502.366V509.417C642.415 510.824 642.595 511.943 642.953 512.773V513H640.206ZM635.859 511.003C636.681 511.003 637.459 510.791 638.196 510.366C638.932 509.941 639.465 509.389 639.796 508.709V505.566H637.743C634.533 505.566 632.928 506.505 632.928 508.384C632.928 509.205 633.202 509.847 633.749 510.31C634.297 510.772 635 511.003 635.859 511.003ZM642.019 491.703C642.019 492.723 641.726 493.549 641.141 494.181C640.565 494.814 639.843 495.13 638.974 495.13C638.587 495.13 638.252 495.083 637.969 494.988C637.686 494.894 637.313 494.7 636.85 494.408C636.397 494.115 636.067 493.94 635.859 493.884C635.661 493.818 635.43 493.785 635.165 493.785C634.778 493.785 634.448 493.936 634.174 494.238C633.9 494.53 633.764 494.908 633.764 495.371L632.008 495.271C632.008 494.261 632.291 493.426 632.857 492.765C633.433 492.104 634.16 491.774 635.038 491.774C635.368 491.774 635.666 491.821 635.93 491.916C636.194 492.01 636.553 492.194 637.006 492.468C637.459 492.742 637.804 492.921 638.04 493.006C638.285 493.091 638.554 493.133 638.847 493.133C639.253 493.133 639.588 492.973 639.852 492.652C640.126 492.331 640.263 491.958 640.263 491.533L642.019 491.703ZM645.978 505.198C645.978 503.697 646.271 502.347 646.856 501.148C647.451 499.949 648.272 499.024 649.32 498.373C650.377 497.721 651.581 497.396 652.931 497.396C655.017 497.396 656.702 498.118 657.986 499.562C659.279 501.006 659.926 502.927 659.926 505.325V505.509C659.926 507.001 659.638 508.341 659.062 509.531C658.496 510.711 657.679 511.631 656.612 512.292C655.555 512.953 654.337 513.283 652.959 513.283C650.882 513.283 649.197 512.561 647.904 511.117C646.62 509.672 645.978 507.761 645.978 505.382V505.198ZM648.612 505.509C648.612 507.208 649.004 508.573 649.787 509.602C650.58 510.631 651.637 511.145 652.959 511.145C654.29 511.145 655.347 510.626 656.131 509.587C656.914 508.54 657.306 507.076 657.306 505.198C657.306 503.517 656.905 502.158 656.103 501.12C655.31 500.072 654.252 499.548 652.931 499.548C651.637 499.548 650.594 500.062 649.801 501.091C649.008 502.12 648.612 503.593 648.612 505.509ZM670.067 505.212C670.067 502.861 670.624 500.973 671.738 499.548C672.852 498.113 674.31 497.396 676.113 497.396C677.907 497.396 679.328 498.009 680.376 499.236V491.25H682.995V513H680.588L680.461 511.357C679.413 512.641 677.954 513.283 676.085 513.283C674.31 513.283 672.861 512.556 671.738 511.103C670.624 509.649 670.067 507.751 670.067 505.41V505.212ZM672.687 505.509C672.687 507.246 673.045 508.606 673.763 509.587C674.48 510.569 675.472 511.06 676.737 511.06C678.398 511.06 679.611 510.314 680.376 508.823V501.785C679.592 500.341 678.389 499.619 676.765 499.619C675.481 499.619 674.48 500.114 673.763 501.105C673.045 502.097 672.687 503.565 672.687 505.509ZM696.682 513C696.531 512.698 696.409 512.16 696.314 511.386C695.096 512.651 693.643 513.283 691.953 513.283C690.443 513.283 689.201 512.858 688.229 512.009C687.266 511.15 686.784 510.064 686.784 508.752C686.784 507.157 687.389 505.92 688.597 505.042C689.815 504.155 691.523 503.711 693.723 503.711H696.272V502.507C696.272 501.592 695.998 500.865 695.451 500.327C694.903 499.779 694.096 499.505 693.029 499.505C692.095 499.505 691.311 499.741 690.679 500.213C690.046 500.685 689.73 501.257 689.73 501.927H687.096C687.096 501.162 687.365 500.426 687.903 499.718C688.451 499 689.187 498.434 690.112 498.019C691.047 497.603 692.071 497.396 693.185 497.396C694.95 497.396 696.333 497.839 697.334 498.727C698.334 499.604 698.854 500.818 698.891 502.366V509.417C698.891 510.824 699.071 511.943 699.43 512.773V513H696.682ZM692.335 511.003C693.157 511.003 693.935 510.791 694.672 510.366C695.408 509.941 695.941 509.389 696.272 508.709V505.566H694.219C691.009 505.566 689.404 506.505 689.404 508.384C689.404 509.205 689.678 509.847 690.225 510.31C690.773 510.772 691.476 511.003 692.335 511.003ZM713.337 513H710.718V491.25H713.337V513ZM720.539 513H717.92V497.679H720.539V513ZM717.707 493.615C717.707 493.19 717.835 492.831 718.089 492.539C718.354 492.246 718.741 492.1 719.251 492.1C719.76 492.1 720.147 492.246 720.412 492.539C720.676 492.831 720.808 493.19 720.808 493.615C720.808 494.04 720.676 494.394 720.412 494.677C720.147 494.96 719.76 495.102 719.251 495.102C718.741 495.102 718.354 494.96 718.089 494.677C717.835 494.394 717.707 494.04 717.707 493.615ZM733.816 508.936C733.816 508.228 733.547 507.681 733.008 507.293C732.48 506.897 731.55 506.557 730.219 506.274C728.897 505.991 727.845 505.651 727.061 505.254C726.287 504.858 725.711 504.386 725.334 503.838C724.966 503.291 724.781 502.639 724.781 501.884C724.781 500.629 725.31 499.567 726.367 498.698C727.434 497.83 728.793 497.396 730.445 497.396C732.182 497.396 733.589 497.844 734.665 498.741C735.751 499.638 736.294 500.785 736.294 502.182H733.66C733.66 501.464 733.353 500.846 732.739 500.327C732.135 499.807 731.371 499.548 730.445 499.548C729.492 499.548 728.746 499.756 728.208 500.171C727.67 500.586 727.401 501.129 727.401 501.799C727.401 502.432 727.651 502.909 728.152 503.229C728.652 503.55 729.553 503.857 730.856 504.15C732.168 504.443 733.23 504.792 734.042 505.198C734.854 505.604 735.453 506.095 735.841 506.67C736.237 507.237 736.435 507.931 736.435 508.752C736.435 510.121 735.888 511.221 734.793 512.051C733.698 512.873 732.277 513.283 730.53 513.283C729.303 513.283 728.218 513.066 727.274 512.632C726.33 512.198 725.589 511.593 725.05 510.819C724.522 510.036 724.258 509.191 724.258 508.285H726.877C726.924 509.163 727.274 509.861 727.925 510.38C728.586 510.89 729.454 511.145 730.53 511.145C731.522 511.145 732.315 510.947 732.909 510.55C733.514 510.144 733.816 509.606 733.816 508.936ZM743.552 493.969V497.679H746.412V499.704H743.552V509.205C743.552 509.819 743.68 510.281 743.934 510.593C744.189 510.895 744.624 511.046 745.237 511.046C745.539 511.046 745.955 510.989 746.483 510.876V513C745.794 513.189 745.124 513.283 744.472 513.283C743.302 513.283 742.419 512.929 741.825 512.221C741.23 511.513 740.932 510.508 740.932 509.205V499.704H738.143V497.679H740.932V493.969H743.552ZM759.094 513C758.943 512.698 758.82 512.16 758.726 511.386C757.508 512.651 756.054 513.283 754.365 513.283C752.854 513.283 751.613 512.858 750.641 512.009C749.678 511.15 749.196 510.064 749.196 508.752C749.196 507.157 749.8 505.92 751.009 505.042C752.226 504.155 753.935 503.711 756.135 503.711H758.683V502.507C758.683 501.592 758.41 500.865 757.862 500.327C757.315 499.779 756.508 499.505 755.441 499.505C754.506 499.505 753.723 499.741 753.09 500.213C752.458 500.685 752.141 501.257 752.141 501.927H749.508C749.508 501.162 749.777 500.426 750.315 499.718C750.862 499 751.599 498.434 752.524 498.019C753.458 497.603 754.483 497.396 755.597 497.396C757.362 497.396 758.745 497.839 759.745 498.727C760.746 499.604 761.265 500.818 761.303 502.366V509.417C761.303 510.824 761.482 511.943 761.841 512.773V513H759.094ZM754.747 511.003C755.568 511.003 756.347 510.791 757.083 510.366C757.82 509.941 758.353 509.389 758.683 508.709V505.566H756.63C753.421 505.566 751.816 506.505 751.816 508.384C751.816 509.205 752.09 509.847 752.637 510.31C753.185 510.772 753.888 511.003 754.747 511.003ZM765.616 511.626C765.616 511.173 765.748 510.796 766.013 510.494C766.286 510.192 766.692 510.041 767.23 510.041C767.769 510.041 768.174 510.192 768.448 510.494C768.731 510.796 768.873 511.173 768.873 511.626C768.873 512.061 768.731 512.424 768.448 512.717C768.174 513.009 767.769 513.156 767.23 513.156C766.692 513.156 766.286 513.009 766.013 512.717C765.748 512.424 765.616 512.061 765.616 511.626Z" fill="black" fill-opacity="0.54"/>
  <defs>
    <clipPath id="clip0">
      <rect width="482" height="395" fill="white" transform="translate(144)"/>
    </clipPath>
  </defs>
</svg>
