<svg width="722" height="250" viewBox="0 0 722 250" fill="none" xmlns="http://www.w3.org/2000/svg">
<path d="M125.22 194.65C126.77 194.65 128.18 195.25 129.23 196.23C130.83 197.44 131.86 199.37 131.86 201.52V224.6C135.99 226.92 138.78 231.35 138.78 236.43C138.78 243.92 132.71 250 125.21 250C117.72 250 111.64 243.92 111.64 236.43C111.64 231.35 114.43 226.92 118.56 224.6V206.1C110.01 205.39 101.66 203.32 93.8 200.01C86.16 196.8 79.02 192.41 72.6499 186.97L59.49 200.13C60.77 204.69 59.61 209.8 56.02 213.39C50.72 218.69 42.12 218.69 36.82 213.39C31.52 208.09 31.52 199.49 36.82 194.19C40.41 190.6 45.52 189.45 50.08 190.72L66.3999 174.4C66.84 173.97 67.32 173.61 67.83 173.32C70.16 171.45 73.5599 171.63 75.6799 173.81C82.1999 180.48 89.92 185.7 98.34 189.24C106.73 192.77 115.86 194.65 125.22 194.65ZM189.89 100.63C188.74 97.6 190.26 94.22 193.28 93.07C196.31 91.91 199.69 93.43 200.84 96.46C202.6 101.03 203.93 105.8 204.83 110.69C205.31 113.24 205.66 115.8 205.88 118.35H224.81C227.13 114.22 231.56 111.43 236.64 111.43C244.14 111.43 250.21 117.5 250.21 125C250.21 132.5 244.14 138.57 236.64 138.57C231.56 138.57 227.13 135.78 224.81 131.65H205.96C205.3 140.13 203.3 148.42 200.08 156.23C196.92 163.91 192.57 171.11 187.16 177.54L200.34 190.72C204.91 189.45 210.01 190.6 213.6 194.19C218.9 199.49 218.9 208.09 213.6 213.39C208.3 218.69 199.71 218.69 194.41 213.39C190.82 209.8 189.66 204.69 190.93 200.13L174.62 183.81C173.18 182.37 172.54 180.43 172.7 178.54C172.64 176.97 173.2 175.38 174.4 174.18C180.83 167.69 185.85 160.07 189.26 151.79C192.67 143.52 194.47 134.57 194.47 125.4C194.47 121.1 194.08 116.88 193.33 112.8C192.57 108.71 191.42 104.63 189.89 100.63ZM55.9799 125.4C55.9799 128.28 53.9 130.68 51.16 131.17C50.4 131.48 49.56 131.65 48.69 131.65H25.6199C23.2899 135.78 18.8599 138.57 13.7899 138.57C6.28995 138.57 0.209961 132.5 0.209961 125C0.209961 117.5 6.28995 111.43 13.7899 111.43C18.8599 111.43 23.2899 114.22 25.6199 118.35H44.55C46.04 101.05 52.98 85.3 63.63 72.83L50.08 59.28C45.52 60.55 40.41 59.4 36.82 55.81C31.52 50.51 31.52 41.91 36.82 36.61C42.12 31.31 50.72 31.31 56.02 36.61C59.61 40.2 60.77 45.31 59.49 49.87L73.07 63.45C85.57 52.92 101.3 46.1 118.56 44.7V25.41C114.43 23.08 111.64 18.65 111.64 13.57C111.64 6.08001 117.72 0 125.21 0C132.71 0 138.78 6.08001 138.78 13.57C138.78 18.65 135.99 23.08 131.86 25.41V44.7C140.21 45.39 148.36 47.38 156.04 50.54C163.39 53.56 170.29 57.67 176.5 62.75L176.6 62.65C178.04 60.92 179.52 59.46 180.97 58.29L189.39 49.87C188.11 45.31 189.27 40.2 192.86 36.61C198.16 31.31 206.75 31.31 212.05 36.61C217.35 41.91 217.35 50.51 212.05 55.81C208.46 59.4 203.36 60.55 198.79 59.28C175.44 82.63 152.95 106.6 129.52 130.08C127.08 132.52 123.11 132.53 120.67 130.09C118.22 127.64 118.22 123.68 120.66 121.23L132.46 109.41C130.15 108.37 127.64 107.82 125.07 107.82C115.23 107.83 107.24 115.84 107.25 125.67C107.26 135.51 115.27 143.5 125.11 143.49C132.62 143.49 139.36 138.73 141.89 131.66C143.05 128.41 146.64 126.71 149.89 127.88C152.45 128.79 154.04 131.2 154.04 133.76C154.04 134.47 153.93 135.18 153.68 135.88C149.38 147.91 137.9 156 125.12 156.01C108.38 156.03 94.7499 142.42 94.7299 125.69C94.7199 108.95 108.32 95.32 125.06 95.3C130.98 95.3 136.73 97.02 141.64 100.21L150.62 91.21C143.26 85.74 134.37 82.78 125.05 82.78C122.29 82.79 119.53 83.05 116.85 83.57C113.45 84.24 110.17 82.02 109.51 78.63C108.85 75.23 111.06 71.95 114.46 71.29C117.92 70.61 121.48 70.27 125.03 70.27C137.7 70.25 149.75 74.48 159.54 82.28C163.57 77.67 166.44 74.43 168.89 71.64C163.63 67.37 157.8 63.91 151.6 61.36C143.34 57.96 134.39 56.16 125.22 56.16C106.1 56.16 88.7899 63.91 76.2599 76.44C63.7299 88.97 55.9799 106.28 55.9799 125.4ZM69.7 125.71C69.6899 119.3 70.77 113 72.92 107.01C74.08 103.76 77.66 102.06 80.92 103.22C84.17 104.39 85.8699 107.97 84.7 111.22C83.0499 115.86 82.21 120.73 82.21 125.7C82.24 149.34 101.49 168.55 125.13 168.53C148.77 168.51 167.98 149.25 167.96 125.61C167.96 121.96 167.49 118.33 166.58 114.84C165.71 111.49 167.72 108.07 171.07 107.2C174.41 106.33 177.83 108.34 178.7 111.69C179.88 116.21 180.47 120.89 180.48 125.6C180.51 156.14 155.68 181.02 125.14 181.05C94.6 181.08 69.7299 156.25 69.7 125.71Z" fill="#4B2973"/>
<path d="M330.72 112.16C330.72 116.82 329.64 120.77 327.46 123.99C325.29 127.22 321.94 129.44 317.4 130.65L333.02 159.11H322.39L307.82 131.8H293.83V159.11H284.34V90.8901H310.79C314.3 90.8901 317.32 91.3801 319.85 92.3701C322.37 93.3601 324.43 94.7401 326.03 96.4901C327.62 98.2501 328.81 100.31 329.57 102.67C330.34 105.04 330.72 107.59 330.72 110.34V112.16ZM293.83 123.85H308.2C312.42 123.85 315.63 122.94 317.83 121.12C320.04 119.3 321.14 116.31 321.14 112.16V110.91C321.14 106.83 320.15 103.79 318.17 101.81C316.19 99.8301 313.09 98.8401 308.87 98.8401H293.83V123.85Z" fill="#4B2973"/>
<path d="M387.16 90.8901L386.01 98.7401H353.91V120.11H384.1L382.85 127.97H353.91V151.26H387.16L386.01 159.11H344.33V90.8901H387.16Z" fill="#4B2973"/>
<path d="M417.73 160.07C414.09 160.07 410.5 159.79 406.95 159.21C403.41 158.64 400.42 157.93 397.99 157.1L399.62 149.44C402.18 150.14 404.97 150.76 408.01 151.31C411.04 151.85 414.22 152.12 417.54 152.12C423.35 152.12 427.49 151.13 429.95 149.15C432.41 147.17 433.64 144.04 433.64 139.76C433.64 138.35 433.49 137.06 433.21 135.88C432.92 134.7 432.38 133.64 431.58 132.71C430.78 131.79 429.68 131.01 428.27 130.37C426.87 129.73 425.08 129.25 422.91 128.93L415.43 127.97C409.56 127.21 405.24 125.24 402.5 122.08C399.75 118.92 398.37 114.81 398.37 109.76V109C398.37 102.54 400.53 97.7499 404.84 94.6199C409.16 91.4899 415.4 89.9299 423.58 89.9299C427.47 89.9299 430.84 90.2299 433.69 90.8399C436.53 91.4499 439.07 92.0999 441.3 92.7999L439.58 100.28C437.41 99.5699 434.95 98.9999 432.2 98.5499C429.45 98.1099 426.55 97.8799 423.48 97.8799C417.86 97.8799 413.79 98.7799 411.26 100.57C408.74 102.35 407.48 105.26 407.48 109.29C407.48 112.42 408.29 114.75 409.92 116.28C411.55 117.81 414.28 118.84 418.11 119.35L426.16 120.5C431.85 121.33 436.1 123.23 438.91 126.2C441.72 129.17 443.12 133.46 443.12 139.09V140.05C443.12 146.75 440.94 151.77 436.56 155.09C432.18 158.41 425.91 160.07 417.73 160.07Z" fill="#4B2973"/>
<path d="M482.51 160.07C477.02 160.07 472.43 159.42 468.76 158.11C465.08 156.8 462.13 154.85 459.89 152.26C457.66 149.68 456.08 146.45 455.15 142.59C454.22 138.72 453.76 134.2 453.76 129.03V122.03C453.76 117.43 454.22 113.18 455.15 109.29C456.08 105.39 457.69 102 459.99 99.1299C462.29 96.2499 465.36 93.9999 469.19 92.3699C473.02 90.7399 477.85 89.9299 483.66 89.9299C486.92 89.9299 489.92 90.1799 492.67 90.6899C495.41 91.2099 497.68 91.78 499.47 92.42L497.07 103.54C495.54 103.02 493.8 102.61 491.85 102.29C489.9 101.97 487.78 101.81 485.48 101.81C482.41 101.81 479.81 102.11 477.67 102.72C475.53 103.33 473.79 104.4 472.45 105.93C471.11 107.46 470.13 109.54 469.52 112.16C468.92 114.78 468.61 118.1 468.61 122.13V128.45C468.61 132.54 468.89 135.86 469.43 138.42C469.97 140.97 470.88 142.97 472.16 144.41C473.44 145.84 475.18 146.83 477.38 147.38C479.59 147.92 482.38 148.19 485.77 148.19C487.62 148.19 489.73 148.1 492.09 147.9C494.46 147.71 496.85 147.39 499.28 146.94L496.98 158.44C494.55 159.02 492.09 159.43 489.6 159.69C487.11 159.95 484.75 160.07 482.51 160.07Z" fill="#1C8769"/>
<path d="M521.7 129.22C521.7 133.31 521.97 136.61 522.52 139.14C523.06 141.66 523.89 143.62 525.01 145.03C526.13 146.43 527.52 147.39 529.18 147.9C530.84 148.41 532.79 148.67 535.02 148.67C537.13 148.67 539.01 148.41 540.68 147.9C542.34 147.39 543.74 146.42 544.89 144.98C546.04 143.54 546.92 141.56 547.53 139.04C548.14 136.52 548.44 133.24 548.44 129.22V120.78C548.44 116.7 548.17 113.39 547.62 110.87C547.08 108.34 546.25 106.38 545.13 104.97C544.01 103.57 542.63 102.61 540.96 102.1C539.3 101.59 537.35 101.33 535.12 101.33C533.01 101.33 531.13 101.59 529.46 102.1C527.8 102.61 526.4 103.58 525.25 105.02C524.1 106.46 523.22 108.44 522.61 110.96C522.01 113.49 521.7 116.76 521.7 120.78V129.22ZM563.29 129.03C563.29 133.63 562.86 137.86 562 141.72C561.14 145.59 559.63 148.91 557.49 151.69C555.35 154.47 552.48 156.64 548.87 158.2C545.26 159.77 540.68 160.55 535.12 160.55C529.43 160.55 524.77 159.77 521.13 158.2C517.49 156.64 514.61 154.47 512.5 151.69C510.4 148.91 508.93 145.59 508.1 141.72C507.26 137.86 506.85 133.63 506.85 129.03V120.98C506.85 116.31 507.3 112.03 508.19 108.14C509.09 104.24 510.6 100.92 512.74 98.17C514.88 95.42 517.76 93.2799 521.37 91.7499C524.98 90.2199 529.53 89.45 535.02 89.45C540.84 89.45 545.58 90.26 549.25 91.89C552.93 93.52 555.8 95.7399 557.88 98.5499C559.95 101.36 561.38 104.69 562.14 108.52C562.91 112.35 563.29 116.5 563.29 120.98V129.03Z" fill="#1C8769"/>
<path d="M584.57 90.8901L599.7 142.54L615.13 90.8901H630.18L606.99 159.11H591.94L568.95 90.8901H584.57Z" fill="#1C8769"/>
<path d="M653.85 159.11H639.28V90.8901H653.85V159.11Z" fill="#1C8769"/>
<path d="M667.84 90.8901H691.79C697.61 90.8901 702.45 91.6501 706.31 93.1901C710.18 94.7201 713.26 96.8401 715.56 99.5601C717.86 102.27 719.47 105.53 720.4 109.33C721.32 113.13 721.79 117.27 721.79 121.74V128.16C721.79 132.7 721.31 136.87 720.35 140.67C719.39 144.47 717.76 147.73 715.46 150.44C713.16 153.16 710.08 155.28 706.22 156.82C702.35 158.35 697.51 159.11 691.7 159.11H667.84V90.8901ZM682.4 147.23H690.45C693.2 147.23 695.61 146.91 697.69 146.27C699.76 145.64 701.49 144.55 702.86 143.02C704.24 141.48 705.26 139.45 705.93 136.93C706.6 134.41 706.93 131.26 706.93 127.49V122.41C706.93 118.58 706.6 115.4 705.93 112.88C705.26 110.36 704.24 108.34 702.86 106.84C701.49 105.34 699.76 104.29 697.69 103.68C695.61 103.07 693.2 102.77 690.45 102.77H682.4V147.23Z" fill="#1C8769"/>
</svg>
