<svg 
  height="48" 
  width="48"
  enable-background="new 0 0 512 512" 
  viewBox="0 0 512 512"
  xmlns="http://www.w3.org/2000/svg">
  <g>
    <g>
      <path d="m27.703 47.907h456.594v343.455h-456.594z" fill="#30579d"/>
    </g>
    <g>
      <path d="m460.053 47.907h24.244v343.455h-24.244z" fill="#26457d"/>
    </g>
    <g>
      <path d="m195.39 391.362h121.22v70.711h-121.22z" fill="#26457d"/>
    </g>
    <g>
      <path d="m154.984 462.073h202.033v42.427h-202.033z" fill="#30579d"/>
    </g>
    <g>
      <path d="m330.752 462.073h26.264v42.427h-26.264z" fill="#26457d"/>
    </g>
    <g>
      <path d="m116.598 23.663h278.805v391.943h-278.805z" fill="#90d8f9" transform="matrix(0 1 -1 0 475.634 -36.366)"/>
    </g>
    <g>
      <path d="m114.577 7.5h282.846v351.537h-282.846z" fill="#e4f6ff"/>
    </g>
    <g>
      <g>
        <circle cx="256" cy="125.689" fill="#ac80dd" r="55.559"/>
      </g>
      <g>
        <path d="m284.18 77.811c4.874 8.263 7.681 17.891 7.681 28.179 0 30.684-24.875 55.559-55.559 55.559-10.288 0-19.916-2.807-28.18-7.681 9.663 16.382 27.481 27.379 47.878 27.379 30.684 0 55.559-24.875 55.559-55.559 0-20.395-10.998-38.214-27.379-47.877z" fill="#9d66d5"/>
      </g>
    </g>
    <g>
      <path d="m484.3 109.59c4.142 0 7.5-3.358 7.5-7.5v-54.18c0-4.142-3.358-7.5-7.5-7.5h-79.377v-32.91c0-4.142-3.358-7.5-7.5-7.5h-282.846c-4.142 0-7.5 3.358-7.5 7.5v32.91h-79.377c-4.142 0-7.5 3.358-7.5 7.5v343.45c0 4.142 3.358 7.5 7.5 7.5h160.19v55.71h-32.91c-4.142 0-7.5 3.358-7.5 7.5v42.43c0 4.142 3.358 7.5 7.5 7.5h202.04c4.142 0 7.5-3.358 7.5-7.5v-42.43c0-4.142-3.358-7.5-7.5-7.5h-32.91v-55.71h160.19c4.142 0 7.5-3.358 7.5-7.5v-254.27c0-4.142-3.358-7.5-7.5-7.5s-7.5 3.358-7.5 7.5v246.77h-441.6v-328.45h71.877v17.32h-47.047c-4.142 0-7.5 3.358-7.5 7.5v195.97c0 4.142 3.358 7.5 7.5 7.5s7.5-3.358 7.5-7.5v-188.47h39.547v263.81h-39.547v-40.34c0-4.142-3.358-7.5-7.5-7.5s-7.5 3.358-7.5 7.5v47.84c0 4.142 3.358 7.5 7.5 7.5h391.94c4.142 0 7.5-3.358 7.5-7.5v-278.81c0-4.142-3.358-7.5-7.5-7.5h-47.047v-17.32h71.877v46.68c0 4.142 3.358 7.5 7.5 7.5zm-175.19 344.98h-15.41c-4.142 0-7.5 3.358-7.5 7.5s3.358 7.5 7.5 7.5h55.82v27.43h-187.04v-27.43h96.22c4.142 0 7.5-3.358 7.5-7.5s-3.358-7.5-7.5-7.5h-55.81v-55.71h106.22zm80.813-439.57v336.537h-267.846v-336.537zm54.547 72.73v263.81h-39.547v-263.81z"/>
      <path d="m149.933 283.703h137.382c4.142 0 7.5-3.358 7.5-7.5s-3.358-7.5-7.5-7.5h-137.382c-4.142 0-7.5 3.358-7.5 7.5s3.358 7.5 7.5 7.5z"/>
      <path d="m362.067 268.703h-32.325c-4.142 0-7.5 3.358-7.5 7.5s3.358 7.5 7.5 7.5h32.325c4.142 0 7.5-3.358 7.5-7.5s-3.358-7.5-7.5-7.5z"/>
      <path d="m182.839 243.878c0 4.142 3.358 7.5 7.5 7.5h171.728c4.142 0 7.5-3.358 7.5-7.5s-3.358-7.5-7.5-7.5h-171.728c-4.142 0-7.5 3.358-7.5 7.5z"/>
      <path d="m149.933 316.028h32.325c4.142 0 7.5-3.358 7.5-7.5s-3.358-7.5-7.5-7.5h-32.325c-4.142 0-7.5 3.358-7.5 7.5s3.358 7.5 7.5 7.5z"/>
      <path d="m362.067 301.028h-138.392c-4.142 0-7.5 3.358-7.5 7.5s3.358 7.5 7.5 7.5h138.392c4.142 0 7.5-3.358 7.5-7.5s-3.358-7.5-7.5-7.5z"/>
      <path d="m184.385 158.376-1.301-2.253c-2.071-3.587-6.658-4.816-10.245-2.745s-4.816 6.658-2.745 10.245l5.05 8.746c0 .001.001.001.001.002s.001.001.001.002l5.05 8.747c1.389 2.406 3.91 3.751 6.502 3.751 1.272 0 2.562-.324 3.743-1.006 3.587-2.071 4.816-6.658 2.745-10.245l-1.301-2.253 13.665-7.889c3.601 4.795 7.868 9.062 12.663 12.663l-4.063 7.037c-2.071 3.587-.842 8.174 2.745 10.245 1.181.682 2.471 1.006 3.743 1.006 2.592 0 5.113-1.345 6.502-3.751l4.054-7.021c5.421 2.329 11.234 3.907 17.307 4.631v15.766h-2.602c-4.142 0-7.5 3.358-7.5 7.5s3.358 7.5 7.5 7.5h20.203c4.142 0 7.5-3.358 7.5-7.5s-3.358-7.5-7.5-7.5h-2.602v-15.766c6.073-.723 11.886-2.302 17.307-4.631l4.054 7.021c1.389 2.406 3.91 3.751 6.502 3.751 1.272 0 2.562-.324 3.743-1.006 3.587-2.071 4.816-6.658 2.745-10.245l-4.063-7.037c4.795-3.601 9.062-7.868 12.663-12.663l13.665 7.889-1.301 2.253c-2.071 3.587-.842 8.174 2.745 10.245 1.181.682 2.471 1.006 3.743 1.006 2.592 0 5.113-1.346 6.502-3.751l5.05-8.747c0-.001.001-.001.001-.002s.001-.001.001-.002l5.05-8.746c2.071-3.587.842-8.174-2.745-10.245-3.588-2.072-8.174-.842-10.245 2.745l-1.301 2.253-13.648-7.88c2.329-5.421 3.907-11.234 4.631-17.307h8.114c4.142 0 7.5-3.358 7.5-7.5s-3.358-7.5-7.5-7.5h-8.114c-.723-6.073-2.302-11.886-4.631-17.307l13.648-7.88 1.301 2.253c1.389 2.406 3.91 3.751 6.502 3.751 1.272 0 2.562-.324 3.743-1.006 3.587-2.071 4.816-6.658 2.745-10.245l-10.102-17.497c-2.071-3.588-6.658-4.817-10.245-2.745-3.587 2.071-4.816 6.658-2.745 10.245l1.301 2.253-13.665 7.889c-3.601-4.795-7.868-9.062-12.663-12.663l4.063-7.037c2.071-3.587.842-8.174-2.745-10.245-3.587-2.072-8.174-.842-10.245 2.745l-4.054 7.021c-5.421-2.329-11.234-3.907-17.307-4.631v-15.765h2.602c4.142 0 7.5-3.358 7.5-7.5s-3.358-7.5-7.5-7.5h-20.203c-4.142 0-7.5 3.358-7.5 7.5s3.358 7.5 7.5 7.5h2.602v15.766c-6.073.723-11.886 2.302-17.307 4.631l-4.054-7.021c-2.072-3.587-6.659-4.816-10.245-2.745-3.587 2.071-4.816 6.658-2.745 10.245l4.063 7.037c-4.795 3.601-9.062 7.868-12.663 12.663l-13.665-7.889 1.301-2.253c2.071-3.587.842-8.174-2.745-10.245-3.588-2.073-8.175-.842-10.245 2.745l-10.102 17.497c-2.071 3.587-.842 8.174 2.745 10.245 1.181.682 2.471 1.006 3.743 1.006 2.592 0 5.113-1.346 6.502-3.751l1.301-2.253 13.648 7.88c-2.329 5.421-3.907 11.234-4.631 17.307h-8.114c-4.142 0-7.5 3.358-7.5 7.5s3.358 7.5 7.5 7.5h8.114c.723 6.073 2.302 11.886 4.631 17.307zm71.615-80.746c26.5 0 48.059 21.559 48.059 48.059s-21.559 48.059-48.059 48.059-48.059-21.559-48.059-48.059 21.559-48.059 48.059-48.059z"/>
    </g>
  </g>
</svg>